<svg width="370" height="368" viewBox="0 0 370 368" fill="none" xmlns="http://www.w3.org/2000/svg">
<g opacity="0.5">
<path d="M59.7051 87.736L44.2102 112.377L17.4949 105.427L4.67153 147.759L29.2496 165.45L26.5781 192.618L2 201.463L10.5489 246.954L37.7985 245.059L48.4847 268.436L31.3869 292.445L60.2394 325.932L81.0774 307.609L98.7095 322.141L96.0379 350.573L136.111 360.682L140.92 346.15L161.223 350.573L166.566 367H193.282L198.625 350.573L229.08 344.255L234.423 360.682L273.428 348.677L271.29 322.141L287.854 306.345L309.226 325.3L337.544 293.709L320.981 267.173L331.667 245.059L358.917 246.954L368 201.463L341.285 191.986V162.922L365.863 146.495L351.436 104.795L325.79 113.641L308.692 88.3679L322.584 58.6724L293.197 31.5041L276.099 51.7223L245.109 31.5041L249.793 11.9268L214.685 3.27266L205.036 19.4996L163.895 21.395L156.425 2L122.753 7.85425V34.0314L92.8321 53.6178L77.3372 34.0314L47.4161 59.3042L59.7051 87.736Z" stroke="#DADADA" stroke-width="2"/>
<circle cx="185.5" cy="184.5" r="124.5" stroke="#DADADA" stroke-width="2"/>
</g>
</svg>
