<svg width="402" height="400" viewBox="0 0 402 400" fill="none" xmlns="http://www.w3.org/2000/svg">
<g opacity="0.5" filter="url(#filter0_d_68_3329)">
<g filter="url(#filter1_d_68_3329)">
<path d="M75.7051 99.736L60.2102 124.377L33.4949 117.427L20.6715 159.759L45.2496 177.45L42.5781 204.618L18 213.463L26.5489 258.954L53.7985 257.059L64.4847 280.436L47.3869 304.445L76.2394 337.932L97.0774 319.609L114.709 334.141L112.038 362.573L152.111 372.682L156.92 358.15L177.223 362.573L182.566 379H209.282L214.625 362.573L245.08 356.255L250.423 372.682L289.428 360.677L287.29 334.141L303.854 318.345L325.226 337.3L353.544 305.709L336.981 279.173L347.667 257.059L374.917 258.954L384 213.463L357.285 203.986V174.922L381.863 158.495L367.436 116.795L341.79 125.641L324.692 100.368L338.584 70.6724L309.197 43.5041L292.099 63.7223L261.109 43.5041L265.793 23.9268L230.685 15.2727L221.036 31.4996L179.895 33.395L172.425 14L138.753 19.8543V46.0314L108.832 65.6178L93.3372 46.0314L63.4161 71.3042L75.7051 99.736Z" stroke="#DADADA" stroke-width="2" shape-rendering="crispEdges"/>
</g>
<g filter="url(#filter2_d_68_3329)">
<circle cx="201.5" cy="196.5" r="124.5" stroke="#DADADA" stroke-width="2" shape-rendering="crispEdges"/>
</g>
</g>
<defs>
<filter id="filter0_d_68_3329" x="0.860352" y="0.874023" width="400.29" height="399.126" filterUnits="userSpaceOnUse" color-interpolation-filters="sRGB">
<feFlood flood-opacity="0" result="BackgroundImageFix"/>
<feColorMatrix in="SourceAlpha" type="matrix" values="0 0 0 0 0 0 0 0 0 0 0 0 0 0 0 0 0 0 127 0" result="hardAlpha"/>
<feOffset dy="4"/>
<feGaussianBlur stdDeviation="8"/>
<feComposite in2="hardAlpha" operator="out"/>
<feColorMatrix type="matrix" values="0 0 0 0 0.854902 0 0 0 0 0.854902 0 0 0 0 0.854902 0 0 0 1 0"/>
<feBlend mode="normal" in2="BackgroundImageFix" result="effect1_dropShadow_68_3329"/>
<feBlend mode="normal" in="SourceGraphic" in2="effect1_dropShadow_68_3329" result="shape"/>
</filter>
<filter id="filter1_d_68_3329" x="0.860352" y="0.874023" width="400.29" height="399.126" filterUnits="userSpaceOnUse" color-interpolation-filters="sRGB">
<feFlood flood-opacity="0" result="BackgroundImageFix"/>
<feColorMatrix in="SourceAlpha" type="matrix" values="0 0 0 0 0 0 0 0 0 0 0 0 0 0 0 0 0 0 127 0" result="hardAlpha"/>
<feOffset dy="4"/>
<feGaussianBlur stdDeviation="8"/>
<feComposite in2="hardAlpha" operator="out"/>
<feColorMatrix type="matrix" values="0 0 0 0 0.854902 0 0 0 0 0.854902 0 0 0 0 0.854902 0 0 0 1 0"/>
<feBlend mode="normal" in2="BackgroundImageFix" result="effect1_dropShadow_68_3329"/>
<feBlend mode="normal" in="SourceGraphic" in2="effect1_dropShadow_68_3329" result="shape"/>
</filter>
<filter id="filter2_d_68_3329" x="60" y="59" width="283" height="283" filterUnits="userSpaceOnUse" color-interpolation-filters="sRGB">
<feFlood flood-opacity="0" result="BackgroundImageFix"/>
<feColorMatrix in="SourceAlpha" type="matrix" values="0 0 0 0 0 0 0 0 0 0 0 0 0 0 0 0 0 0 127 0" result="hardAlpha"/>
<feOffset dy="4"/>
<feGaussianBlur stdDeviation="8"/>
<feComposite in2="hardAlpha" operator="out"/>
<feColorMatrix type="matrix" values="0 0 0 0 0.854902 0 0 0 0 0.854902 0 0 0 0 0.854902 0 0 0 1 0"/>
<feBlend mode="normal" in2="BackgroundImageFix" result="effect1_dropShadow_68_3329"/>
<feBlend mode="normal" in="SourceGraphic" in2="effect1_dropShadow_68_3329" result="shape"/>
</filter>
</defs>
</svg>
