<svg width="219" height="204" viewBox="0 0 219 204" fill="none" xmlns="http://www.w3.org/2000/svg">
<path opacity="0.6" d="M324 -14.5C324 4.21119 317.753 22.3932 306.238 37.1944C294.723 51.9957 278.593 62.5789 260.376 67.2844C242.159 71.9899 222.886 70.5514 205.58 63.1945C188.274 55.8377 173.913 42.9786 164.751 26.6341C155.589 10.2895 152.142 -8.61599 154.953 -27.1174C157.763 -45.6188 166.672 -62.6697 180.28 -75.5957C193.889 -88.5218 211.429 -96.592 230.148 -98.5405C248.868 -100.489 267.708 -96.2059 283.715 -86.3626L279.479 -79.5535C264.988 -88.4641 247.933 -92.3415 230.987 -90.5776C214.041 -88.8136 198.163 -81.5081 185.844 -69.8068C173.525 -58.1055 165.461 -42.6703 162.917 -25.9219C160.372 -9.17351 163.492 7.94068 171.786 22.7366C180.08 37.5324 193.08 49.1731 208.746 55.8329C224.413 62.4926 241.859 63.7948 258.35 59.5352C274.841 55.2756 289.444 45.6951 299.867 32.2963C310.291 18.8975 315.946 2.43828 315.946 -14.5H324Z" fill="url(#paint0_linear_663_781)" fill-opacity="0.4"/>
<path opacity="0.6" d="M326 -9C326 11.5934 319.165 31.6043 306.566 47.8945C293.968 64.1846 276.319 75.8324 256.388 81.0112C236.456 86.19 215.369 84.6068 196.434 76.51C177.5 68.4131 161.788 54.2605 151.763 36.2718C141.738 18.2831 137.968 -2.5241 141.043 -22.8866C144.118 -43.2491 153.864 -62.0151 168.754 -76.2415C183.643 -90.4678 202.834 -99.3497 223.315 -101.494C243.796 -103.639 264.41 -98.9248 281.924 -88.0914L278.082 -81.8801C261.944 -91.8628 242.949 -96.2066 224.076 -94.2305C205.203 -92.2543 187.519 -84.0699 173.799 -70.9608C160.079 -57.8517 151.098 -40.5594 148.264 -21.7961C145.431 -3.03268 148.905 16.1405 158.143 32.7165C167.38 49.2924 181.858 62.3336 199.306 69.7946C216.754 77.2556 236.185 78.7145 254.551 73.9424C272.917 69.1703 289.18 58.4372 300.789 43.4264C312.398 28.4156 318.696 9.97612 318.696 -9H326Z" fill="url(#paint1_linear_663_781)" fill-opacity="0.2"/>
<path opacity="0.6" d="M332 -6.5C332 15.9756 324.54 37.8155 310.79 55.5945C297.04 73.3735 277.778 86.086 256.025 91.7381C234.272 97.3902 211.258 95.6623 190.592 86.8254C169.927 77.9885 152.779 62.5423 141.838 42.9096C130.897 23.2768 126.782 0.56778 130.138 -21.6558C133.494 -43.8794 144.131 -64.3606 160.382 -79.8872C176.632 -95.4138 197.576 -105.108 219.93 -107.448C242.283 -109.789 264.781 -104.644 283.895 -92.8202L281.636 -89.1667C263.33 -100.49 241.784 -105.417 220.377 -103.176C198.97 -100.934 178.912 -91.6506 163.349 -76.7811C147.787 -61.9117 137.6 -42.2974 134.386 -21.0144C131.172 0.268639 135.113 22.0165 145.591 40.8183C156.068 59.6202 172.491 74.4126 192.281 82.8755C212.072 91.3384 234.112 92.9931 254.945 87.5802C275.777 82.1673 294.224 69.9929 307.392 52.9664C320.56 35.9399 327.704 15.0243 327.704 -6.5H332Z" fill="url(#paint2_linear_663_781)" fill-opacity="0.08"/>
<g opacity="0.6" filter="url(#filter0_f_663_781)">
<ellipse cx="193.5" cy="10" rx="43.5" ry="44" fill="#F39200"/>
</g>
<defs>
<filter id="filter0_f_663_781" x="0" y="-184" width="387" height="388" filterUnits="userSpaceOnUse" color-interpolation-filters="sRGB">
<feFlood flood-opacity="0" result="BackgroundImageFix"/>
<feBlend mode="normal" in="SourceGraphic" in2="BackgroundImageFix" result="shape"/>
<feGaussianBlur stdDeviation="75" result="effect1_foregroundBlur_663_781"/>
</filter>
<linearGradient id="paint0_linear_663_781" x1="196.075" y1="37.89" x2="184.25" y2="50.6346" gradientUnits="userSpaceOnUse">
<stop stop-color="#F39200" stop-opacity="0.65"/>
<stop offset="1" stop-color="#F39200" stop-opacity="0.5"/>
</linearGradient>
<linearGradient id="paint1_linear_663_781" x1="181.85" y1="57.7909" x2="175.509" y2="64.5546" gradientUnits="userSpaceOnUse">
<stop stop-color="#F39200" stop-opacity="0.5"/>
<stop offset="1" stop-color="#F39200" stop-opacity="0.3"/>
</linearGradient>
<linearGradient id="paint2_linear_663_781" x1="171.292" y1="68.3562" x2="167.908" y2="72.5854" gradientUnits="userSpaceOnUse">
<stop stop-color="#F39200" stop-opacity="0.3"/>
<stop offset="1" stop-color="#F39200" stop-opacity="0.2"/>
</linearGradient>
</defs>
</svg>
