<svg width="325" height="275" viewBox="0 0 325 275" fill="none" xmlns="http://www.w3.org/2000/svg">
<rect width="325" height="275" fill="#2B2B2B"/>
<rect width="1440" height="800" transform="translate(-558 -121)" fill="white"/>
<g clip-path="url(#clip0_8_2)">
<rect width="1440" height="1287" transform="translate(-558 -121)" fill="white"/>
<line x1="161.5" y1="231" x2="161.5" y2="258" stroke="#E4E4E4"/>
<line x1="161.5" y1="3" x2="161.5" y2="78" stroke="#E4E4E4"/>
<line x1="201" y1="153.5" x2="286" y2="153.5" stroke="#E4E4E4"/>
<line x1="36" y1="153.5" x2="121" y2="153.5" stroke="#E4E4E4"/>
<g filter="url(#filter0_d_8_2)">
<path d="M98 153.436L161.289 74L226 153.436L161.289 235L98 153.436Z" fill="url(#paint0_linear_8_2)"/>
</g>
<g filter="url(#filter1_d_8_2)">
<path d="M36 152.841L45.4097 141L55.0308 152.841L45.4097 165L36 152.841Z" fill="url(#paint1_linear_8_2)"/>
</g>
<g filter="url(#filter2_d_8_2)">
<path d="M269 152.841L278.41 141L288.031 152.841L278.41 165L269 152.841Z" fill="url(#paint2_linear_8_2)"/>
</g>
</g>
<path d="M148.666 150.667C148.666 144.382 148.666 141.238 150.619 139.287C152.573 137.335 155.714 137.333 161.999 137.333H164.499C170.784 137.333 173.928 137.333 175.879 139.287C177.831 141.24 177.833 144.382 177.833 150.667V157.333C177.833 163.618 177.833 166.762 175.879 168.713C173.926 170.665 170.784 170.667 164.499 170.667H161.999C155.714 170.667 152.571 170.667 150.619 168.713C148.668 166.76 148.666 163.618 148.666 157.333V150.667Z" stroke="white" stroke-width="1.5" stroke-linecap="round" stroke-linejoin="round"/>
<path d="M158.333 153.957C157.621 152.717 157.278 151.705 157.071 150.678C156.764 149.162 157.466 147.678 158.626 146.732C159.118 146.332 159.679 146.468 159.969 146.99L160.624 148.165C161.143 149.095 161.403 149.562 161.351 150.055C161.301 150.548 160.951 150.95 160.251 151.755L158.333 153.957ZM158.333 153.957C159.833 156.527 161.972 158.666 164.543 160.167M164.543 160.167C165.783 160.878 166.794 161.222 167.821 161.428C169.338 161.735 170.821 161.033 171.768 159.873C172.168 159.382 172.031 158.82 171.509 158.53L170.336 157.875C169.403 157.357 168.938 157.097 168.444 157.148C167.951 157.198 167.549 157.548 166.744 158.248L164.543 160.167ZM150.333 144H146.166M150.333 154H146.166M150.333 164H146.166" stroke="white" stroke-width="1.5" stroke-linecap="round" stroke-linejoin="round"/>
<defs>
<filter id="filter0_d_8_2" x="62" y="42" width="200" height="233" filterUnits="userSpaceOnUse" color-interpolation-filters="sRGB">
<feFlood flood-opacity="0" result="BackgroundImageFix"/>
<feColorMatrix in="SourceAlpha" type="matrix" values="0 0 0 0 0 0 0 0 0 0 0 0 0 0 0 0 0 0 127 0" result="hardAlpha"/>
<feOffset dy="4"/>
<feGaussianBlur stdDeviation="18"/>
<feComposite in2="hardAlpha" operator="out"/>
<feColorMatrix type="matrix" values="0 0 0 0 0.952941 0 0 0 0 0.572549 0 0 0 0 0 0 0 0 0.75 0"/>
<feBlend mode="normal" in2="BackgroundImageFix" result="effect1_dropShadow_8_2"/>
<feBlend mode="normal" in="SourceGraphic" in2="effect1_dropShadow_8_2" result="shape"/>
</filter>
<filter id="filter1_d_8_2" x="0" y="109" width="91.0312" height="96" filterUnits="userSpaceOnUse" color-interpolation-filters="sRGB">
<feFlood flood-opacity="0" result="BackgroundImageFix"/>
<feColorMatrix in="SourceAlpha" type="matrix" values="0 0 0 0 0 0 0 0 0 0 0 0 0 0 0 0 0 0 127 0" result="hardAlpha"/>
<feOffset dy="4"/>
<feGaussianBlur stdDeviation="18"/>
<feComposite in2="hardAlpha" operator="out"/>
<feColorMatrix type="matrix" values="0 0 0 0 0.952941 0 0 0 0 0.572549 0 0 0 0 0 0 0 0 1 0"/>
<feBlend mode="normal" in2="BackgroundImageFix" result="effect1_dropShadow_8_2"/>
<feBlend mode="normal" in="SourceGraphic" in2="effect1_dropShadow_8_2" result="shape"/>
</filter>
<filter id="filter2_d_8_2" x="233" y="109" width="91.0312" height="96" filterUnits="userSpaceOnUse" color-interpolation-filters="sRGB">
<feFlood flood-opacity="0" result="BackgroundImageFix"/>
<feColorMatrix in="SourceAlpha" type="matrix" values="0 0 0 0 0 0 0 0 0 0 0 0 0 0 0 0 0 0 127 0" result="hardAlpha"/>
<feOffset dy="4"/>
<feGaussianBlur stdDeviation="18"/>
<feComposite in2="hardAlpha" operator="out"/>
<feColorMatrix type="matrix" values="0 0 0 0 0.952941 0 0 0 0 0.572549 0 0 0 0 0 0 0 0 1 0"/>
<feBlend mode="normal" in2="BackgroundImageFix" result="effect1_dropShadow_8_2"/>
<feBlend mode="normal" in="SourceGraphic" in2="effect1_dropShadow_8_2" result="shape"/>
</filter>
<linearGradient id="paint0_linear_8_2" x1="124" y1="96.6406" x2="228.156" y2="193.586" gradientUnits="userSpaceOnUse">
<stop stop-color="#F39200"/>
<stop offset="1" stop-color="#FFB648"/>
</linearGradient>
<linearGradient id="paint1_linear_8_2" x1="39.8656" y1="144.375" x2="55.3891" y2="158.786" gradientUnits="userSpaceOnUse">
<stop stop-color="#F39200"/>
<stop offset="1" stop-color="#FFB648"/>
</linearGradient>
<linearGradient id="paint2_linear_8_2" x1="272.866" y1="144.375" x2="288.389" y2="158.786" gradientUnits="userSpaceOnUse">
<stop stop-color="#F39200"/>
<stop offset="1" stop-color="#FFB648"/>
</linearGradient>
<clipPath id="clip0_8_2">
<rect width="1440" height="2102" fill="white" transform="translate(-558 -121)"/>
</clipPath>
</defs>
</svg>
