<svg width="352" height="423" viewBox="0 0 352 423" fill="none" xmlns="http://www.w3.org/2000/svg">
<path d="M223.402 331.168C223.402 338.027 218.181 344.354 209.479 348.994C200.799 353.624 188.773 356.502 175.462 356.502C162.151 356.502 150.125 353.624 141.445 348.994C132.743 344.354 127.521 338.027 127.521 331.168C127.521 324.308 132.743 317.982 141.445 313.341C150.125 308.711 162.151 305.833 175.462 305.833C188.773 305.833 200.799 308.711 209.479 313.341C218.181 317.982 223.402 324.308 223.402 331.168Z" stroke="#C4C4C4"/>
<path d="M223.402 331.168C223.402 338.027 218.181 344.354 209.479 348.994C200.799 353.624 188.773 356.502 175.462 356.502C162.151 356.502 150.125 353.624 141.445 348.994C132.743 344.354 127.521 338.027 127.521 331.168C127.521 324.308 132.743 317.982 141.445 313.341C150.125 308.711 162.151 305.833 175.462 305.833C188.773 305.833 200.799 308.711 209.479 313.341C218.181 317.982 223.402 324.308 223.402 331.168Z" stroke="url(#paint0_linear_68_2937)"/>
<path d="M6.99707 279.499C87.6087 286.859 127.775 308.099 177.077 422.129" stroke="url(#paint1_linear_68_2937)"/>
<path d="M346.618 277.346C266.007 284.706 225.84 305.946 176.539 419.976" stroke="url(#paint2_linear_68_2937)"/>
<path d="M90.4219 205.224C149.733 278.409 165.135 326.67 176 420.515" stroke="#C4C4C4"/>
<path d="M90.4219 205.224C149.733 278.409 165.135 326.67 176 420.515" stroke="url(#paint3_linear_68_2937)"/>
<path d="M262.116 199.84C202.805 273.025 187.404 321.286 176.538 415.131" stroke="url(#paint4_linear_68_2937)"/>
<path d="M29.6025 236.44C111.094 276.2 146.729 312.151 176.538 422.128" stroke="url(#paint5_linear_68_2937)"/>
<path d="M323.474 234.287C241.983 274.047 206.347 309.998 176.538 419.975" stroke="url(#paint6_linear_68_2937)"/>
<path d="M346.117 275.193C346.117 298.985 327.236 320.652 296.417 336.402C265.625 352.138 223.052 361.885 176 361.885C128.947 361.885 86.3739 352.138 55.5821 336.402C24.7635 320.652 5.88184 298.985 5.88184 275.193C5.88184 251.401 24.7635 229.733 55.5821 213.983C86.3739 198.248 128.947 188.5 176 188.5C223.052 188.5 265.625 198.248 296.417 213.983C327.236 229.733 346.117 251.401 346.117 275.193Z" stroke="url(#paint7_linear_68_2937)"/>
<path d="M301.984 284.342C301.984 301.738 287.928 317.621 264.898 329.185C241.897 340.734 210.087 347.891 174.924 347.891C139.76 347.891 107.95 340.734 84.95 329.185C61.9201 317.621 47.8643 301.738 47.8643 284.342C47.8643 266.946 61.9201 251.063 84.95 239.5C107.95 227.951 139.76 220.793 174.924 220.793C210.087 220.793 241.897 227.951 264.898 239.5C287.928 251.063 301.984 266.946 301.984 284.342Z" stroke="#C4C4C4"/>
<path d="M301.984 284.342C301.984 301.738 287.928 317.621 264.898 329.185C241.897 340.734 210.087 347.891 174.924 347.891C139.76 347.891 107.95 340.734 84.95 329.185C61.9201 317.621 47.8643 301.738 47.8643 284.342C47.8643 266.946 61.9201 251.063 84.95 239.5C107.95 227.951 139.76 220.793 174.924 220.793C210.087 220.793 241.897 227.951 264.898 239.5C287.928 251.063 301.984 266.946 301.984 284.342Z" stroke="url(#paint8_linear_68_2937)"/>
<path d="M263.5 297.5C263.5 302.513 261.186 307.327 256.921 311.75C252.654 316.174 246.455 320.182 238.757 323.559C223.361 330.311 202.058 334.5 178.5 334.5C154.942 334.5 133.639 330.311 118.243 323.559C110.545 320.182 104.346 316.174 100.079 311.75C95.8141 307.327 93.5 302.513 93.5 297.5C93.5 292.487 95.8141 287.673 100.079 283.25C104.346 278.826 110.545 274.818 118.243 271.441C133.639 264.689 154.942 260.5 178.5 260.5C202.058 260.5 223.361 264.689 238.757 271.441C246.455 274.818 252.654 278.826 256.921 283.25C261.186 287.673 263.5 292.487 263.5 297.5Z" stroke="#C4C4C4"/>
<path d="M263.5 297.5C263.5 302.513 261.186 307.327 256.921 311.75C252.654 316.174 246.455 320.182 238.757 323.559C223.361 330.311 202.058 334.5 178.5 334.5C154.942 334.5 133.639 330.311 118.243 323.559C110.545 320.182 104.346 316.174 100.079 311.75C95.8141 307.327 93.5 302.513 93.5 297.5C93.5 292.487 95.8141 287.673 100.079 283.25C104.346 278.826 110.545 274.818 118.243 271.441C133.639 264.689 154.942 260.5 178.5 260.5C202.058 260.5 223.361 264.689 238.757 271.441C246.455 274.818 252.654 278.826 256.921 283.25C261.186 287.673 263.5 292.487 263.5 297.5Z" stroke="url(#paint9_linear_68_2937)"/>
<path d="M146.584 361.416C146.398 363.481 147.098 365.582 148.293 367.461C149.613 369.536 151.718 371.416 154.447 372.997C157.177 374.58 160.488 375.839 164.167 376.703C167.847 377.567 171.824 378.018 175.846 378.029C179.868 378.04 183.853 377.611 187.55 376.768C191.246 375.926 194.582 374.685 197.343 373.118C200.102 371.553 202.244 369.686 203.604 367.62C204.808 365.792 205.855 363.688 205.751 361.587L206.139 361.587C206.334 363.541 205.812 365.511 204.57 367.398C203.233 369.429 201.089 371.318 198.247 372.931C195.406 374.542 191.947 375.833 188.085 376.714C184.224 377.594 180.053 378.044 175.838 378.032C171.624 378.02 167.462 377.547 163.62 376.645C159.776 375.743 156.344 374.434 153.537 372.806C150.728 371.178 148.625 369.278 147.33 367.242C146.125 365.347 145.643 363.372 145.88 361.416H146.584Z" stroke="url(#paint10_linear_68_2937)"/>
<path d="M177.076 421.591V188.539" stroke="#C4C4C4"/>
<path d="M177.076 421.591V188.539" stroke="url(#paint11_linear_68_2937)"/>
<circle cx="87.1928" cy="200.918" r="5.38226" fill="url(#paint12_linear_68_2937)"/>
<circle cx="27.9877" cy="234.287" r="5.38226" fill="url(#paint13_linear_68_2937)"/>
<circle cx="5.38226" cy="279.499" r="5.38226" fill="url(#paint14_linear_68_2937)"/>
<circle cx="346.618" cy="277.346" r="5.38226" fill="url(#paint15_linear_68_2937)"/>
<circle cx="325.088" cy="233.211" r="5.38226" fill="url(#paint16_linear_68_2937)"/>
<circle cx="262.655" cy="199.84" r="5.38226" fill="url(#paint17_linear_68_2937)"/>
<g filter="url(#filter0_d_68_2937)">
<rect x="140.475" y="146.475" width="60" height="60" rx="30" fill="url(#paint18_linear_68_2937)" shape-rendering="crispEdges"/>
<path d="M179.808 177.806H171.808V185.806H169.142V177.806H161.142V175.139H169.142V167.139H171.808V175.139H179.808V177.806Z" fill="white"/>
</g>
<g filter="url(#filter1_d_68_2937)">
<rect x="203.357" y="19.5012" width="60" height="60" rx="30" transform="rotate(27.6625 203.357 19.5012)" fill="url(#paint19_linear_68_2937)" shape-rendering="crispEdges"/>
<g clip-path="url(#clip0_68_2937)">
<path d="M210.625 70.9419C216.668 73.9102 223.973 71.4177 226.942 65.3747C229.91 59.3318 227.417 52.0267 221.374 49.0584C215.331 46.0901 208.026 48.5826 205.058 54.6256C202.09 60.6685 204.582 67.9736 210.625 70.9419Z" stroke="white" stroke-linecap="round" stroke-linejoin="round"/>
<path d="M213.312 65.4711C216.334 66.9552 219.986 65.709 221.47 62.6875C222.954 59.666 221.708 56.0135 218.687 54.5293C215.665 53.0452 212.013 54.2914 210.529 57.3129C209.044 60.3344 210.291 63.9869 213.312 65.4711Z" stroke="white" stroke-linecap="round" stroke-linejoin="round"/>
<path d="M222.118 57.9125L227.217 56.1727M218.087 66.1188L219.827 71.2176M209.881 62.0879L204.782 63.8276M213.912 53.8816L212.172 48.7827" stroke="white" stroke-linecap="round" stroke-linejoin="round"/>
</g>
</g>
<g filter="url(#filter2_d_68_2937)">
<rect x="94" y="31.2825" width="60" height="60" rx="30" transform="rotate(-23.8728 94 31.2825)" fill="url(#paint20_linear_68_2937)" shape-rendering="crispEdges"/>
<g clip-path="url(#clip1_68_2937)">
<path d="M113.773 47.4912L118.108 51.9447L123.929 50.0757L122.208 44.7597L113.773 47.4912ZM128.28 39.5821L129.599 40.8526C129.018 41.6612 128.562 42.5522 128.244 43.4959C130.207 43.254 132.188 43.2221 134.131 43.4137C135.479 41.8443 137.639 41.2466 139.574 41.9636C139.89 42.0804 140.217 42.2387 140.511 42.4224L140.907 42.6694L140.9 42.6928C142.911 44.2323 143.435 47.1079 142.068 49.2995C140.616 51.6272 137.549 52.3374 135.226 50.8897C134.368 50.3548 133.761 49.579 133.375 48.7308C131.494 48.5742 129.692 48.6376 127.956 48.9174C127.961 48.9404 127.966 48.9635 127.971 48.9866C127.971 48.9872 127.973 48.9875 127.973 48.988L126.885 51.331L128.599 50.8501C129.044 51.8405 129.658 52.7753 130.441 53.6097L130.673 56.1721L131.914 54.907C132.842 55.5754 133.86 56.066 134.92 56.3799L136.356 58.4379L136.78 56.7448C137.918 56.8592 139.067 56.7799 140.179 56.5102L142.411 57.5431L141.952 55.8987C142.973 55.436 143.934 54.7939 144.786 53.9716L147.256 53.7425L146.013 52.5434C146.682 51.6004 147.173 50.5691 147.479 49.4941L149.533 48.0509L147.824 47.6246C147.923 46.5155 147.839 45.3976 147.574 44.316L148.652 41.9935L146.929 42.4771C146.482 41.5137 145.875 40.6061 145.105 39.7938L144.866 37.1538L143.574 38.4706C142.701 37.8568 141.734 37.3868 140.712 37.0784L139.182 34.888L138.73 36.6913C137.663 36.5923 136.587 36.6631 135.543 36.9011L133.127 35.7828L133.62 37.5491C132.66 37.9855 131.755 38.5805 130.943 39.3348L128.281 39.582L128.28 39.5821ZM123.728 45.66L124.025 46.5812C128.191 45.2977 131.755 45.1106 135.482 45.7564C135.509 45.6799 135.541 45.6047 135.576 45.5312C135.702 45.2684 135.874 45.0299 136.084 44.8268C136.113 44.7984 136.143 44.7716 136.173 44.7449C136.904 44.105 137.978 43.9218 138.902 44.3674C140.135 44.9617 140.656 46.4606 140.06 47.6938C139.465 48.9268 137.967 49.4516 136.734 48.8574C135.947 48.478 135.451 47.7298 135.35 46.9176C131.761 46.2843 128.42 46.4497 124.385 47.6936L124.649 48.5108C127.531 47.5987 130.578 47.2816 133.817 47.5943L134.183 47.6283L134.309 47.9712C134.595 48.7438 135.108 49.4392 135.844 49.8978C137.634 51.0131 139.957 50.4751 141.077 48.6798C142.198 46.8837 141.677 44.5257 139.893 43.4138C139.673 43.2769 139.4 43.1447 139.168 43.0588C137.615 42.4833 135.882 43.0052 134.852 44.3735L134.651 44.6403L134.322 44.6041C130.823 44.2143 127.165 44.5952 123.728 45.6601L123.728 45.66ZM136.899 45.6608C136.787 45.7705 136.695 45.8987 136.627 46.0399C136.305 46.7055 136.579 47.4868 137.243 47.8065C137.906 48.1261 138.688 47.8509 139.009 47.1852C139.331 46.5196 139.058 45.7397 138.395 45.4201C137.897 45.1803 137.333 45.2746 136.946 45.6174C136.93 45.6317 136.914 45.6458 136.899 45.6609L136.899 45.6608Z" fill="white"/>
</g>
</g>
<g filter="url(#filter3_d_68_2937)">
<rect x="189.166" y="108" width="24" height="24" rx="12" transform="rotate(27.7266 189.166 108)" fill="url(#paint21_linear_68_2937)" shape-rendering="crispEdges"/>
<g clip-path="url(#clip2_68_2937)">
<path d="M194.342 122.059L188.497 127.91C188.365 128.043 188.262 128.195 188.189 128.368C188.117 128.542 188.08 128.724 188.08 128.915C188.08 129.107 188.117 129.289 188.189 129.462C188.262 129.635 188.365 129.786 188.497 129.913C188.629 130.041 188.78 130.141 188.948 130.214C189.117 130.287 189.299 130.326 189.495 130.33C189.682 130.33 189.862 130.294 190.035 130.221C190.208 130.148 190.363 130.045 190.5 129.913L194.205 126.215L194.205 127.452L191.122 130.535C190.903 130.754 190.655 130.92 190.377 131.034C190.099 131.148 189.805 131.205 189.495 131.205C189.181 131.205 188.887 131.146 188.613 131.028C188.34 130.909 188.096 130.743 187.882 130.529C187.668 130.314 187.504 130.073 187.39 129.804C187.276 129.535 187.214 129.239 187.205 128.915C187.205 128.601 187.262 128.307 187.376 128.033C187.49 127.76 187.656 127.512 187.875 127.288L193.385 121.779C193.367 121.674 193.353 121.569 193.344 121.464C193.335 121.359 193.33 121.252 193.33 121.143C193.33 120.783 193.376 120.436 193.467 120.104C193.558 119.771 193.69 119.457 193.863 119.16C194.036 118.864 194.244 118.598 194.485 118.361C194.727 118.124 194.993 117.919 195.285 117.745C195.577 117.572 195.889 117.44 196.222 117.349C196.554 117.258 196.903 117.21 197.268 117.205C197.514 117.205 197.739 117.224 197.944 117.26C198.149 117.296 198.35 117.351 198.546 117.424C198.742 117.497 198.931 117.584 199.113 117.684C199.296 117.784 199.492 117.893 199.701 118.012L197.008 120.705L197.705 121.403L200.398 118.709C200.508 118.901 200.61 119.092 200.706 119.283C200.802 119.475 200.888 119.673 200.966 119.878C201.043 120.083 201.105 120.288 201.15 120.493C201.196 120.698 201.219 120.917 201.219 121.15C201.219 121.45 201.182 121.749 201.109 122.045C201.036 122.341 200.929 122.624 200.788 122.893C200.647 123.162 200.483 123.415 200.296 123.652C200.109 123.889 199.893 124.098 199.646 124.281C199.437 124.198 199.223 124.135 199.004 124.089C198.785 124.044 198.562 124.016 198.334 124.007C198.63 123.898 198.901 123.747 199.147 123.556C199.394 123.365 199.603 123.146 199.776 122.9C199.95 122.654 200.086 122.382 200.187 122.086C200.287 121.79 200.335 121.482 200.33 121.163C200.33 120.822 200.275 120.493 200.166 120.179L197.705 122.633L195.777 120.705L198.231 118.244C197.922 118.135 197.6 118.08 197.268 118.08C196.844 118.08 196.447 118.16 196.078 118.32C195.709 118.479 195.385 118.698 195.107 118.976C194.829 119.254 194.611 119.577 194.451 119.947C194.292 120.316 194.21 120.714 194.205 121.143C194.205 121.298 194.219 121.45 194.246 121.601C194.273 121.751 194.305 121.904 194.342 122.059ZM198.143 125.08C198.566 125.08 198.963 125.16 199.332 125.32C199.701 125.479 200.027 125.698 200.31 125.976C200.592 126.254 200.811 126.577 200.966 126.947C201.121 127.316 201.201 127.714 201.205 128.143C201.205 128.567 201.125 128.963 200.966 129.332C200.806 129.701 200.588 130.027 200.31 130.31C200.032 130.592 199.708 130.811 199.339 130.966C198.97 131.121 198.571 131.201 198.143 131.205C197.719 131.205 197.322 131.126 196.953 130.966C196.584 130.807 196.258 130.588 195.976 130.31C195.693 130.032 195.474 129.708 195.319 129.339C195.164 128.97 195.085 128.571 195.08 128.143C195.08 127.719 195.16 127.323 195.319 126.953C195.479 126.584 195.698 126.258 195.976 125.976C196.254 125.693 196.577 125.475 196.946 125.32C197.315 125.165 197.714 125.085 198.143 125.08ZM195.955 128.143C195.955 128.444 196.012 128.726 196.126 128.99C196.24 129.255 196.395 129.487 196.591 129.688C196.787 129.888 197.019 130.045 197.288 130.159C197.557 130.273 197.842 130.33 198.143 130.33C198.357 130.33 198.566 130.301 198.771 130.241C198.977 130.182 199.168 130.091 199.346 129.968L196.317 126.94C196.199 127.117 196.11 127.309 196.051 127.514C195.992 127.719 195.96 127.929 195.955 128.143ZM199.968 129.346C200.086 129.168 200.175 128.977 200.234 128.772C200.294 128.567 200.326 128.357 200.33 128.143C200.33 127.842 200.273 127.559 200.159 127.295C200.045 127.031 199.888 126.801 199.687 126.605C199.487 126.409 199.255 126.252 198.99 126.133C198.726 126.015 198.443 125.955 198.143 125.955C197.928 125.955 197.719 125.985 197.514 126.044C197.309 126.103 197.117 126.195 196.939 126.318L199.968 129.346Z" fill="white"/>
</g>
</g>
<g filter="url(#filter4_d_68_2937)">
<rect x="118.184" y="122.504" width="40" height="40" rx="20" transform="rotate(-62.0113 118.184 122.504)" fill="url(#paint22_linear_68_2937)" shape-rendering="crispEdges"/>
<g clip-path="url(#clip3_68_2937)">
<path d="M144.359 120.318L142.832 120.402C142.721 120.588 142.608 120.761 142.493 120.921C142.378 121.081 142.241 121.243 142.082 121.406L142.323 122.905L140.498 123.654L139.671 122.374C139.452 122.377 139.235 122.362 139.02 122.332C138.806 122.301 138.594 122.254 138.384 122.19L137.231 123.187L135.69 121.956L136.341 120.585C136.235 120.384 136.149 120.191 136.082 120.004C136.016 119.818 135.956 119.62 135.903 119.411L134.46 118.901L134.743 116.922L136.271 116.837C136.382 116.651 136.495 116.477 136.611 116.317C136.727 116.156 136.863 115.995 137.021 115.833L136.78 114.334L138.605 113.585L139.432 114.865C139.651 114.862 139.868 114.877 140.082 114.907C140.297 114.938 140.509 114.985 140.719 115.049L141.872 114.052L143.413 115.283L142.762 116.654C142.868 116.855 142.954 117.048 143.021 117.234C143.087 117.42 143.147 117.618 143.2 117.828L144.643 118.338L144.359 120.318ZM141.531 118.903C141.609 118.358 141.482 117.864 141.15 117.421C140.818 116.977 140.38 116.717 139.835 116.64C139.289 116.562 138.796 116.689 138.354 117.021C137.912 117.352 137.651 117.791 137.572 118.336C137.492 118.882 137.62 119.376 137.954 119.817C138.288 120.259 138.726 120.52 139.268 120.599C139.81 120.679 140.304 120.552 140.75 120.217C141.196 119.883 141.456 119.445 141.531 118.903ZM156.516 113.015L154.373 113.164C154.234 113.43 154.077 113.672 153.903 113.891C153.728 114.11 153.534 114.322 153.32 114.528L153.68 116.6L151.106 117.646L149.946 115.864C149.645 115.854 149.345 115.828 149.048 115.786C148.751 115.743 148.457 115.684 148.165 115.609L146.552 116.995L144.375 115.269L145.301 113.381C145.153 113.124 145.025 112.866 144.919 112.606C144.813 112.346 144.731 112.07 144.672 111.776L142.657 111.033L143.054 108.261L145.196 108.113C145.335 107.847 145.492 107.604 145.667 107.384C145.842 107.165 146.036 106.953 146.25 106.749L145.89 104.677L148.464 103.631L149.623 105.413C149.925 105.422 150.224 105.448 150.521 105.491C150.818 105.533 151.113 105.592 151.405 105.668L153.017 104.282L155.195 106.008L154.268 107.896C154.417 108.152 154.544 108.41 154.65 108.669C154.755 108.928 154.838 109.205 154.897 109.501L156.913 110.244L156.516 113.015ZM152.755 111.063C152.873 110.238 152.684 109.496 152.189 108.836C151.694 108.176 151.035 107.787 150.21 107.668C149.385 107.55 148.642 107.739 147.982 108.234C147.322 108.729 146.933 109.389 146.815 110.213C146.697 111.038 146.885 111.781 147.38 112.441C147.875 113.101 148.535 113.49 149.36 113.608C150.185 113.726 150.927 113.538 151.587 113.043C152.248 112.548 152.637 111.888 152.755 111.063Z" fill="white"/>
</g>
</g>
<circle cx="255.5" cy="105.5" r="1.5" fill="#F39200"/>
<circle cx="64.5" cy="24.5002" r="1.5" fill="#F39200"/>
<circle cx="84.5" cy="13.5002" r="1.5" fill="#F39200"/>
<circle cx="266.5" cy="78.5002" r="1.5" fill="#F39200"/>
<circle cx="259" cy="113" r="1" fill="#F39200" fill-opacity="0.5"/>
<circle cx="272" cy="103" r="1" fill="#F39200" fill-opacity="0.5"/>
<circle cx="63" cy="33.0002" r="1" fill="#F39200" fill-opacity="0.5"/>
<circle cx="76" cy="31.0002" r="1" fill="#F39200" fill-opacity="0.5"/>
<circle cx="79.5" cy="19.5002" r="0.5" fill="#F39200" fill-opacity="0.5"/>
<circle cx="69" cy="46.0002" r="1" fill="#F39200" fill-opacity="0.5"/>
<circle cx="58.5" cy="30.5002" r="0.5" fill="#F39200" fill-opacity="0.5"/>
<circle cx="277" cy="118" r="1" fill="#F39200" fill-opacity="0.5"/>
<circle cx="265" cy="137" r="1" fill="#F39200" fill-opacity="0.5"/>
<circle cx="274" cy="88.0002" r="1" fill="#F39200" fill-opacity="0.5"/>
<defs>
<filter id="filter0_d_68_2937" x="120.475" y="130.475" width="100" height="100" filterUnits="userSpaceOnUse" color-interpolation-filters="sRGB">
<feFlood flood-opacity="0" result="BackgroundImageFix"/>
<feColorMatrix in="SourceAlpha" type="matrix" values="0 0 0 0 0 0 0 0 0 0 0 0 0 0 0 0 0 0 127 0" result="hardAlpha"/>
<feOffset dy="4"/>
<feGaussianBlur stdDeviation="10"/>
<feComposite in2="hardAlpha" operator="out"/>
<feColorMatrix type="matrix" values="0 0 0 0 0.952941 0 0 0 0 0.572549 0 0 0 0 0 0 0 0 0.7 0"/>
<feBlend mode="normal" in2="BackgroundImageFix" result="effect1_dropShadow_68_2937"/>
<feBlend mode="normal" in="SourceGraphic" in2="effect1_dropShadow_68_2937" result="shape"/>
</filter>
<filter id="filter1_d_68_2937" x="155.502" y="3.50122" width="120.997" height="120.998" filterUnits="userSpaceOnUse" color-interpolation-filters="sRGB">
<feFlood flood-opacity="0" result="BackgroundImageFix"/>
<feColorMatrix in="SourceAlpha" type="matrix" values="0 0 0 0 0 0 0 0 0 0 0 0 0 0 0 0 0 0 127 0" result="hardAlpha"/>
<feOffset dy="4"/>
<feGaussianBlur stdDeviation="10"/>
<feComposite in2="hardAlpha" operator="out"/>
<feColorMatrix type="matrix" values="0 0 0 0 0.952941 0 0 0 0 0.572549 0 0 0 0 0 0 0 0 0.7 0"/>
<feBlend mode="normal" in2="BackgroundImageFix" result="effect1_dropShadow_68_2937"/>
<feBlend mode="normal" in="SourceGraphic" in2="effect1_dropShadow_68_2937" result="shape"/>
</filter>
<filter id="filter2_d_68_2937" x="74" y="-9" width="119.149" height="119.149" filterUnits="userSpaceOnUse" color-interpolation-filters="sRGB">
<feFlood flood-opacity="0" result="BackgroundImageFix"/>
<feColorMatrix in="SourceAlpha" type="matrix" values="0 0 0 0 0 0 0 0 0 0 0 0 0 0 0 0 0 0 127 0" result="hardAlpha"/>
<feOffset dy="4"/>
<feGaussianBlur stdDeviation="10"/>
<feComposite in2="hardAlpha" operator="out"/>
<feColorMatrix type="matrix" values="0 0 0 0 0.952941 0 0 0 0 0.572549 0 0 0 0 0 0 0 0 0.7 0"/>
<feBlend mode="normal" in2="BackgroundImageFix" result="effect1_dropShadow_68_2937"/>
<feBlend mode="normal" in="SourceGraphic" in2="effect1_dropShadow_68_2937" result="shape"/>
</filter>
<filter id="filter3_d_68_2937" x="158" y="92.0002" width="72.4102" height="72.4104" filterUnits="userSpaceOnUse" color-interpolation-filters="sRGB">
<feFlood flood-opacity="0" result="BackgroundImageFix"/>
<feColorMatrix in="SourceAlpha" type="matrix" values="0 0 0 0 0 0 0 0 0 0 0 0 0 0 0 0 0 0 127 0" result="hardAlpha"/>
<feOffset dy="4"/>
<feGaussianBlur stdDeviation="10"/>
<feComposite in2="hardAlpha" operator="out"/>
<feColorMatrix type="matrix" values="0 0 0 0 0.952941 0 0 0 0 0.572549 0 0 0 0 0 0 0 0 0.7 0"/>
<feBlend mode="normal" in2="BackgroundImageFix" result="effect1_dropShadow_68_2937"/>
<feBlend mode="normal" in="SourceGraphic" in2="effect1_dropShadow_68_2937" result="shape"/>
</filter>
<filter id="filter4_d_68_2937" x="98.1836" y="71.1826" width="94.0938" height="94.0935" filterUnits="userSpaceOnUse" color-interpolation-filters="sRGB">
<feFlood flood-opacity="0" result="BackgroundImageFix"/>
<feColorMatrix in="SourceAlpha" type="matrix" values="0 0 0 0 0 0 0 0 0 0 0 0 0 0 0 0 0 0 127 0" result="hardAlpha"/>
<feOffset dy="4"/>
<feGaussianBlur stdDeviation="10"/>
<feComposite in2="hardAlpha" operator="out"/>
<feColorMatrix type="matrix" values="0 0 0 0 0.952941 0 0 0 0 0.572549 0 0 0 0 0 0 0 0 0.7 0"/>
<feBlend mode="normal" in2="BackgroundImageFix" result="effect1_dropShadow_68_2937"/>
<feBlend mode="normal" in="SourceGraphic" in2="effect1_dropShadow_68_2937" result="shape"/>
</filter>
<linearGradient id="paint0_linear_68_2937" x1="175.462" y1="305.333" x2="176" y2="338.5" gradientUnits="userSpaceOnUse">
<stop stop-color="#DADADA"/>
<stop offset="1" stop-color="white"/>
</linearGradient>
<linearGradient id="paint1_linear_68_2937" x1="20.4527" y1="292.417" x2="177.615" y2="422.667" gradientUnits="userSpaceOnUse">
<stop stop-color="#C4C4C4"/>
<stop offset="1" stop-color="white"/>
</linearGradient>
<linearGradient id="paint2_linear_68_2937" x1="333.163" y1="290.263" x2="176" y2="420.514" gradientUnits="userSpaceOnUse">
<stop stop-color="#C4C4C4"/>
<stop offset="1" stop-color="white"/>
</linearGradient>
<linearGradient id="paint3_linear_68_2937" x1="97.1923" y1="224.722" x2="221.127" y2="258.961" gradientUnits="userSpaceOnUse">
<stop stop-color="#C4C4C4"/>
<stop offset="1" stop-color="white"/>
</linearGradient>
<linearGradient id="paint4_linear_68_2937" x1="255.346" y1="219.338" x2="131.411" y2="253.577" gradientUnits="userSpaceOnUse">
<stop stop-color="#C4C4C4"/>
<stop offset="1" stop-color="white"/>
</linearGradient>
<linearGradient id="paint5_linear_68_2937" x1="41.2272" y1="253.257" x2="217.075" y2="349.967" gradientUnits="userSpaceOnUse">
<stop stop-color="#C4C4C4"/>
<stop offset="1" stop-color="white"/>
</linearGradient>
<linearGradient id="paint6_linear_68_2937" x1="311.849" y1="251.104" x2="136.001" y2="347.814" gradientUnits="userSpaceOnUse">
<stop stop-color="#C4C4C4"/>
<stop offset="1" stop-color="white"/>
</linearGradient>
<linearGradient id="paint7_linear_68_2937" x1="176" y1="188" x2="176" y2="362.385" gradientUnits="userSpaceOnUse">
<stop stop-color="#DADADA"/>
<stop offset="1" stop-color="#F4F4F4"/>
</linearGradient>
<linearGradient id="paint8_linear_68_2937" x1="174.924" y1="220.293" x2="174.924" y2="348.391" gradientUnits="userSpaceOnUse">
<stop stop-color="#DADADA"/>
<stop offset="1" stop-color="#F4F4F4"/>
</linearGradient>
<linearGradient id="paint9_linear_68_2937" x1="178.5" y1="260" x2="178.5" y2="335" gradientUnits="userSpaceOnUse">
<stop stop-color="#DADADA"/>
<stop offset="1" stop-color="#F4F4F4"/>
</linearGradient>
<linearGradient id="paint10_linear_68_2937" x1="179" y1="360" x2="178.5" y2="378" gradientUnits="userSpaceOnUse">
<stop stop-color="white"/>
<stop offset="1" stop-color="#EBEBEB"/>
</linearGradient>
<linearGradient id="paint11_linear_68_2937" x1="177.576" y1="184.771" x2="61.3301" y2="299.443" gradientUnits="userSpaceOnUse">
<stop stop-color="#C4C4C4"/>
<stop offset="1" stop-color="white"/>
</linearGradient>
<linearGradient id="paint12_linear_68_2937" x1="92.5751" y1="200.918" x2="81.8105" y2="200.918" gradientUnits="userSpaceOnUse">
<stop stop-color="#F39200"/>
<stop offset="1" stop-color="#FFCF88"/>
</linearGradient>
<linearGradient id="paint13_linear_68_2937" x1="33.37" y1="234.287" x2="22.6055" y2="234.287" gradientUnits="userSpaceOnUse">
<stop stop-color="#F39200"/>
<stop offset="1" stop-color="#FFCF88"/>
</linearGradient>
<linearGradient id="paint14_linear_68_2937" x1="10.7645" y1="279.499" x2="0" y2="279.499" gradientUnits="userSpaceOnUse">
<stop stop-color="#F39200"/>
<stop offset="1" stop-color="#FFCF88"/>
</linearGradient>
<linearGradient id="paint15_linear_68_2937" x1="352" y1="277.346" x2="341.235" y2="277.346" gradientUnits="userSpaceOnUse">
<stop stop-color="#F39200"/>
<stop offset="1" stop-color="#FFCF88"/>
</linearGradient>
<linearGradient id="paint16_linear_68_2937" x1="330.471" y1="233.211" x2="319.706" y2="233.211" gradientUnits="userSpaceOnUse">
<stop stop-color="#F39200"/>
<stop offset="1" stop-color="#FFCF88"/>
</linearGradient>
<linearGradient id="paint17_linear_68_2937" x1="268.037" y1="199.84" x2="257.272" y2="199.84" gradientUnits="userSpaceOnUse">
<stop stop-color="#F39200"/>
<stop offset="1" stop-color="#FFCF88"/>
</linearGradient>
<linearGradient id="paint18_linear_68_2937" x1="152.662" y1="154.912" x2="191.1" y2="199.912" gradientUnits="userSpaceOnUse">
<stop stop-color="#F39200"/>
<stop offset="1" stop-color="#FFB648"/>
</linearGradient>
<linearGradient id="paint19_linear_68_2937" x1="215.545" y1="27.9387" x2="253.982" y2="72.9387" gradientUnits="userSpaceOnUse">
<stop stop-color="#F39200"/>
<stop offset="1" stop-color="#FFB648"/>
</linearGradient>
<linearGradient id="paint20_linear_68_2937" x1="106.187" y1="39.72" x2="144.625" y2="84.72" gradientUnits="userSpaceOnUse">
<stop stop-color="#F39200"/>
<stop offset="1" stop-color="#FFB648"/>
</linearGradient>
<linearGradient id="paint21_linear_68_2937" x1="194.041" y1="111.375" x2="209.416" y2="129.375" gradientUnits="userSpaceOnUse">
<stop stop-color="#F39200"/>
<stop offset="1" stop-color="#FFB648"/>
</linearGradient>
<linearGradient id="paint22_linear_68_2937" x1="126.309" y1="128.129" x2="151.934" y2="158.129" gradientUnits="userSpaceOnUse">
<stop stop-color="#F39200"/>
<stop offset="1" stop-color="#FFB648"/>
</linearGradient>
<clipPath id="clip0_68_2937">
<rect width="32" height="32" fill="white" transform="translate(208.693 38.585) rotate(26.1602)"/>
</clipPath>
<clipPath id="clip1_68_2937">
<rect width="32" height="32" fill="white" transform="translate(110.949 46.2695) rotate(-44.2273)"/>
</clipPath>
<clipPath id="clip2_68_2937">
<rect width="14" height="14" fill="white" transform="translate(187.205 117.205)"/>
</clipPath>
<clipPath id="clip3_68_2937">
<rect width="24" height="24" fill="white" transform="translate(131.652 124.409) rotate(-81.8591)"/>
</clipPath>
</defs>
</svg>
