<svg width="32" height="32" viewBox="0 0 32 32" fill="none" xmlns="http://www.w3.org/2000/svg">
<path d="M6.81811 6.91089H2.29736V8.14451H6.81811V6.91089Z" fill="#FFEBCE"/>
<path d="M3.66718 5.25391H0V9.80188H3.66718V5.25391Z" fill="#A3A3A3" fill-opacity="0.3"/>
<path d="M29.7018 6.91089H25.1797V8.14451H29.7018V6.91089Z" fill="#FFEBCE"/>
<path d="M32.0001 5.25391H28.3315V9.80188H32.0001V5.25391Z" fill="#A3A3A3" fill-opacity="0.3"/>
<path d="M25.6042 3.85522H6.46875V11.8476H25.6042V3.85522Z" fill="#A3A3A3" fill-opacity="0.3"/>
<path d="M30.973 28.6892H1.08887V31.0203H30.973V28.6892Z" fill="#FFEBCE"/>
<path d="M20.7845 16.5476H11.2905V22.9413H20.7845V16.5476Z" fill="#F39200"/>
<path d="M23.2287 16.5475H8.84546L8.00781 14.6682H24.0677L23.2287 16.5475Z" fill="#F39200"/>
<path d="M27.9797 13.7268C27.9797 14.3478 27.2246 14.855 26.3031 14.855H5.77089C4.84942 14.855 4.09424 14.3478 4.09424 13.7268V12.6932C4.09424 12.0726 4.84942 11.5645 5.77089 11.5645H26.3031C27.2246 11.5645 27.9797 12.0726 27.9797 12.6932V13.7268Z" fill="#F39200" fill-opacity="0.5"/>
<path d="M16.871 27.0603H15.204L13.5273 25.5796H18.5476L16.871 27.0603Z" fill="#FFEBCE"/>
<path d="M31.1933 0.000488281H0.880371V3.85519H31.1933V0.000488281Z" fill="#E1E1E1"/>
<path d="M19.1071 25.7627H12.9672L11.2905 22.9412H20.7852L19.1071 25.7627Z" fill="#F39200"/>
<path d="M16.721 28.6892H15.3423V31.0203H16.721V28.6892Z" fill="#F39200"/>
<path opacity="0.15" d="M28.3315 6.91077H25.6045V3.8547H31.1929V0H16.0371V27.0598H16.8706L18.3401 25.7624H19.1057L20.7837 22.9408V16.5475H23.2274L23.9826 14.8552H26.3022C27.2236 14.8552 27.9788 14.3479 27.9788 13.7269V12.6933C27.9788 12.0728 27.2236 11.5646 26.3022 11.5646H25.6038V8.14485H28.3308V9.8018H31.9994V5.25383H28.3315V6.91077Z" fill="#FFEBCE"/>
</svg>
