<svg width="32" height="32" viewBox="0 0 32 32" fill="none" xmlns="http://www.w3.org/2000/svg">
<path d="M30.7798 9.25659H27.6919V29.6444H30.7798V9.25659Z" fill="#F39200"/>
<path d="M27.6918 12.0486H11.231V18.9912H27.6918V12.0486Z" fill="#FFEBCE"/>
<path d="M27.6918 19.8232H11.231V26.7654H27.6918V19.8232Z" fill="#FFEBCE"/>
<path d="M31.9747 12.9714H30.7798V18.0694H31.9747V12.9714Z" fill="#E1E1E1"/>
<path d="M31.9747 20.7458H30.7798V25.8433H31.9747V20.7458Z" fill="#E1E1E1"/>
<path d="M28.0406 9.25659H10.9077V10.5H28.0406V9.25659Z" fill="#F39200"/>
<path d="M8.31739 10.5H6.82324V28.497H8.31739V10.5Z" fill="#E1E1E1"/>
<path d="M11.2569 9.25659H8.16895V29.6444H11.2569V9.25659Z" fill="#F39200"/>
<path d="M16.0628 7.49194H6.84863V9.25655H16.0628V7.49194Z" fill="#FFEBCE"/>
<path d="M31.9998 7.49194H22.7861V9.25655H31.9998V7.49194Z" fill="#FFEBCE"/>
<path d="M20.5698 1.54956H18.3784V9.22356H20.5698V1.54956Z" fill="#E1E1E1"/>
<path d="M21.9352 7.49194H17.0127V9.25655H21.9352V7.49194Z" fill="#FFEBCE"/>
<path d="M25.2179 2.63989H13.73V3.86288H25.2179V2.63989Z" fill="#FFEBCE"/>
<path d="M5.62869 0H4.68262V25.8433H5.62869V0Z" fill="#FFEBCE"/>
<path d="M6.82401 24.6714H4.68262V25.8434H6.82401V24.6714Z" fill="#E1E1E1"/>
<path d="M5.62774 0H0V2.63977H5.62774V0Z" fill="#F39200"/>
<path d="M12.3687 29.6443H7.05615V31.0203H12.3687V29.6443Z" fill="#F39200"/>
<path d="M31.8917 29.6443H26.5796V31.0203H31.8917V29.6443Z" fill="#F39200"/>
<path d="M27.6918 12.7949H11.231V15.0134H27.6918V12.7949Z" fill="#F39200" fill-opacity="0.5"/>
<path d="M27.6918 17.2126H11.231V18.3219H27.6918V17.2126Z" fill="#FFEBCE"/>
<path d="M27.6918 20.5693H11.231V22.7878H27.6918V20.5693Z" fill="#F39200" fill-opacity="0.5"/>
<path d="M27.6918 24.9871H11.231V26.0958H27.6918V24.9871Z" fill="#FFEBCE"/>
<path d="M7.27186 7.49194H6.84863V9.25655H7.27186V7.49194Z" fill="#FFEBCE"/>
<path d="M8.24887 7.49194H7.8252V9.25655H8.24887V7.49194Z" fill="#FFEBCE"/>
<path d="M9.22548 7.49194H8.80225V9.25655H9.22548V7.49194Z" fill="#FFEBCE"/>
<path d="M10.202 7.49194H9.77881V9.25655H10.202V7.49194Z" fill="#FFEBCE"/>
<path d="M11.1786 7.49194H10.7554V9.25655H11.1786V7.49194Z" fill="#FFEBCE"/>
<path d="M12.1552 7.49194H11.7319V9.25655H12.1552V7.49194Z" fill="#FFEBCE"/>
<path d="M13.1322 7.49194H12.709V9.25655H13.1322V7.49194Z" fill="#FFEBCE"/>
<path d="M14.1088 7.49194H13.6855V9.25655H14.1088V7.49194Z" fill="#FFEBCE"/>
<path d="M15.0853 7.49194H14.6621V9.25655H15.0853V7.49194Z" fill="#FFEBCE"/>
<path d="M16.0624 7.49194H15.6392V9.25655H16.0624V7.49194Z" fill="#FFEBCE"/>
<path d="M23.2094 7.49194H22.7861V9.25655H23.2094V7.49194Z" fill="#FFEBCE"/>
<path d="M24.1854 7.49194H23.7622V9.25655H24.1854V7.49194Z" fill="#FFEBCE"/>
<path d="M25.1629 7.49194H24.7393V9.25655H25.1629V7.49194Z" fill="#FFEBCE"/>
<path d="M26.1391 7.49194H25.7163V9.25655H26.1391V7.49194Z" fill="#FFEBCE"/>
<path d="M27.1161 7.49194H26.6929V9.25655H27.1161V7.49194Z" fill="#FFEBCE"/>
<path d="M28.0927 7.49194H27.6694V9.25655H28.0927V7.49194Z" fill="#FFEBCE"/>
<path d="M29.0692 7.49194H28.646V9.25655H29.0692V7.49194Z" fill="#FFEBCE"/>
<path d="M30.0463 7.49194H29.623V9.25655H30.0463V7.49194Z" fill="#FFEBCE"/>
<path d="M31.0233 7.49194H30.6001V9.25655H31.0233V7.49194Z" fill="#FFEBCE"/>
<path d="M32.0004 7.49194H31.5771V9.25655H32.0004V7.49194Z" fill="#FFEBCE"/>
</svg>
