<svg width="1120" height="698" viewBox="0 0 1120 698" fill="none" xmlns="http://www.w3.org/2000/svg">
<path d="M703.105 385.456L585.546 525.04C565.412 548.946 528.527 548.727 508.679 524.584L393.958 385.04C379.778 367.791 378.753 343.231 391.448 324.861L506.199 158.808C525.941 130.24 568.077 130.001 588.142 158.343L705.671 324.357C718.822 342.933 717.767 368.047 703.105 385.456Z" fill="url(#paint0_linear_224_3724)"/>
<path d="M703.105 385.456L585.546 525.04C565.412 548.946 528.527 548.727 508.679 524.584L393.958 385.04C379.778 367.791 378.753 343.231 391.448 324.861L506.199 158.808C525.941 130.24 568.077 130.001 588.142 158.343L705.671 324.357C718.822 342.933 717.767 368.047 703.105 385.456Z" fill="url(#paint1_linear_224_3724)"/>
<path d="M590.986 400.021L573.084 415.134C557.626 428.185 534.858 427.639 520.042 413.863L422.475 323.138C406.62 308.395 405.373 283.713 419.661 267.447L441.745 242.305C457.393 224.49 485.016 224.122 501.134 241.512L594.519 342.265C610.031 359.001 608.422 385.301 590.986 400.021Z" fill="url(#paint2_linear_224_3724)"/>
<path d="M722.017 274.428L581.717 410.376C562.157 429.328 531.027 429.141 511.698 409.953L374.784 274.044C356.273 255.669 354.997 226.152 371.852 206.247L508.801 44.5196C528.617 21.1188 564.634 20.9039 584.727 44.0665L724.992 205.756C742.387 225.807 741.081 255.956 722.017 274.428Z" fill="url(#paint3_linear_224_3724)"/>
<path d="M624.557 152.396L471.327 297.84C450.142 317.948 450.631 351.858 472.387 371.347L496 392.5L511.859 408.673C531.049 428.243 562.418 428.715 582.189 409.731L722.827 274.691C741.991 256.29 743.417 226.115 726.075 205.988L682.398 155.297C667.484 137.989 641.128 136.667 624.557 152.396Z" fill="url(#paint4_linear_224_3724)"/>
<circle cx="378" cy="96" r="4" fill="#F39200"/>
<circle cx="807" cy="186" r="4" fill="#F39200"/>
<circle cx="361" cy="120" r="3" fill="#F39200" fill-opacity="0.6"/>
<circle cx="790" cy="210" r="3" fill="#F39200" fill-opacity="0.6"/>
<circle cx="816.5" cy="220.5" r="1.5" fill="#F39200" fill-opacity="0.4"/>
<circle cx="797.5" cy="236.5" r="1.5" fill="#F39200" fill-opacity="0.4"/>
<circle cx="839.5" cy="253.5" r="1.5" fill="#F39200" fill-opacity="0.3"/>
<circle cx="396" cy="125" r="2" fill="#F39200" fill-opacity="0.3"/>
<circle cx="364" cy="153" r="2" fill="#F39200" fill-opacity="0.3"/>
<defs>
<linearGradient id="paint0_linear_224_3724" x1="398.5" y1="352.5" x2="713" y2="357.5" gradientUnits="userSpaceOnUse">
<stop stop-color="#8D5500"/>
<stop offset="1" stop-color="#F39200"/>
</linearGradient>
<linearGradient id="paint1_linear_224_3724" x1="467.5" y1="466" x2="680.5" y2="441" gradientUnits="userSpaceOnUse">
<stop stop-color="white"/>
<stop offset="1" stop-color="#F39200"/>
</linearGradient>
<linearGradient id="paint2_linear_224_3724" x1="456.962" y1="376.933" x2="541.976" y2="299.835" gradientUnits="userSpaceOnUse">
<stop stop-color="white"/>
<stop offset="1" stop-color="#ED8E00"/>
</linearGradient>
<linearGradient id="paint3_linear_224_3724" x1="549" y1="0" x2="549" y2="444.5" gradientUnits="userSpaceOnUse">
<stop stop-color="white"/>
<stop offset="1" stop-color="#F39200" stop-opacity="0.5"/>
</linearGradient>
<linearGradient id="paint4_linear_224_3724" x1="599.5" y1="242.38" x2="660.773" y2="340.012" gradientUnits="userSpaceOnUse">
<stop stop-color="#FFB23E"/>
<stop offset="1" stop-color="white" stop-opacity="0.3"/>
</linearGradient>
</defs>
</svg>
