<svg width="32" height="32" viewBox="0 0 32 32" fill="none" xmlns="http://www.w3.org/2000/svg">
<path d="M8.5623 0.00337791L2.4375 6.12817L15.4997 19.1903L21.6244 13.0655L8.5623 0.00337791Z" fill="#F39200"/>
<path opacity="0.15" d="M8.56412 -0.000158112L5.27148 3.29248L18.3336 16.3546L21.6263 13.062L8.56412 -0.000158112Z" fill="#CBCBCB"/>
<path d="M31.9996 18.2953C31.9996 24.3067 27.1264 29.1803 21.1155 29.1803C15.1037 29.1803 10.231 24.3067 10.231 18.2953C10.231 12.2844 15.1037 7.41162 21.1155 7.41162C27.1269 7.41162 31.9996 12.2844 31.9996 18.2953Z" fill="#E1E1E1"/>
<path d="M21.116 28.7208C15.3678 28.7208 10.6914 24.044 10.6914 18.2953C10.6914 12.5475 15.3678 7.87109 21.116 7.87109C26.8643 7.87109 31.5407 12.5475 31.5407 18.2953C31.5407 24.044 26.8643 28.7208 21.116 28.7208Z" fill="#E1E1E1"/>
<path d="M21.1159 24.9264C17.4598 24.9264 14.4858 21.9519 14.4858 18.2959C14.4858 14.6403 17.4594 11.6663 21.1159 11.6663C24.7715 11.6663 27.746 14.6403 27.746 18.2959C27.746 21.9519 24.7715 24.9264 21.1159 24.9264Z" fill="#CBCBCB"/>
<path d="M21.1155 24.0036C17.9683 24.0036 15.4082 21.4431 15.4082 18.2959C15.4082 15.1487 17.9688 12.5886 21.1155 12.5886C24.2626 12.5886 26.8232 15.1487 26.8232 18.2959C26.8232 21.4431 24.2626 24.0036 21.1155 24.0036ZM21.1155 13.9679C18.7294 13.9679 16.7879 15.9094 16.7879 18.2955C16.7879 20.682 18.7294 22.6239 21.1155 22.6239C23.502 22.6239 25.4439 20.682 25.4439 18.2955C25.4435 15.9094 23.502 13.9679 21.1155 13.9679Z" fill="#E1E1E1"/>
<path d="M21.1162 21.1785C19.5266 21.1785 18.2334 19.8849 18.2334 18.2953C18.2334 16.7061 19.5266 15.4133 21.1162 15.4133C22.7058 15.4133 23.9985 16.7065 23.9985 18.2953C23.9985 19.8853 22.7054 21.1785 21.1162 21.1785ZM21.1162 15.8732C19.7804 15.8732 18.6933 16.9599 18.6933 18.2953C18.6933 19.6311 19.7804 20.7186 21.1162 20.7186C22.452 20.7186 23.5386 19.6315 23.5386 18.2953C23.5386 16.9599 22.452 15.8732 21.1162 15.8732Z" fill="#E1E1E1"/>
<path d="M21.1157 27.8015C15.8747 27.8015 11.6113 23.5369 11.6113 18.2959C11.6113 13.0553 15.8751 8.7915 21.1157 8.7915C26.3567 8.7915 30.6205 13.0553 30.6205 18.2959C30.6205 23.5369 26.3563 27.8015 21.1157 27.8015ZM21.1157 9.25099C16.1285 9.25099 12.0712 13.3087 12.0712 18.2955C12.0712 23.2835 16.1285 27.3408 21.1157 27.3408C26.1034 27.3408 30.1606 23.2831 30.1606 18.2955C30.1606 13.3087 26.1029 9.25099 21.1157 9.25099Z" fill="#E1E1E1"/>
<path d="M21.116 26.6513C16.5089 26.6513 12.7607 22.9028 12.7607 18.2953C12.7607 13.6886 16.5089 9.94043 21.116 9.94043C25.7227 9.94043 29.4708 13.6886 29.4708 18.2953C29.4708 22.9028 25.7227 26.6513 21.116 26.6513ZM21.116 10.1706C16.6356 10.1706 12.9909 13.8152 12.9909 18.2953C12.9909 22.7757 16.6356 26.4212 21.116 26.4212C25.596 26.4212 29.2406 22.7761 29.2406 18.2953C29.2406 13.8152 25.596 10.1706 21.116 10.1706Z" fill="#E1E1E1"/>
<path opacity="0.2" d="M31.9998 18.2953C31.9998 12.2844 27.1267 7.41162 21.1157 7.41162V29.1803C27.1271 29.1803 31.9998 24.3071 31.9998 18.2953Z" fill="#E1E1E1"/>
<path d="M23.4156 31.0202H3.71631L4.63528 27.0339H22.4962L23.4156 31.0202Z" fill="#D7D7D7"/>
<path d="M8.92836 25.1162C8.90598 25.1162 8.88317 25.112 8.86037 25.1036L0.926601 22.0759C0.828622 22.0388 0.77921 21.9285 0.816796 21.8306C0.853961 21.7326 0.963343 21.684 1.06217 21.7207L8.99593 24.748C9.09391 24.7851 9.1429 24.8954 9.10574 24.9933C9.07702 25.0694 9.0048 25.1162 8.92836 25.1162Z" fill="#E1E1E1"/>
<path d="M11.4579 25.5765C11.4068 25.5765 11.3557 25.5558 11.3185 25.5153C8.27398 22.225 5.35319 16.7153 5.69189 11.8244C5.69907 11.7197 5.78565 11.6339 5.89461 11.6483C5.99935 11.6555 6.07832 11.7463 6.07072 11.851C5.74215 16.603 8.70517 22.1316 11.5972 25.2573C11.6686 25.3345 11.664 25.4545 11.5871 25.5259C11.5504 25.5596 11.5039 25.5765 11.4579 25.5765Z" fill="#E1E1E1"/>
<path d="M10.6914 26.1701C10.6876 26.1701 10.6843 26.1701 10.6805 26.1696L3.70536 25.7676C3.60062 25.7617 3.52038 25.6717 3.52672 25.567C3.53263 25.4618 3.62132 25.3795 3.72732 25.3884L10.7024 25.7904C10.8072 25.7963 10.8874 25.8863 10.8811 25.9914C10.8751 26.0924 10.7915 26.1701 10.6914 26.1701Z" fill="#E1E1E1"/>
<path d="M6.97354 22.9787C6.93299 22.9787 6.89203 22.9656 6.85782 22.939C6.62427 22.7587 1.12478 18.4991 0.026736 16.6494C-0.026899 16.559 0.00266263 16.4424 0.0930398 16.3888C0.183417 16.3352 0.299979 16.3647 0.353614 16.4551C1.41491 18.2428 7.03393 22.5944 7.09052 22.6383C7.17372 22.7025 7.18892 22.8221 7.12473 22.9048C7.08672 22.953 7.03055 22.9787 6.97354 22.9787Z" fill="#E1E1E1"/>
<path d="M6.51342 21.2196C6.45768 21.2196 6.40277 21.1951 6.36519 21.1482C2.89495 16.8316 2.43124 12.6329 2.70406 10.8325C2.71969 10.7286 2.81556 10.6568 2.92029 10.6729C3.02419 10.6885 3.09556 10.7857 3.07951 10.8891C2.81598 12.6283 3.27378 16.6961 6.66123 20.91C6.72712 20.9915 6.71403 21.111 6.63209 21.1769C6.59704 21.2056 6.55523 21.2196 6.51342 21.2196Z" fill="#E1E1E1"/>
</svg>
