<svg width="142" height="24" viewBox="0 0 142 24" fill="none" xmlns="http://www.w3.org/2000/svg">
<path d="M0 1.1853H16.5486V4.87144H10.0833V22.6585H6.42637V4.87144H0V1.1853Z" fill="black"/>
<path d="M30.226 19.7233H21.5372L20.172 22.6585H16.125L26.0717 1.1853L35.5406 22.6585H31.5229L30.226 19.7233ZM28.5877 16.0371L25.9742 10.0886L23.234 16.0371H28.5877Z" fill="black"/>
<path d="M36.1875 1.1853H39.8834V19.0016H49.7716V22.6585H36.1875V1.1853Z" fill="black"/>
<path d="M64.1986 19.7233H55.5098L54.1446 22.6585H50.0977L60.0444 1.1853L69.5133 22.6585H65.4956L64.1986 19.7233ZM62.5603 16.0371L59.9469 10.0886L57.2066 16.0371H62.5603Z" fill="black"/>
<path d="M73.8561 22.6585H70.1992V0.85376L83.4518 14.1063V1.18532H87.1087V23.1461L73.8561 9.89358V22.6585Z" fill="black"/>
<path d="M97.2596 11.5319L105.412 22.6585H100.878L95.0362 14.6914L88.9609 23.1461V1.1853H92.6178V11.6879L100.195 1.1853H104.7L97.2596 11.5319Z" fill="#F39200"/>
<path d="M106.225 1.1853H119.809V4.87144H109.921V10.0593H117.361V13.7455H109.921V19.0016H119.809V22.6585H106.225V1.1853Z" fill="#F39200"/>
<path d="M124.73 1.1853L131.127 11.5904L137.593 1.1853H142L132.961 15.4813V22.6585H129.304V15.4813L120.361 1.1853H124.73Z" fill="#F39200"/>
</svg>
