<svg width="142" height="23" viewBox="0 0 142 23" fill="none" xmlns="http://www.w3.org/2000/svg">
<path d="M0 0.331421H16.5486V4.01756H10.0833V21.8047H6.42637V4.01756H0V0.331421Z" fill="white"/>
<path d="M30.226 18.8694H21.5372L20.172 21.8047H16.125L26.0717 0.331421L35.5406 21.8047H31.5229L30.226 18.8694ZM28.5877 15.1833L25.9742 9.23472L23.234 15.1833H28.5877Z" fill="white"/>
<path d="M36.1875 0.331421H39.8834V18.1478H49.7716V21.8047H36.1875V0.331421Z" fill="white"/>
<path d="M64.1986 18.8694H55.5098L54.1446 21.8047H50.0977L60.0444 0.331421L69.5133 21.8047H65.4956L64.1986 18.8694ZM62.5603 15.1833L59.9469 9.23472L57.2066 15.1833H62.5603Z" fill="white"/>
<path d="M73.8561 21.8048H70.1992V0L83.4518 13.2526V0.331558H87.1087V22.2924L73.8561 9.03982V21.8048Z" fill="white"/>
<path d="M97.2596 10.678L105.412 21.8047H100.878L95.0362 13.8375L88.9609 22.2922V0.331421H92.6178V10.834L100.195 0.331421H104.7L97.2596 10.678Z" fill="#F39200"/>
<path d="M106.225 0.331421H119.809V4.01756H109.921V9.20546H117.361V12.8916H109.921V18.1478H119.809V21.8047H106.225V0.331421Z" fill="#F39200"/>
<path d="M124.73 0.331421L131.127 10.7365L137.593 0.331421H142L132.961 14.6274V21.8047H129.304V14.6274L120.361 0.331421H124.73Z" fill="#F39200"/>
</svg>
