<svg width="343" height="330" viewBox="0 0 343 330" fill="none" xmlns="http://www.w3.org/2000/svg">
<path d="M70.9993 200.5L166.5 71.0003" stroke="url(#paint0_linear_1012_12052)"/>
<path d="M243.5 197.5L162.999 70.4998" stroke="url(#paint1_linear_1012_12052)"/>
<path d="M164 48L164 245" stroke="url(#paint2_linear_1012_12052)"/>
<g filter="url(#filter0_d_1012_12052)">
<rect x="138" y="23" width="60" height="60" rx="30" fill="white" shape-rendering="crispEdges"/>
<path d="M165.821 52.9844H171.24V54.1911H169.122V60.0167H167.925V54.1911H165.821V52.9844Z" fill="black"/>
<path d="M177.986 56.6287L175.58 59.9852L173.154 56.6166V60.0167H171.957V52.8755L175.58 57.9224L179.183 52.8755V60.0167H177.986V56.6287Z" fill="#F39200"/>
<path d="M185.334 57.9976C185.334 58.2896 185.262 58.5671 185.121 58.8295C184.971 59.1004 184.76 59.3361 184.49 59.5356C184.248 59.7146 183.973 59.85 183.667 59.9419C183.353 60.0417 183.029 60.0918 182.695 60.0918C182.36 60.0918 182.039 60.0417 181.733 59.9419C181.418 59.85 181.14 59.7146 180.898 59.5356C180.556 59.286 180.321 58.9867 180.192 58.6385L181.261 58.0291C181.269 58.1355 181.305 58.2358 181.37 58.3289C181.433 58.4208 181.514 58.4994 181.614 58.5635C181.757 58.6639 181.925 58.7418 182.117 58.7981C182.302 58.8549 182.495 58.8827 182.695 58.8827C182.893 58.8827 183.089 58.8549 183.283 58.7981C183.468 58.7418 183.632 58.6639 183.774 58.5635C184.009 58.3785 184.127 58.1899 184.127 57.9976C184.127 57.8688 184.08 57.7437 183.986 57.6228C183.895 57.5019 183.77 57.3991 183.614 57.3132C183.464 57.228 183.129 57.153 182.608 57.0883C182.024 57.0243 181.562 56.9094 181.22 56.7449C180.877 56.589 180.598 56.3502 180.386 56.0291C180.171 55.7087 180.064 55.3635 180.064 54.9941C180.064 54.7009 180.139 54.4186 180.289 54.1477C180.432 53.8853 180.635 53.6538 180.898 53.4537C181.14 53.2765 181.418 53.1381 181.733 53.0377C182.039 52.9446 182.36 52.8975 182.695 52.8975C183.029 52.8975 183.353 52.9446 183.667 53.0377C183.973 53.1381 184.248 53.2765 184.49 53.4537C184.824 53.6955 185.063 53.999 185.205 54.3629L184.127 54.982C184.118 54.8049 184.033 54.6447 183.87 54.5008C183.699 54.3654 183.503 54.2626 183.283 54.1912C183.076 54.135 182.88 54.1066 182.695 54.1066C182.495 54.1066 182.302 54.135 182.117 54.1912C181.925 54.2481 181.757 54.3261 181.614 54.4258C181.378 54.6048 181.261 54.7946 181.261 54.9941C181.261 55.1295 181.315 55.2613 181.423 55.3883C181.523 55.5237 181.658 55.6271 181.829 55.6978C182.006 55.777 182.323 55.8447 182.78 55.901C183.413 55.9802 183.883 56.0981 184.19 56.254C184.546 56.4541 184.828 56.7075 185.036 57.0134C185.234 57.3199 185.334 57.6482 185.334 57.9976Z" fill="#F39200"/>
<g filter="url(#filter1_d_1012_12052)">
<mask id="mask0_1012_12052" style="mask-type:luminance" maskUnits="userSpaceOnUse" x="150" y="37" width="31" height="32">
<path d="M150.667 37H180.975V69H150.667V37Z" fill="white"/>
</mask>
<g mask="url(#mask0_1012_12052)">
<mask id="mask1_1012_12052" style="mask-type:luminance" maskUnits="userSpaceOnUse" x="146" y="32" width="36" height="40">
<path d="M156.283 32.7236L181.853 40.6473L172.358 71.2867L146.788 63.3631L156.283 32.7236Z" fill="white"/>
</mask>
<g mask="url(#mask1_1012_12052)">
<mask id="mask2_1012_12052" style="mask-type:luminance" maskUnits="userSpaceOnUse" x="146" y="32" width="36" height="40">
<path d="M156.282 32.7236L181.852 40.6473L172.358 71.2867L146.787 63.3631L156.282 32.7236Z" fill="white"/>
</mask>
<g mask="url(#mask2_1012_12052)">
<path d="M150.767 53.0373C150.753 51.6761 150.913 50.2939 151.263 48.9201L154.181 48.9603C154.182 48.9555 154.183 48.9507 154.184 48.9465C154.451 48.0877 154.797 47.2758 155.211 46.5156L153.289 44.2248C154.024 43.0697 154.895 42.027 155.875 41.1136L158.311 42.7272C159.062 42.0962 159.878 41.5493 160.745 41.0992L160.368 38.1514C161.576 37.6184 162.852 37.232 164.166 37.0078L165.17 39.2885C166.384 38.9177 167.652 38.7007 168.942 38.6466L169.709 37.0367C170.348 37.152 170.988 37.3077 171.624 37.5048C172.26 37.7019 172.875 37.9357 173.468 38.2013L173.325 39.1076C173.568 39.1701 173.811 39.238 174.054 39.3131C176.798 40.1635 179.127 41.723 180.901 43.7272C179.419 42.3984 177.635 41.3594 175.609 40.732C168.093 38.4026 160.111 42.6076 157.781 50.1244C155.452 57.6406 159.657 65.6226 167.174 67.9519C169.199 68.5793 171.259 68.7314 173.233 68.473C170.635 69.1226 167.833 69.0919 165.089 68.2416C163.602 67.7806 162.236 67.1106 161.014 66.2746L159.986 67.4243C158.664 66.8017 157.458 66.0132 156.385 65.0931L157.449 62.848C156.975 62.2133 156.549 61.5451 156.18 60.8468L153.358 61.6262C152.588 60.4375 151.976 59.1496 151.541 57.7981L154.027 56.2482C153.827 55.4928 153.695 54.7169 153.632 53.9285L150.767 53.0373Z" fill="#F39200"/>
</g>
</g>
</g>
</g>
<g filter="url(#filter2_d_1012_12052)">
<mask id="mask3_1012_12052" style="mask-type:luminance" maskUnits="userSpaceOnUse" x="158" y="41" width="23" height="26">
<path d="M158.821 41.7695H180.206V66.3849H158.821V41.7695Z" fill="white"/>
</mask>
<g mask="url(#mask3_1012_12052)">
<mask id="mask4_1012_12052" style="mask-type:luminance" maskUnits="userSpaceOnUse" x="146" y="32" width="36" height="40">
<path d="M156.283 32.7236L181.853 40.6473L172.358 71.2867L146.788 63.3631L156.283 32.7236Z" fill="white"/>
</mask>
<g mask="url(#mask4_1012_12052)">
<mask id="mask5_1012_12052" style="mask-type:luminance" maskUnits="userSpaceOnUse" x="146" y="32" width="36" height="40">
<path d="M156.282 32.7236L181.852 40.6473L172.358 71.2867L146.787 63.3631L156.282 32.7236Z" fill="white"/>
</mask>
<g mask="url(#mask5_1012_12052)">
<path d="M174.018 65.9399C172.427 66.1479 170.767 66.0253 169.134 65.5199C163.076 63.6419 159.686 57.2086 161.564 51.1503C163.441 45.0914 169.875 41.7026 175.934 43.58C177.566 44.086 179.005 44.9231 180.199 45.9946C178.768 44.3786 176.892 43.122 174.679 42.4369C168.241 40.4417 161.404 44.0433 159.408 50.482C157.413 56.9207 161.015 63.7578 167.454 65.753C169.665 66.4387 171.924 66.4634 174.018 65.9399Z" fill="black"/>
</g>
</g>
</g>
</g>
</g>
<g filter="url(#filter3_d_1012_12052)">
<rect width="111" height="33" transform="translate(20 190)" fill="white"/>
<path d="M37.5753 205.129H36.0241C35.9645 204.798 35.8535 204.506 35.6911 204.254C35.5286 204.002 35.3298 203.789 35.0945 203.613C34.8591 203.437 34.5956 203.305 34.304 203.215C34.0156 203.126 33.709 203.081 33.3842 203.081C32.7976 203.081 32.2723 203.228 31.8082 203.523C31.3475 203.818 30.983 204.251 30.7145 204.821C30.4493 205.391 30.3168 206.087 30.3168 206.909C30.3168 207.738 30.4493 208.437 30.7145 209.007C30.983 209.577 31.3492 210.008 31.8132 210.3C32.2772 210.591 32.7992 210.737 33.3793 210.737C33.7008 210.737 34.0057 210.694 34.294 210.608C34.5857 210.518 34.8492 210.388 35.0845 210.215C35.3198 210.043 35.5187 209.832 35.6811 209.584C35.8468 209.332 35.9612 209.044 36.0241 208.719L37.5753 208.724C37.4924 209.224 37.3317 209.685 37.093 210.106C36.8577 210.523 36.5545 210.885 36.1832 211.19C35.8153 211.491 35.3944 211.725 34.9205 211.891C34.4465 212.056 33.9295 212.139 33.3693 212.139C32.4877 212.139 31.7022 211.93 31.0128 211.513C30.3234 211.092 29.7798 210.49 29.3821 209.708C28.9877 208.926 28.7905 207.993 28.7905 206.909C28.7905 205.822 28.9893 204.889 29.3871 204.11C29.7848 203.328 30.3284 202.728 31.0178 202.31C31.7071 201.889 32.491 201.679 33.3693 201.679C33.9096 201.679 34.4134 201.757 34.8807 201.913C35.3513 202.065 35.7739 202.29 36.1484 202.589C36.523 202.884 36.8329 203.245 37.0781 203.673C37.3234 204.097 37.4891 204.582 37.5753 205.129ZM42.5108 212.154C41.7949 212.154 41.1702 211.99 40.6365 211.662C40.1029 211.334 39.6886 210.875 39.3936 210.285C39.0987 209.695 38.9512 209.005 38.9512 208.217C38.9512 207.424 39.0987 206.732 39.3936 206.138C39.6886 205.545 40.1029 205.085 40.6365 204.756C41.1702 204.428 41.7949 204.264 42.5108 204.264C43.2267 204.264 43.8515 204.428 44.3851 204.756C44.9187 205.085 45.333 205.545 45.628 206.138C45.923 206.732 46.0705 207.424 46.0705 208.217C46.0705 209.005 45.923 209.695 45.628 210.285C45.333 210.875 44.9187 211.334 44.3851 211.662C43.8515 211.99 43.2267 212.154 42.5108 212.154ZM42.5158 210.906C42.9798 210.906 43.3643 210.784 43.6692 210.538C43.9741 210.293 44.1995 209.967 44.3453 209.559C44.4945 209.151 44.5691 208.702 44.5691 208.212C44.5691 207.724 44.4945 207.277 44.3453 206.869C44.1995 206.458 43.9741 206.129 43.6692 205.88C43.3643 205.631 42.9798 205.507 42.5158 205.507C42.0485 205.507 41.6607 205.631 41.3525 205.88C41.0475 206.129 40.8205 206.458 40.6713 206.869C40.5255 207.277 40.4526 207.724 40.4526 208.212C40.4526 208.702 40.5255 209.151 40.6713 209.559C40.8205 209.967 41.0475 210.293 41.3525 210.538C41.6607 210.784 42.0485 210.906 42.5158 210.906ZM53.4521 206.228L52.1048 206.467C52.0484 206.294 51.9589 206.13 51.8363 205.974C51.717 205.819 51.5546 205.691 51.3491 205.592C51.1436 205.492 50.8867 205.442 50.5785 205.442C50.1576 205.442 49.8062 205.537 49.5245 205.726C49.2428 205.911 49.1019 206.152 49.1019 206.447C49.1019 206.702 49.1964 206.907 49.3853 207.063C49.5742 207.219 49.8791 207.347 50.3001 207.446L51.5131 207.724C52.2158 207.887 52.7395 208.137 53.0842 208.475C53.4289 208.813 53.6012 209.252 53.6012 209.793C53.6012 210.25 53.4686 210.658 53.2035 211.016C52.9416 211.37 52.5754 211.649 52.1048 211.851C51.6374 212.053 51.0955 212.154 50.479 212.154C49.6239 212.154 48.9263 211.972 48.386 211.607C47.8458 211.239 47.5143 210.717 47.3917 210.041L48.8285 209.822C48.918 210.197 49.1019 210.48 49.3803 210.673C49.6587 210.862 50.0217 210.956 50.4691 210.956C50.9563 210.956 51.3458 210.855 51.6374 210.653C51.9291 210.447 52.0749 210.197 52.0749 209.902C52.0749 209.663 51.9854 209.463 51.8065 209.3C51.6308 209.138 51.3607 209.015 50.9961 208.933L49.7035 208.649C48.9909 208.487 48.4639 208.228 48.1225 207.874C47.7844 207.519 47.6154 207.07 47.6154 206.526C47.6154 206.076 47.7414 205.681 47.9933 205.343C48.2451 205.005 48.5932 204.741 49.0373 204.553C49.4814 204.36 49.9902 204.264 50.5636 204.264C51.3888 204.264 52.0385 204.443 52.5124 204.801C52.9864 205.156 53.2996 205.631 53.4521 206.228ZM58.8002 204.364V205.557H54.6291V204.364H58.8002ZM55.7477 202.534H57.2342V209.758C57.2342 210.046 57.2773 210.263 57.3635 210.409C57.4496 210.552 57.5607 210.649 57.6966 210.702C57.8358 210.752 57.9866 210.777 58.149 210.777C58.2683 210.777 58.3727 210.769 58.4622 210.752C58.5517 210.736 58.6213 210.722 58.671 210.712L58.9395 211.94C58.8533 211.973 58.7306 212.007 58.5716 212.04C58.4125 212.076 58.2136 212.096 57.975 212.099C57.5839 212.106 57.2193 212.036 56.8812 211.891C56.5431 211.745 56.2697 211.519 56.0609 211.214C55.8521 210.91 55.7477 210.527 55.7477 210.066V202.534ZM64.269 212V201.818H70.6525V203.141H65.8052V206.243H70.3194V207.56H65.8052V210.678H70.7122V212H64.269ZM76.2195 204.364V205.557H71.9041V204.364H76.2195ZM73.0874 212V203.479C73.0874 203.001 73.1918 202.605 73.4006 202.29C73.6094 201.972 73.8861 201.735 74.2308 201.58C74.5755 201.42 74.95 201.341 75.3544 201.341C75.6527 201.341 75.9079 201.366 76.12 201.415C76.3321 201.462 76.4896 201.505 76.5923 201.545L76.2443 202.748C76.1747 202.728 76.0852 202.705 75.9759 202.678C75.8665 202.648 75.7339 202.634 75.5781 202.634C75.2169 202.634 74.9583 202.723 74.8026 202.902C74.6501 203.081 74.5739 203.339 74.5739 203.678V212H73.0874ZM81.3874 204.364V205.557H77.0721V204.364H81.3874ZM78.2553 212V203.479C78.2553 203.001 78.3597 202.605 78.5685 202.29C78.7773 201.972 79.0541 201.735 79.3988 201.58C79.7435 201.42 80.118 201.341 80.5224 201.341C80.8207 201.341 81.0759 201.366 81.288 201.415C81.5001 201.462 81.6576 201.505 81.7603 201.545L81.4123 202.748C81.3427 202.728 81.2532 202.705 81.1438 202.678C81.0344 202.648 80.9019 202.634 80.7461 202.634C80.3848 202.634 80.1263 202.723 79.9705 202.902C79.8181 203.081 79.7418 203.339 79.7418 203.678V212H78.2553ZM85.9116 212.154C85.1592 212.154 84.5112 211.993 83.9677 211.672C83.4274 211.347 83.0098 210.891 82.7148 210.305C82.4232 209.715 82.2773 209.024 82.2773 208.232C82.2773 207.449 82.4232 206.76 82.7148 206.163C83.0098 205.567 83.4208 205.101 83.9478 204.766C84.4781 204.432 85.0979 204.264 85.8072 204.264C86.238 204.264 86.6557 204.335 87.06 204.478C87.4644 204.621 87.8273 204.844 88.1488 205.149C88.4703 205.454 88.7238 205.85 88.9094 206.337C89.0951 206.821 89.1879 207.41 89.1879 208.102V208.629H83.1175V207.516H87.7312C87.7312 207.125 87.6516 206.778 87.4925 206.477C87.3335 206.172 87.1097 205.931 86.8214 205.756C86.5363 205.58 86.2016 205.492 85.8171 205.492C85.3995 205.492 85.0349 205.595 84.7234 205.8C84.4151 206.003 84.1765 206.268 84.0075 206.596C83.8417 206.921 83.7589 207.274 83.7589 207.655V208.525C83.7589 209.035 83.8484 209.469 84.0273 209.827C84.2096 210.185 84.4632 210.459 84.788 210.648C85.1128 210.833 85.4923 210.926 85.9265 210.926C86.2082 210.926 86.4651 210.886 86.6971 210.807C86.9291 210.724 87.1296 210.601 87.2987 210.439C87.4677 210.277 87.5969 210.076 87.6864 209.837L89.0934 210.091C88.9807 210.505 88.7785 210.868 88.4869 211.18C88.1985 211.488 87.8356 211.728 87.3981 211.901C86.9639 212.07 86.4684 212.154 85.9116 212.154ZM94.0538 212.154C93.3147 212.154 92.6783 211.987 92.1447 211.652C91.6144 211.314 91.2067 210.848 90.9217 210.255C90.6367 209.662 90.4941 208.982 90.4941 208.217C90.4941 207.441 90.64 206.757 90.9316 206.163C91.2233 205.567 91.6343 205.101 92.1646 204.766C92.6949 204.432 93.3197 204.264 94.0389 204.264C94.6189 204.264 95.1359 204.372 95.59 204.587C96.0441 204.799 96.4103 205.098 96.6887 205.482C96.9705 205.867 97.1378 206.316 97.1909 206.83H95.7441C95.6646 206.472 95.4823 206.163 95.1973 205.905C94.9155 205.646 94.5377 205.517 94.0637 205.517C93.6494 205.517 93.2865 205.626 92.975 205.845C92.6667 206.061 92.4264 206.369 92.2541 206.77C92.0817 207.168 91.9956 207.638 91.9956 208.182C91.9956 208.739 92.0801 209.219 92.2491 209.624C92.4181 210.028 92.6568 210.341 92.965 210.563C93.2766 210.785 93.6428 210.896 94.0637 210.896C94.3455 210.896 94.6007 210.845 94.8294 210.742C95.0614 210.636 95.2553 210.485 95.411 210.29C95.5701 210.094 95.6812 209.859 95.7441 209.584H97.1909C97.1378 210.078 96.9771 210.518 96.7086 210.906C96.4402 211.294 96.0806 211.599 95.6298 211.821C95.1824 212.043 94.657 212.154 94.0538 212.154ZM102.345 204.364V205.557H98.174V204.364H102.345ZM99.2926 202.534H100.779V209.758C100.779 210.046 100.822 210.263 100.908 210.409C100.995 210.552 101.106 210.649 101.241 210.702C101.381 210.752 101.531 210.777 101.694 210.777C101.813 210.777 101.918 210.769 102.007 210.752C102.097 210.736 102.166 210.722 102.216 210.712L102.484 211.94C102.398 211.973 102.276 212.007 102.116 212.04C101.957 212.076 101.759 212.096 101.52 212.099C101.129 212.106 100.764 212.036 100.426 211.891C100.088 211.745 99.8146 211.519 99.6058 211.214C99.397 210.91 99.2926 210.527 99.2926 210.066V202.534ZM103.99 212V204.364H105.476V212H103.99ZM104.74 203.185C104.482 203.185 104.26 203.099 104.074 202.927C103.892 202.751 103.801 202.542 103.801 202.3C103.801 202.055 103.892 201.846 104.074 201.674C104.26 201.498 104.482 201.411 104.74 201.411C104.999 201.411 105.219 201.498 105.401 201.674C105.587 201.846 105.68 202.055 105.68 202.3C105.68 202.542 105.587 202.751 105.401 202.927C105.219 203.099 104.999 203.185 104.74 203.185ZM114.009 204.364L111.239 212H109.648L106.874 204.364H108.47L110.404 210.24H110.484L112.413 204.364H114.009ZM118.437 212.154C117.685 212.154 117.037 211.993 116.493 211.672C115.953 211.347 115.535 210.891 115.24 210.305C114.949 209.715 114.803 209.024 114.803 208.232C114.803 207.449 114.949 206.76 115.24 206.163C115.535 205.567 115.946 205.101 116.473 204.766C117.003 204.432 117.623 204.264 118.333 204.264C118.763 204.264 119.181 204.335 119.585 204.478C119.99 204.621 120.353 204.844 120.674 205.149C120.996 205.454 121.249 205.85 121.435 206.337C121.62 206.821 121.713 207.41 121.713 208.102V208.629H115.643V207.516H120.257C120.257 207.125 120.177 206.778 120.018 206.477C119.859 206.172 119.635 205.931 119.347 205.756C119.062 205.58 118.727 205.492 118.343 205.492C117.925 205.492 117.56 205.595 117.249 205.8C116.941 206.003 116.702 206.268 116.533 206.596C116.367 206.921 116.284 207.274 116.284 207.655V208.525C116.284 209.035 116.374 209.469 116.553 209.827C116.735 210.185 116.989 210.459 117.313 210.648C117.638 210.833 118.018 210.926 118.452 210.926C118.734 210.926 118.99 210.886 119.222 210.807C119.454 210.724 119.655 210.601 119.824 210.439C119.993 210.277 120.122 210.076 120.212 209.837L121.619 210.091C121.506 210.505 121.304 210.868 121.012 211.18C120.724 211.488 120.361 211.728 119.923 211.901C119.489 212.07 118.994 212.154 118.437 212.154Z" fill="#101010"/>
</g>
<g filter="url(#filter4_d_1012_12052)">
<rect width="68" height="33" transform="translate(208 190)" fill="white"/>
<path d="M217.119 212V201.818H223.433V203.141H218.655V206.243H222.98V207.56H218.655V212H217.119ZM226.689 201.818V212H225.202V201.818H226.689ZM231.98 212.154C231.228 212.154 230.58 211.993 230.036 211.672C229.496 211.347 229.078 210.891 228.783 210.305C228.492 209.715 228.346 209.024 228.346 208.232C228.346 207.449 228.492 206.76 228.783 206.163C229.078 205.567 229.489 205.101 230.016 204.766C230.546 204.432 231.166 204.264 231.876 204.264C232.306 204.264 232.724 204.335 233.128 204.478C233.533 204.621 233.896 204.844 234.217 205.149C234.539 205.454 234.792 205.85 234.978 206.337C235.163 206.821 235.256 207.41 235.256 208.102V208.629H229.186V207.516H233.8C233.8 207.125 233.72 206.778 233.561 206.477C233.402 206.172 233.178 205.931 232.89 205.756C232.605 205.58 232.27 205.492 231.885 205.492C231.468 205.492 231.103 205.595 230.792 205.8C230.483 206.003 230.245 206.268 230.076 206.596C229.91 206.921 229.827 207.274 229.827 207.655V208.525C229.827 209.035 229.917 209.469 230.096 209.827C230.278 210.185 230.532 210.459 230.856 210.648C231.181 210.833 231.561 210.926 231.995 210.926C232.277 210.926 232.533 210.886 232.765 210.807C232.997 210.724 233.198 210.601 233.367 210.439C233.536 210.277 233.665 210.076 233.755 209.837L235.162 210.091C235.049 210.505 234.847 210.868 234.555 211.18C234.267 211.488 233.904 211.728 233.466 211.901C233.032 212.07 232.537 212.154 231.98 212.154ZM237.901 204.364L239.586 207.337L241.287 204.364H242.912L240.531 208.182L242.932 212H241.307L239.586 209.146L237.871 212H236.241L238.617 208.182L236.27 204.364H237.901ZM244.439 212V204.364H245.925V212H244.439ZM245.189 203.185C244.931 203.185 244.709 203.099 244.523 202.927C244.341 202.751 244.25 202.542 244.25 202.3C244.25 202.055 244.341 201.846 244.523 201.674C244.709 201.498 244.931 201.411 245.189 201.411C245.448 201.411 245.668 201.498 245.851 201.674C246.036 201.846 246.129 202.055 246.129 202.3C246.129 202.542 246.036 202.751 245.851 202.927C245.668 203.099 245.448 203.185 245.189 203.185ZM248.044 212V201.818H249.531V205.602H249.62C249.707 205.442 249.831 205.259 249.993 205.05C250.156 204.841 250.381 204.659 250.669 204.503C250.958 204.344 251.339 204.264 251.813 204.264C252.429 204.264 252.98 204.42 253.463 204.732C253.947 205.043 254.327 205.492 254.602 206.079C254.88 206.665 255.02 207.371 255.02 208.197C255.02 209.022 254.882 209.73 254.607 210.32C254.332 210.906 253.954 211.359 253.473 211.677C252.993 211.992 252.444 212.149 251.828 212.149C251.364 212.149 250.984 212.071 250.689 211.915C250.398 211.76 250.169 211.577 250.003 211.369C249.837 211.16 249.71 210.974 249.62 210.812H249.496V212H248.044ZM249.501 208.182C249.501 208.719 249.579 209.189 249.735 209.594C249.891 209.998 250.116 210.315 250.411 210.543C250.706 210.769 251.067 210.881 251.495 210.881C251.939 210.881 252.31 210.764 252.608 210.528C252.907 210.29 253.132 209.967 253.284 209.559C253.44 209.151 253.518 208.692 253.518 208.182C253.518 207.678 253.442 207.226 253.289 206.825C253.14 206.424 252.915 206.107 252.613 205.875C252.315 205.643 251.942 205.527 251.495 205.527C251.064 205.527 250.699 205.638 250.401 205.86C250.106 206.082 249.882 206.392 249.73 206.79C249.577 207.187 249.501 207.652 249.501 208.182ZM258.175 201.818V212H256.689V201.818H258.175ZM263.466 212.154C262.714 212.154 262.066 211.993 261.522 211.672C260.982 211.347 260.565 210.891 260.27 210.305C259.978 209.715 259.832 209.024 259.832 208.232C259.832 207.449 259.978 206.76 260.27 206.163C260.565 205.567 260.975 205.101 261.502 204.766C262.033 204.432 262.653 204.264 263.362 204.264C263.793 204.264 264.21 204.335 264.615 204.478C265.019 204.621 265.382 204.844 265.703 205.149C266.025 205.454 266.279 205.85 266.464 206.337C266.65 206.821 266.743 207.41 266.743 208.102V208.629H260.672V207.516H265.286C265.286 207.125 265.206 206.778 265.047 206.477C264.888 206.172 264.664 205.931 264.376 205.756C264.091 205.58 263.756 205.492 263.372 205.492C262.954 205.492 262.59 205.595 262.278 205.8C261.97 206.003 261.731 206.268 261.562 206.596C261.396 206.921 261.314 207.274 261.314 207.655V208.525C261.314 209.035 261.403 209.469 261.582 209.827C261.764 210.185 262.018 210.459 262.343 210.648C262.667 210.833 263.047 210.926 263.481 210.926C263.763 210.926 264.02 210.886 264.252 210.807C264.484 210.724 264.684 210.601 264.853 210.439C265.022 210.277 265.152 210.076 265.241 209.837L266.648 210.091C266.535 210.505 266.333 210.868 266.042 211.18C265.753 211.488 265.39 211.728 264.953 211.901C264.519 212.07 264.023 212.154 263.466 212.154Z" fill="#101010"/>
</g>
<g filter="url(#filter5_d_1012_12052)">
<rect width="126" height="33" transform="translate(105 237)" fill="white"/>
<path d="M114.119 259V248.818H120.433V250.141H115.655V253.243H119.98V254.56H115.655V259H114.119ZM124.397 259.169C123.913 259.169 123.476 259.08 123.085 258.901C122.694 258.718 122.384 258.455 122.155 258.11C121.93 257.765 121.817 257.343 121.817 256.842C121.817 256.411 121.9 256.057 122.066 255.778C122.231 255.5 122.455 255.28 122.737 255.117C123.019 254.955 123.333 254.832 123.681 254.749C124.029 254.666 124.384 254.603 124.745 254.56C125.203 254.507 125.574 254.464 125.859 254.431C126.144 254.395 126.351 254.337 126.48 254.257C126.61 254.178 126.674 254.048 126.674 253.869V253.835C126.674 253.4 126.552 253.064 126.306 252.825C126.065 252.587 125.703 252.467 125.223 252.467C124.722 252.467 124.328 252.578 124.039 252.8C123.754 253.019 123.557 253.263 123.448 253.531L122.051 253.213C122.217 252.749 122.458 252.375 122.777 252.089C123.098 251.801 123.468 251.592 123.885 251.463C124.303 251.33 124.742 251.264 125.203 251.264C125.508 251.264 125.831 251.301 126.172 251.374C126.517 251.443 126.838 251.572 127.137 251.761C127.438 251.95 127.685 252.22 127.877 252.572C128.07 252.92 128.166 253.372 128.166 253.929V259H126.714V257.956H126.654C126.558 258.148 126.414 258.337 126.222 258.523C126.03 258.708 125.783 258.862 125.481 258.985C125.18 259.108 124.818 259.169 124.397 259.169ZM124.721 257.976C125.132 257.976 125.483 257.895 125.775 257.732C126.069 257.57 126.293 257.358 126.446 257.096C126.601 256.831 126.679 256.547 126.679 256.246V255.261C126.626 255.314 126.524 255.364 126.371 255.411C126.222 255.454 126.051 255.492 125.859 255.525C125.667 255.555 125.48 255.583 125.297 255.609C125.115 255.633 124.962 255.652 124.84 255.669C124.551 255.705 124.288 255.767 124.049 255.853C123.814 255.939 123.625 256.063 123.483 256.226C123.343 256.385 123.274 256.597 123.274 256.862C123.274 257.23 123.41 257.509 123.681 257.697C123.953 257.883 124.3 257.976 124.721 257.976ZM135.868 253.228L134.521 253.467C134.464 253.294 134.375 253.13 134.252 252.974C134.133 252.819 133.971 252.691 133.765 252.592C133.56 252.492 133.303 252.442 132.994 252.442C132.574 252.442 132.222 252.537 131.941 252.726C131.659 252.911 131.518 253.152 131.518 253.447C131.518 253.702 131.612 253.907 131.801 254.063C131.99 254.219 132.295 254.347 132.716 254.446L133.929 254.724C134.632 254.887 135.155 255.137 135.5 255.475C135.845 255.813 136.017 256.252 136.017 256.793C136.017 257.25 135.885 257.658 135.619 258.016C135.358 258.37 134.991 258.649 134.521 258.851C134.053 259.053 133.512 259.154 132.895 259.154C132.04 259.154 131.342 258.972 130.802 258.607C130.262 258.239 129.93 257.717 129.808 257.041L131.244 256.822C131.334 257.197 131.518 257.48 131.796 257.673C132.075 257.862 132.438 257.956 132.885 257.956C133.372 257.956 133.762 257.855 134.053 257.653C134.345 257.447 134.491 257.197 134.491 256.902C134.491 256.663 134.401 256.463 134.222 256.3C134.047 256.138 133.777 256.015 133.412 255.933L132.119 255.649C131.407 255.487 130.88 255.228 130.539 254.874C130.2 254.519 130.031 254.07 130.031 253.526C130.031 253.076 130.157 252.681 130.409 252.343C130.661 252.005 131.009 251.741 131.453 251.553C131.897 251.36 132.406 251.264 132.98 251.264C133.805 251.264 134.454 251.443 134.928 251.801C135.402 252.156 135.716 252.631 135.868 253.228ZM141.216 251.364V252.557H137.045V251.364H141.216ZM138.164 249.534H139.65V256.758C139.65 257.046 139.693 257.263 139.779 257.409C139.866 257.552 139.977 257.649 140.113 257.702C140.252 257.752 140.403 257.777 140.565 257.777C140.684 257.777 140.789 257.769 140.878 257.752C140.968 257.736 141.037 257.722 141.087 257.712L141.355 258.94C141.269 258.973 141.147 259.007 140.988 259.04C140.828 259.076 140.63 259.096 140.391 259.099C140 259.106 139.635 259.036 139.297 258.891C138.959 258.745 138.686 258.519 138.477 258.214C138.268 257.91 138.164 257.527 138.164 257.066V249.534ZM146.183 250.141V248.818H154.063V250.141H150.886V259H149.355V250.141H146.183ZM159.483 255.833V251.364H160.975V259H159.513V257.678H159.433C159.258 258.085 158.976 258.425 158.588 258.697C158.204 258.965 157.725 259.099 157.151 259.099C156.661 259.099 156.227 258.992 155.849 258.776C155.474 258.558 155.179 258.234 154.964 257.807C154.752 257.379 154.646 256.851 154.646 256.221V251.364H156.132V256.042C156.132 256.562 156.276 256.977 156.565 257.285C156.853 257.593 157.228 257.747 157.688 257.747C157.967 257.747 158.244 257.678 158.519 257.538C158.797 257.399 159.027 257.189 159.21 256.907C159.395 256.625 159.486 256.267 159.483 255.833ZM162.972 259V251.364H164.409V252.577H164.488C164.627 252.166 164.873 251.843 165.224 251.607C165.579 251.369 165.98 251.249 166.427 251.249C166.52 251.249 166.629 251.253 166.755 251.259C166.885 251.266 166.986 251.274 167.059 251.284V252.706C166.999 252.689 166.893 252.671 166.74 252.651C166.588 252.628 166.435 252.616 166.283 252.616C165.932 252.616 165.618 252.691 165.343 252.84C165.072 252.986 164.856 253.19 164.697 253.452C164.538 253.71 164.458 254.005 164.458 254.337V259H162.972ZM169.831 254.466V259H168.345V251.364H169.772V252.607H169.866C170.042 252.202 170.317 251.877 170.692 251.632C171.069 251.387 171.545 251.264 172.118 251.264C172.639 251.264 173.095 251.374 173.486 251.592C173.877 251.808 174.18 252.129 174.395 252.557C174.611 252.984 174.719 253.513 174.719 254.143V259H173.232V254.322C173.232 253.768 173.088 253.336 172.8 253.024C172.511 252.709 172.115 252.552 171.611 252.552C171.267 252.552 170.96 252.626 170.692 252.776C170.426 252.925 170.216 253.143 170.06 253.432C169.908 253.717 169.831 254.062 169.831 254.466ZM178.934 259.169C178.451 259.169 178.013 259.08 177.622 258.901C177.231 258.718 176.921 258.455 176.692 258.11C176.467 257.765 176.354 257.343 176.354 256.842C176.354 256.411 176.437 256.057 176.603 255.778C176.769 255.5 176.992 255.28 177.274 255.117C177.556 254.955 177.871 254.832 178.219 254.749C178.567 254.666 178.921 254.603 179.282 254.56C179.74 254.507 180.111 254.464 180.396 254.431C180.681 254.395 180.888 254.337 181.018 254.257C181.147 254.178 181.211 254.048 181.211 253.869V253.835C181.211 253.4 181.089 253.064 180.844 252.825C180.602 252.587 180.24 252.467 179.76 252.467C179.259 252.467 178.865 252.578 178.577 252.8C178.291 253.019 178.094 253.263 177.985 253.531L176.588 253.213C176.754 252.749 176.996 252.375 177.314 252.089C177.635 251.801 178.005 251.592 178.422 251.463C178.84 251.33 179.279 251.264 179.74 251.264C180.045 251.264 180.368 251.301 180.709 251.374C181.054 251.443 181.376 251.572 181.674 251.761C181.975 251.95 182.222 252.22 182.415 252.572C182.607 252.92 182.703 253.372 182.703 253.929V259H181.251V257.956H181.192C181.095 258.148 180.951 258.337 180.759 258.523C180.567 258.708 180.32 258.862 180.018 258.985C179.717 259.108 179.355 259.169 178.934 259.169ZM179.258 257.976C179.669 257.976 180.02 257.895 180.312 257.732C180.607 257.57 180.83 257.358 180.983 257.096C181.139 256.831 181.216 256.547 181.216 256.246V255.261C181.163 255.314 181.061 255.364 180.908 255.411C180.759 255.454 180.588 255.492 180.396 255.525C180.204 255.555 180.017 255.583 179.834 255.609C179.652 255.633 179.5 255.652 179.377 255.669C179.089 255.705 178.825 255.767 178.586 255.853C178.351 255.939 178.162 256.063 178.02 256.226C177.881 256.385 177.811 256.597 177.811 256.862C177.811 257.23 177.947 257.509 178.219 257.697C178.49 257.883 178.837 257.976 179.258 257.976ZM184.683 259V251.364H186.12V252.577H186.199C186.338 252.166 186.584 251.843 186.935 251.607C187.29 251.369 187.691 251.249 188.138 251.249C188.231 251.249 188.34 251.253 188.466 251.259C188.596 251.266 188.697 251.274 188.77 251.284V252.706C188.71 252.689 188.604 252.671 188.451 252.651C188.299 252.628 188.146 252.616 187.994 252.616C187.643 252.616 187.329 252.691 187.054 252.84C186.783 252.986 186.567 253.19 186.408 253.452C186.249 253.71 186.169 254.005 186.169 254.337V259H184.683ZM192.999 259.154C192.283 259.154 191.658 258.99 191.125 258.662C190.591 258.334 190.177 257.875 189.882 257.285C189.587 256.695 189.439 256.005 189.439 255.217C189.439 254.424 189.587 253.732 189.882 253.138C190.177 252.545 190.591 252.085 191.125 251.756C191.658 251.428 192.283 251.264 192.999 251.264C193.715 251.264 194.34 251.428 194.873 251.756C195.407 252.085 195.821 252.545 196.116 253.138C196.411 253.732 196.559 254.424 196.559 255.217C196.559 256.005 196.411 256.695 196.116 257.285C195.821 257.875 195.407 258.334 194.873 258.662C194.34 258.99 193.715 259.154 192.999 259.154ZM193.004 257.906C193.468 257.906 193.853 257.784 194.157 257.538C194.462 257.293 194.688 256.967 194.834 256.559C194.983 256.151 195.057 255.702 195.057 255.212C195.057 254.724 194.983 254.277 194.834 253.869C194.688 253.458 194.462 253.129 194.157 252.88C193.853 252.631 193.468 252.507 193.004 252.507C192.537 252.507 192.149 252.631 191.841 252.88C191.536 253.129 191.309 253.458 191.16 253.869C191.014 254.277 190.941 254.724 190.941 255.212C190.941 255.702 191.014 256.151 191.16 256.559C191.309 256.967 191.536 257.293 191.841 257.538C192.149 257.784 192.537 257.906 193.004 257.906ZM203.055 255.833V251.364H204.547V259H203.085V257.678H203.006C202.83 258.085 202.548 258.425 202.161 258.697C201.776 258.965 201.297 259.099 200.724 259.099C200.233 259.099 199.799 258.992 199.421 258.776C199.047 258.558 198.752 258.234 198.536 257.807C198.324 257.379 198.218 256.851 198.218 256.221V251.364H199.705V256.042C199.705 256.562 199.849 256.977 200.137 257.285C200.425 257.593 200.8 257.747 201.261 257.747C201.539 257.747 201.816 257.678 202.091 257.538C202.369 257.399 202.6 257.189 202.782 256.907C202.968 256.625 203.059 256.267 203.055 255.833ZM208.031 254.466V259H206.544V251.364H207.971V252.607H208.066C208.241 252.202 208.516 251.877 208.891 251.632C209.269 251.387 209.744 251.264 210.318 251.264C210.838 251.264 211.294 251.374 211.685 251.592C212.076 251.808 212.379 252.129 212.595 252.557C212.81 252.984 212.918 253.513 212.918 254.143V259H211.431V254.322C211.431 253.768 211.287 253.336 210.999 253.024C210.71 252.709 210.314 252.552 209.811 252.552C209.466 252.552 209.159 252.626 208.891 252.776C208.626 252.925 208.415 253.143 208.259 253.432C208.107 253.717 208.031 254.062 208.031 254.466ZM217.77 259.149C217.154 259.149 216.603 258.992 216.119 258.677C215.639 258.359 215.261 257.906 214.986 257.32C214.714 256.73 214.578 256.022 214.578 255.197C214.578 254.371 214.716 253.665 214.991 253.079C215.269 252.492 215.651 252.043 216.134 251.732C216.618 251.42 217.167 251.264 217.78 251.264C218.254 251.264 218.635 251.344 218.923 251.503C219.215 251.659 219.441 251.841 219.6 252.05C219.762 252.259 219.888 252.442 219.977 252.602H220.067V248.818H221.553V259H220.102V257.812H219.977C219.888 257.974 219.759 258.16 219.59 258.369C219.424 258.577 219.195 258.76 218.904 258.915C218.612 259.071 218.234 259.149 217.77 259.149ZM218.098 257.881C218.526 257.881 218.887 257.769 219.182 257.543C219.48 257.315 219.706 256.998 219.858 256.594C220.014 256.189 220.092 255.719 220.092 255.182C220.092 254.652 220.016 254.187 219.863 253.79C219.711 253.392 219.487 253.082 219.192 252.86C218.897 252.638 218.532 252.527 218.098 252.527C217.651 252.527 217.278 252.643 216.98 252.875C216.681 253.107 216.456 253.424 216.303 253.825C216.154 254.226 216.08 254.678 216.08 255.182C216.08 255.692 216.156 256.151 216.308 256.559C216.461 256.967 216.686 257.29 216.985 257.528C217.286 257.764 217.657 257.881 218.098 257.881Z" fill="#101010"/>
</g>
<path d="M264.959 16V7.27273H266.276V14.8665H270.23V16H264.959ZM274.387 16.1321C273.773 16.1321 273.238 15.9915 272.781 15.7102C272.323 15.429 271.968 15.0355 271.715 14.5298C271.462 14.0241 271.336 13.4332 271.336 12.7571C271.336 12.0781 271.462 11.4844 271.715 10.9759C271.968 10.4673 272.323 10.0724 272.781 9.79119C273.238 9.50994 273.773 9.36932 274.387 9.36932C275.001 9.36932 275.536 9.50994 275.994 9.79119C276.451 10.0724 276.806 10.4673 277.059 10.9759C277.312 11.4844 277.438 12.0781 277.438 12.7571C277.438 13.4332 277.312 14.0241 277.059 14.5298C276.806 15.0355 276.451 15.429 275.994 15.7102C275.536 15.9915 275.001 16.1321 274.387 16.1321ZM274.391 15.0625C274.789 15.0625 275.119 14.9574 275.38 14.7472C275.641 14.5369 275.835 14.2571 275.96 13.9077C276.087 13.5582 276.151 13.1733 276.151 12.7528C276.151 12.3352 276.087 11.9517 275.96 11.6023C275.835 11.25 275.641 10.9673 275.38 10.7543C275.119 10.5412 274.789 10.4347 274.391 10.4347C273.991 10.4347 273.658 10.5412 273.394 10.7543C273.133 10.9673 272.938 11.25 272.81 11.6023C272.685 11.9517 272.623 12.3352 272.623 12.7528C272.623 13.1733 272.685 13.5582 272.81 13.9077C272.938 14.2571 273.133 14.5369 273.394 14.7472C273.658 14.9574 273.991 15.0625 274.391 15.0625ZM278.86 16V9.45455H280.092V10.4943H280.16C280.279 10.142 280.49 9.86506 280.791 9.66335C281.095 9.45881 281.439 9.35653 281.822 9.35653C281.902 9.35653 281.995 9.35937 282.103 9.36506C282.214 9.37074 282.301 9.37784 282.363 9.38636V10.6051C282.312 10.5909 282.221 10.5753 282.091 10.5582C281.96 10.5384 281.829 10.5284 281.699 10.5284C281.397 10.5284 281.129 10.5923 280.893 10.7202C280.66 10.8452 280.475 11.0199 280.339 11.2443C280.203 11.4659 280.135 11.7187 280.135 12.0028V16H278.86ZM286.053 16.1321C285.408 16.1321 284.852 15.9943 284.386 15.7188C283.923 15.4403 283.565 15.0497 283.312 14.5469C283.062 14.0412 282.938 13.4489 282.938 12.7699C282.938 12.0994 283.062 11.5085 283.312 10.9972C283.565 10.4858 283.918 10.0866 284.369 9.79972C284.824 9.51278 285.355 9.36932 285.963 9.36932C286.332 9.36932 286.69 9.4304 287.037 9.55256C287.384 9.67472 287.695 9.86648 287.97 10.1278C288.246 10.3892 288.463 10.7287 288.622 11.1463C288.781 11.5611 288.861 12.0653 288.861 12.6591V13.1108H283.658V12.1562H287.612C287.612 11.821 287.544 11.5241 287.408 11.2656C287.271 11.0043 287.08 10.7983 286.832 10.6477C286.588 10.4972 286.301 10.4219 285.972 10.4219C285.614 10.4219 285.301 10.5099 285.034 10.6861C284.77 10.8594 284.565 11.0866 284.42 11.3679C284.278 11.6463 284.207 11.9489 284.207 12.2756V13.0213C284.207 13.4588 284.284 13.831 284.438 14.1378C284.594 14.4446 284.811 14.679 285.089 14.8409C285.368 15 285.693 15.0795 286.065 15.0795C286.307 15.0795 286.527 15.0455 286.726 14.9773C286.925 14.9062 287.097 14.8011 287.241 14.6619C287.386 14.5227 287.497 14.3509 287.574 14.1463L288.78 14.3636C288.683 14.7187 288.51 15.0298 288.26 15.2969C288.013 15.5611 287.702 15.767 287.327 15.9148C286.955 16.0597 286.53 16.1321 286.053 16.1321ZM290.275 16V9.45455H291.498V10.5199H291.578C291.715 10.1591 291.938 9.87784 292.248 9.67614C292.557 9.47159 292.928 9.36932 293.36 9.36932C293.797 9.36932 294.164 9.47159 294.459 9.67614C294.757 9.88068 294.978 10.1619 295.12 10.5199H295.188C295.344 10.1705 295.593 9.89205 295.934 9.68466C296.275 9.47443 296.681 9.36932 297.152 9.36932C297.746 9.36932 298.23 9.5554 298.605 9.92756C298.983 10.2997 299.172 10.8608 299.172 11.6108V16H297.898V11.7301C297.898 11.2869 297.777 10.9659 297.536 10.767C297.294 10.5682 297.006 10.4688 296.671 10.4688C296.256 10.4688 295.934 10.5966 295.703 10.8523C295.473 11.1051 295.358 11.4304 295.358 11.8281V16H294.088V11.6491C294.088 11.294 293.978 11.0085 293.756 10.7926C293.534 10.5767 293.246 10.4688 292.891 10.4688C292.65 10.4688 292.426 10.5327 292.222 10.6605C292.02 10.7855 291.857 10.9602 291.732 11.1847C291.61 11.4091 291.549 11.669 291.549 11.9645V16H290.275ZM305.475 7.27273V16H304.158V7.27273H305.475ZM307.29 18.4545V9.45455H308.534V10.5156H308.641C308.715 10.3793 308.821 10.2216 308.961 10.0426C309.1 9.86364 309.293 9.70739 309.54 9.57386C309.787 9.4375 310.114 9.36932 310.52 9.36932C311.049 9.36932 311.52 9.50284 311.935 9.76989C312.35 10.0369 312.675 10.4219 312.911 10.9247C313.15 11.4276 313.269 12.0327 313.269 12.7401C313.269 13.4474 313.151 14.054 312.915 14.5597C312.679 15.0625 312.355 15.4503 311.944 15.723C311.532 15.9929 311.061 16.1278 310.533 16.1278C310.135 16.1278 309.81 16.0611 309.557 15.9276C309.307 15.794 309.111 15.6378 308.969 15.4588C308.827 15.2798 308.718 15.1207 308.641 14.9815H308.564V18.4545H307.29ZM308.539 12.7273C308.539 13.1875 308.605 13.5909 308.739 13.9375C308.873 14.2841 309.066 14.5554 309.319 14.7514C309.571 14.9446 309.881 15.0412 310.248 15.0412C310.628 15.0412 310.946 14.9403 311.202 14.7386C311.458 14.5341 311.651 14.2571 311.782 13.9077C311.915 13.5582 311.982 13.1648 311.982 12.7273C311.982 12.2955 311.917 11.9077 311.786 11.5639C311.658 11.2202 311.465 10.9489 311.206 10.75C310.951 10.5511 310.631 10.4517 310.248 10.4517C309.878 10.4517 309.566 10.5469 309.31 10.7372C309.057 10.9276 308.865 11.1932 308.735 11.5341C308.604 11.875 308.539 12.2727 308.539 12.7273ZM319.601 11.0526L318.446 11.2571C318.398 11.1094 318.321 10.9687 318.216 10.8352C318.114 10.7017 317.975 10.5923 317.799 10.5071C317.623 10.4219 317.402 10.3793 317.138 10.3793C316.777 10.3793 316.476 10.4602 316.235 10.6222C315.993 10.7812 315.873 10.9872 315.873 11.2401C315.873 11.4588 315.953 11.6349 316.115 11.7685C316.277 11.902 316.539 12.0114 316.9 12.0966L317.939 12.3352C318.542 12.4744 318.99 12.6889 319.286 12.9787C319.581 13.2685 319.729 13.6449 319.729 14.108C319.729 14.5 319.615 14.8494 319.388 15.1562C319.164 15.4602 318.85 15.6989 318.446 15.8722C318.046 16.0455 317.581 16.1321 317.053 16.1321C316.32 16.1321 315.722 15.9759 315.259 15.6634C314.796 15.348 314.512 14.9006 314.407 14.321L315.638 14.1335C315.715 14.4545 315.873 14.6974 316.111 14.8622C316.35 15.0241 316.661 15.1051 317.044 15.1051C317.462 15.1051 317.796 15.0185 318.046 14.8452C318.296 14.669 318.421 14.4545 318.421 14.2017C318.421 13.9972 318.344 13.8253 318.191 13.6861C318.04 13.5469 317.809 13.4418 317.496 13.3707L316.388 13.1278C315.777 12.9886 315.326 12.767 315.033 12.4631C314.743 12.1591 314.598 11.7741 314.598 11.3082C314.598 10.9219 314.706 10.5838 314.922 10.294C315.138 10.0043 315.436 9.77841 315.817 9.61648C316.198 9.4517 316.634 9.36932 317.125 9.36932C317.833 9.36932 318.39 9.52273 318.796 9.82955C319.202 10.1335 319.471 10.5412 319.601 11.0526ZM325.276 13.2855V9.45455H326.555V16H325.302V14.8665H325.234C325.083 15.2159 324.842 15.5071 324.509 15.7401C324.18 15.9702 323.769 16.0852 323.278 16.0852C322.857 16.0852 322.485 15.9929 322.161 15.8082C321.84 15.6207 321.587 15.3438 321.403 14.9773C321.221 14.6108 321.13 14.1577 321.13 13.6179V9.45455H322.404V13.4645C322.404 13.9105 322.528 14.2656 322.775 14.5298C323.022 14.794 323.343 14.9261 323.738 14.9261C323.977 14.9261 324.214 14.8665 324.45 14.7472C324.688 14.6278 324.886 14.4474 325.042 14.206C325.201 13.9645 325.279 13.6577 325.276 13.2855ZM328.267 16V9.45455H329.49V10.5199H329.571C329.707 10.1591 329.93 9.87784 330.24 9.67614C330.549 9.47159 330.92 9.36932 331.352 9.36932C331.789 9.36932 332.156 9.47159 332.451 9.67614C332.75 9.88068 332.97 10.1619 333.112 10.5199H333.18C333.336 10.1705 333.585 9.89205 333.926 9.68466C334.267 9.47443 334.673 9.36932 335.145 9.36932C335.738 9.36932 336.223 9.5554 336.598 9.92756C336.975 10.2997 337.164 10.8608 337.164 11.6108V16H335.89V11.7301C335.89 11.2869 335.77 10.9659 335.528 10.767C335.287 10.5682 334.998 10.4688 334.663 10.4688C334.248 10.4688 333.926 10.5966 333.696 10.8523C333.466 11.1051 333.35 11.4304 333.35 11.8281V16H332.081V11.6491C332.081 11.294 331.97 11.0085 331.748 10.7926C331.527 10.5767 331.238 10.4688 330.883 10.4688C330.642 10.4688 330.419 10.5327 330.214 10.6605C330.012 10.7855 329.849 10.9602 329.724 11.1847C329.602 11.4091 329.541 11.669 329.541 11.9645V16H328.267Z" fill="#E7E7E7"/>
<path d="M4.95881 39V30.2727H6.27557V37.8665H10.2301V39H4.95881ZM14.3871 39.1321C13.7734 39.1321 13.2379 38.9915 12.7805 38.7102C12.3232 38.429 11.968 38.0355 11.7152 37.5298C11.4624 37.0241 11.3359 36.4332 11.3359 35.7571C11.3359 35.0781 11.4624 34.4844 11.7152 33.9759C11.968 33.4673 12.3232 33.0724 12.7805 32.7912C13.2379 32.5099 13.7734 32.3693 14.3871 32.3693C15.0007 32.3693 15.5362 32.5099 15.9936 32.7912C16.451 33.0724 16.8061 33.4673 17.0589 33.9759C17.3118 34.4844 17.4382 35.0781 17.4382 35.7571C17.4382 36.4332 17.3118 37.0241 17.0589 37.5298C16.8061 38.0355 16.451 38.429 15.9936 38.7102C15.5362 38.9915 15.0007 39.1321 14.3871 39.1321ZM14.3913 38.0625C14.7891 38.0625 15.1186 37.9574 15.38 37.7472C15.6413 37.5369 15.8345 37.2571 15.9595 36.9077C16.0874 36.5582 16.1513 36.1733 16.1513 35.7528C16.1513 35.3352 16.0874 34.9517 15.9595 34.6023C15.8345 34.25 15.6413 33.9673 15.38 33.7543C15.1186 33.5412 14.7891 33.4347 14.3913 33.4347C13.9908 33.4347 13.6584 33.5412 13.3942 33.7543C13.1328 33.9673 12.9382 34.25 12.8104 34.6023C12.6854 34.9517 12.6229 35.3352 12.6229 35.7528C12.6229 36.1733 12.6854 36.5582 12.8104 36.9077C12.9382 37.2571 13.1328 37.5369 13.3942 37.7472C13.6584 37.9574 13.9908 38.0625 14.3913 38.0625ZM18.8604 39V32.4545H20.092V33.4943H20.1602C20.2795 33.142 20.4897 32.8651 20.7908 32.6634C21.0948 32.4588 21.4386 32.3565 21.8221 32.3565C21.9016 32.3565 21.9954 32.3594 22.1033 32.3651C22.2141 32.3707 22.3008 32.3778 22.3633 32.3864V33.6051C22.3121 33.5909 22.2212 33.5753 22.0906 33.5582C21.9599 33.5384 21.8292 33.5284 21.6985 33.5284C21.3974 33.5284 21.1289 33.5923 20.8931 33.7202C20.6602 33.8452 20.4755 34.0199 20.3391 34.2443C20.2028 34.4659 20.1346 34.7187 20.1346 35.0028V39H18.8604ZM26.0526 39.1321C25.4077 39.1321 24.8523 38.9943 24.3864 38.7188C23.9233 38.4403 23.5653 38.0497 23.3125 37.5469C23.0625 37.0412 22.9375 36.4489 22.9375 35.7699C22.9375 35.0994 23.0625 34.5085 23.3125 33.9972C23.5653 33.4858 23.9176 33.0866 24.3693 32.7997C24.8239 32.5128 25.3551 32.3693 25.9631 32.3693C26.3324 32.3693 26.6903 32.4304 27.0369 32.5526C27.3835 32.6747 27.6946 32.8665 27.9702 33.1278C28.2457 33.3892 28.4631 33.7287 28.6222 34.1463C28.7813 34.5611 28.8608 35.0653 28.8608 35.6591V36.1108H23.6577V35.1562H27.6122C27.6122 34.821 27.544 34.5241 27.4077 34.2656C27.2713 34.0043 27.0795 33.7983 26.8324 33.6477C26.5881 33.4972 26.3011 33.4219 25.9716 33.4219C25.6136 33.4219 25.3011 33.5099 25.0341 33.6861C24.7699 33.8594 24.5653 34.0866 24.4205 34.3679C24.2784 34.6463 24.2074 34.9489 24.2074 35.2756V36.0213C24.2074 36.4588 24.2841 36.831 24.4375 37.1378C24.5938 37.4446 24.8111 37.679 25.0895 37.8409C25.3679 38 25.6932 38.0795 26.0653 38.0795C26.3068 38.0795 26.527 38.0455 26.7259 37.9773C26.9247 37.9062 27.0966 37.8011 27.2415 37.6619C27.3864 37.5227 27.4972 37.3509 27.5739 37.1463L28.7798 37.3636C28.6832 37.7187 28.5099 38.0298 28.2599 38.2969C28.0128 38.5611 27.7017 38.767 27.3267 38.9148C26.9545 39.0597 26.5298 39.1321 26.0526 39.1321ZM30.2745 39V32.4545H31.4975V33.5199H31.5785C31.7148 33.1591 31.9379 32.8778 32.2475 32.6761C32.5572 32.4716 32.9279 32.3693 33.3597 32.3693C33.7972 32.3693 34.1637 32.4716 34.4592 32.6761C34.7575 32.8807 34.9776 33.1619 35.1197 33.5199H35.1879C35.3441 33.1705 35.5927 32.892 35.9336 32.6847C36.2745 32.4744 36.6808 32.3693 37.1523 32.3693C37.7461 32.3693 38.2305 32.5554 38.6055 32.9276C38.9833 33.2997 39.1722 33.8608 39.1722 34.6108V39H37.8981V34.7301C37.8981 34.2869 37.7773 33.9659 37.5359 33.767C37.2944 33.5682 37.006 33.4688 36.6708 33.4688C36.256 33.4688 35.9336 33.5966 35.7035 33.8523C35.4734 34.1051 35.3583 34.4304 35.3583 34.8281V39H34.0884V34.6491C34.0884 34.294 33.9776 34.0085 33.756 33.7926C33.5344 33.5767 33.2461 33.4688 32.891 33.4688C32.6495 33.4688 32.4265 33.5327 32.2219 33.6605C32.0202 33.7855 31.8569 33.9602 31.7319 34.1847C31.6097 34.4091 31.5487 34.669 31.5487 34.9645V39H30.2745ZM45.4748 30.2727V39H44.158V30.2727H45.4748ZM47.2901 41.4545V32.4545H48.5344V33.5156H48.641C48.7148 33.3793 48.8214 33.2216 48.9606 33.0426C49.0998 32.8636 49.293 32.7074 49.5401 32.5739C49.7873 32.4375 50.114 32.3693 50.5202 32.3693C51.0487 32.3693 51.5202 32.5028 51.935 32.7699C52.3498 33.0369 52.6751 33.4219 52.9109 33.9247C53.1495 34.4276 53.2688 35.0327 53.2688 35.7401C53.2688 36.4474 53.1509 37.054 52.9151 37.5597C52.6793 38.0625 52.3555 38.4503 51.9435 38.723C51.5316 38.9929 51.0614 39.1278 50.533 39.1278C50.1353 39.1278 49.81 39.0611 49.5572 38.9276C49.3072 38.794 49.1112 38.6378 48.9691 38.4588C48.8271 38.2798 48.7177 38.1207 48.641 37.9815H48.5643V41.4545H47.2901ZM48.5387 35.7273C48.5387 36.1875 48.6055 36.5909 48.739 36.9375C48.8725 37.2841 49.0657 37.5554 49.3185 37.7514C49.5714 37.9446 49.881 38.0412 50.2475 38.0412C50.6282 38.0412 50.9464 37.9403 51.2021 37.7386C51.4577 37.5341 51.6509 37.2571 51.7816 36.9077C51.9151 36.5582 51.9819 36.1648 51.9819 35.7273C51.9819 35.2955 51.9165 34.9077 51.7859 34.5639C51.658 34.2202 51.4648 33.9489 51.2063 33.75C50.9506 33.5511 50.631 33.4517 50.2475 33.4517C49.8782 33.4517 49.5657 33.5469 49.31 33.7372C49.0572 33.9276 48.8654 34.1932 48.7347 34.5341C48.604 34.875 48.5387 35.2727 48.5387 35.7273ZM59.6012 34.0526L58.4464 34.2571C58.3981 34.1094 58.3214 33.9687 58.2163 33.8352C58.114 33.7017 57.9748 33.5923 57.7987 33.5071C57.6225 33.4219 57.4023 33.3793 57.1381 33.3793C56.7773 33.3793 56.4762 33.4602 56.2347 33.6222C55.9933 33.7812 55.8725 33.9872 55.8725 34.2401C55.8725 34.4588 55.9535 34.6349 56.1154 34.7685C56.2773 34.902 56.5387 35.0114 56.8995 35.0966L57.9393 35.3352C58.5415 35.4744 58.9904 35.6889 59.2859 35.9787C59.5813 36.2685 59.729 36.6449 59.729 37.108C59.729 37.5 59.6154 37.8494 59.3881 38.1562C59.1637 38.4602 58.8498 38.6989 58.4464 38.8722C58.0458 39.0455 57.5813 39.1321 57.0529 39.1321C56.32 39.1321 55.7219 38.9759 55.2589 38.6634C54.7958 38.348 54.5117 37.9006 54.4066 37.321L55.6381 37.1335C55.7148 37.4545 55.8725 37.6974 56.1112 37.8622C56.3498 38.0241 56.6609 38.1051 57.0444 38.1051C57.462 38.1051 57.7958 38.0185 58.0458 37.8452C58.2958 37.669 58.4208 37.4545 58.4208 37.2017C58.4208 36.9972 58.3441 36.8253 58.1907 36.6861C58.0401 36.5469 57.8086 36.4418 57.4961 36.3707L56.3881 36.1278C55.7773 35.9886 55.3256 35.767 55.033 35.4631C54.7433 35.1591 54.5984 34.7741 54.5984 34.3082C54.5984 33.9219 54.7063 33.5838 54.9222 33.294C55.1381 33.0043 55.4364 32.7784 55.8171 32.6165C56.1978 32.4517 56.6339 32.3693 57.1254 32.3693C57.8327 32.3693 58.3896 32.5227 58.7958 32.8295C59.2021 33.1335 59.4705 33.5412 59.6012 34.0526ZM65.2763 36.2855V32.4545H66.5547V39H65.3018V37.8665H65.2337C65.0831 38.2159 64.8416 38.5071 64.5092 38.7401C64.1797 38.9702 63.7692 39.0852 63.2777 39.0852C62.8572 39.0852 62.4851 38.9929 62.1612 38.8082C61.8402 38.6207 61.5874 38.3438 61.4027 37.9773C61.2209 37.6108 61.13 37.1577 61.13 36.6179V32.4545H62.4041V36.4645C62.4041 36.9105 62.5277 37.2656 62.7749 37.5298C63.022 37.794 63.343 37.9261 63.7379 37.9261C63.9766 37.9261 64.2138 37.8665 64.4496 37.7472C64.6882 37.6278 64.8857 37.4474 65.0419 37.206C65.201 36.9645 65.2791 36.6577 65.2763 36.2855ZM68.2667 39V32.4545H69.4897V33.5199H69.5707C69.707 33.1591 69.93 32.8778 70.2397 32.6761C70.5494 32.4716 70.9201 32.3693 71.3519 32.3693C71.7894 32.3693 72.1559 32.4716 72.4513 32.6761C72.7496 32.8807 72.9698 33.1619 73.1119 33.5199H73.18C73.3363 33.1705 73.5849 32.892 73.9258 32.6847C74.2667 32.4744 74.6729 32.3693 75.1445 32.3693C75.7383 32.3693 76.2227 32.5554 76.5977 32.9276C76.9755 33.2997 77.1644 33.8608 77.1644 34.6108V39H75.8903V34.7301C75.8903 34.2869 75.7695 33.9659 75.5281 33.767C75.2866 33.5682 74.9982 33.4688 74.663 33.4688C74.2482 33.4688 73.9258 33.5966 73.6957 33.8523C73.4656 34.1051 73.3505 34.4304 73.3505 34.8281V39H72.0806V34.6491C72.0806 34.294 71.9698 34.0085 71.7482 33.7926C71.5266 33.5767 71.2383 33.4688 70.8832 33.4688C70.6417 33.4688 70.4187 33.5327 70.2141 33.6605C70.0124 33.7855 69.8491 33.9602 69.7241 34.1847C69.6019 34.4091 69.5408 34.669 69.5408 34.9645V39H68.2667Z" fill="#E7E7E7"/>
<path d="M24.9588 289V280.273H26.2756V287.866H30.2301V289H24.9588ZM34.3871 289.132C33.7734 289.132 33.2379 288.991 32.7805 288.71C32.3232 288.429 31.968 288.036 31.7152 287.53C31.4624 287.024 31.3359 286.433 31.3359 285.757C31.3359 285.078 31.4624 284.484 31.7152 283.976C31.968 283.467 32.3232 283.072 32.7805 282.791C33.2379 282.51 33.7734 282.369 34.3871 282.369C35.0007 282.369 35.5362 282.51 35.9936 282.791C36.451 283.072 36.8061 283.467 37.0589 283.976C37.3118 284.484 37.4382 285.078 37.4382 285.757C37.4382 286.433 37.3118 287.024 37.0589 287.53C36.8061 288.036 36.451 288.429 35.9936 288.71C35.5362 288.991 35.0007 289.132 34.3871 289.132ZM34.3913 288.062C34.7891 288.062 35.1186 287.957 35.38 287.747C35.6413 287.537 35.8345 287.257 35.9595 286.908C36.0874 286.558 36.1513 286.173 36.1513 285.753C36.1513 285.335 36.0874 284.952 35.9595 284.602C35.8345 284.25 35.6413 283.967 35.38 283.754C35.1186 283.541 34.7891 283.435 34.3913 283.435C33.9908 283.435 33.6584 283.541 33.3942 283.754C33.1328 283.967 32.9382 284.25 32.8104 284.602C32.6854 284.952 32.6229 285.335 32.6229 285.753C32.6229 286.173 32.6854 286.558 32.8104 286.908C32.9382 287.257 33.1328 287.537 33.3942 287.747C33.6584 287.957 33.9908 288.062 34.3913 288.062ZM38.8604 289V282.455H40.092V283.494H40.1602C40.2795 283.142 40.4897 282.865 40.7908 282.663C41.0948 282.459 41.4386 282.357 41.8221 282.357C41.9016 282.357 41.9954 282.359 42.1033 282.365C42.2141 282.371 42.3008 282.378 42.3633 282.386V283.605C42.3121 283.591 42.2212 283.575 42.0906 283.558C41.9599 283.538 41.8292 283.528 41.6985 283.528C41.3974 283.528 41.1289 283.592 40.8931 283.72C40.6602 283.845 40.4755 284.02 40.3391 284.244C40.2028 284.466 40.1346 284.719 40.1346 285.003V289H38.8604ZM46.0526 289.132C45.4077 289.132 44.8523 288.994 44.3864 288.719C43.9233 288.44 43.5653 288.05 43.3125 287.547C43.0625 287.041 42.9375 286.449 42.9375 285.77C42.9375 285.099 43.0625 284.509 43.3125 283.997C43.5653 283.486 43.9176 283.087 44.3693 282.8C44.8239 282.513 45.3551 282.369 45.9631 282.369C46.3324 282.369 46.6903 282.43 47.0369 282.553C47.3835 282.675 47.6946 282.866 47.9702 283.128C48.2457 283.389 48.4631 283.729 48.6222 284.146C48.7813 284.561 48.8608 285.065 48.8608 285.659V286.111H43.6577V285.156H47.6122C47.6122 284.821 47.544 284.524 47.4077 284.266C47.2713 284.004 47.0795 283.798 46.8324 283.648C46.5881 283.497 46.3011 283.422 45.9716 283.422C45.6136 283.422 45.3011 283.51 45.0341 283.686C44.7699 283.859 44.5653 284.087 44.4205 284.368C44.2784 284.646 44.2074 284.949 44.2074 285.276V286.021C44.2074 286.459 44.2841 286.831 44.4375 287.138C44.5938 287.445 44.8111 287.679 45.0895 287.841C45.3679 288 45.6932 288.08 46.0653 288.08C46.3068 288.08 46.527 288.045 46.7259 287.977C46.9247 287.906 47.0966 287.801 47.2415 287.662C47.3864 287.523 47.4972 287.351 47.5739 287.146L48.7798 287.364C48.6832 287.719 48.5099 288.03 48.2599 288.297C48.0128 288.561 47.7017 288.767 47.3267 288.915C46.9545 289.06 46.5298 289.132 46.0526 289.132ZM50.2745 289V282.455H51.4975V283.52H51.5785C51.7148 283.159 51.9379 282.878 52.2475 282.676C52.5572 282.472 52.9279 282.369 53.3597 282.369C53.7972 282.369 54.1637 282.472 54.4592 282.676C54.7575 282.881 54.9776 283.162 55.1197 283.52H55.1879C55.3441 283.17 55.5927 282.892 55.9336 282.685C56.2745 282.474 56.6808 282.369 57.1523 282.369C57.7461 282.369 58.2305 282.555 58.6055 282.928C58.9833 283.3 59.1722 283.861 59.1722 284.611V289H57.8981V284.73C57.8981 284.287 57.7773 283.966 57.5359 283.767C57.2944 283.568 57.006 283.469 56.6708 283.469C56.256 283.469 55.9336 283.597 55.7035 283.852C55.4734 284.105 55.3583 284.43 55.3583 284.828V289H54.0884V284.649C54.0884 284.294 53.9776 284.009 53.756 283.793C53.5344 283.577 53.2461 283.469 52.891 283.469C52.6495 283.469 52.4265 283.533 52.2219 283.661C52.0202 283.786 51.8569 283.96 51.7319 284.185C51.6097 284.409 51.5487 284.669 51.5487 284.964V289H50.2745ZM65.4748 280.273V289H64.158V280.273H65.4748ZM67.2901 291.455V282.455H68.5344V283.516H68.641C68.7148 283.379 68.8214 283.222 68.9606 283.043C69.0998 282.864 69.293 282.707 69.5401 282.574C69.7873 282.438 70.114 282.369 70.5202 282.369C71.0487 282.369 71.5202 282.503 71.935 282.77C72.3498 283.037 72.6751 283.422 72.9109 283.925C73.1495 284.428 73.2688 285.033 73.2688 285.74C73.2688 286.447 73.1509 287.054 72.9151 287.56C72.6793 288.062 72.3555 288.45 71.9435 288.723C71.5316 288.993 71.0614 289.128 70.533 289.128C70.1353 289.128 69.81 289.061 69.5572 288.928C69.3072 288.794 69.1112 288.638 68.9691 288.459C68.8271 288.28 68.7177 288.121 68.641 287.982H68.5643V291.455H67.2901ZM68.5387 285.727C68.5387 286.187 68.6055 286.591 68.739 286.938C68.8725 287.284 69.0657 287.555 69.3185 287.751C69.5714 287.945 69.881 288.041 70.2475 288.041C70.6282 288.041 70.9464 287.94 71.2021 287.739C71.4577 287.534 71.6509 287.257 71.7816 286.908C71.9151 286.558 71.9819 286.165 71.9819 285.727C71.9819 285.295 71.9165 284.908 71.7859 284.564C71.658 284.22 71.4648 283.949 71.2063 283.75C70.9506 283.551 70.631 283.452 70.2475 283.452C69.8782 283.452 69.5657 283.547 69.31 283.737C69.0572 283.928 68.8654 284.193 68.7347 284.534C68.604 284.875 68.5387 285.273 68.5387 285.727ZM79.6012 284.053L78.4464 284.257C78.3981 284.109 78.3214 283.969 78.2163 283.835C78.114 283.702 77.9748 283.592 77.7987 283.507C77.6225 283.422 77.4023 283.379 77.1381 283.379C76.7773 283.379 76.4762 283.46 76.2347 283.622C75.9933 283.781 75.8725 283.987 75.8725 284.24C75.8725 284.459 75.9535 284.635 76.1154 284.768C76.2773 284.902 76.5387 285.011 76.8995 285.097L77.9393 285.335C78.5415 285.474 78.9904 285.689 79.2859 285.979C79.5813 286.268 79.729 286.645 79.729 287.108C79.729 287.5 79.6154 287.849 79.3881 288.156C79.1637 288.46 78.8498 288.699 78.4464 288.872C78.0458 289.045 77.5813 289.132 77.0529 289.132C76.32 289.132 75.7219 288.976 75.2589 288.663C74.7958 288.348 74.5117 287.901 74.4066 287.321L75.6381 287.134C75.7148 287.455 75.8725 287.697 76.1112 287.862C76.3498 288.024 76.6609 288.105 77.0444 288.105C77.462 288.105 77.7958 288.018 78.0458 287.845C78.2958 287.669 78.4208 287.455 78.4208 287.202C78.4208 286.997 78.3441 286.825 78.1907 286.686C78.0401 286.547 77.8086 286.442 77.4961 286.371L76.3881 286.128C75.7773 285.989 75.3256 285.767 75.033 285.463C74.7433 285.159 74.5984 284.774 74.5984 284.308C74.5984 283.922 74.7063 283.584 74.9222 283.294C75.1381 283.004 75.4364 282.778 75.8171 282.616C76.1978 282.452 76.6339 282.369 77.1254 282.369C77.8327 282.369 78.3896 282.523 78.7958 282.83C79.2021 283.134 79.4705 283.541 79.6012 284.053ZM85.2763 286.286V282.455H86.5547V289H85.3018V287.866H85.2337C85.0831 288.216 84.8416 288.507 84.5092 288.74C84.1797 288.97 83.7692 289.085 83.2777 289.085C82.8572 289.085 82.4851 288.993 82.1612 288.808C81.8402 288.621 81.5874 288.344 81.4027 287.977C81.2209 287.611 81.13 287.158 81.13 286.618V282.455H82.4041V286.464C82.4041 286.911 82.5277 287.266 82.7749 287.53C83.022 287.794 83.343 287.926 83.7379 287.926C83.9766 287.926 84.2138 287.866 84.4496 287.747C84.6882 287.628 84.8857 287.447 85.0419 287.206C85.201 286.964 85.2791 286.658 85.2763 286.286ZM88.2667 289V282.455H89.4897V283.52H89.5707C89.707 283.159 89.93 282.878 90.2397 282.676C90.5494 282.472 90.9201 282.369 91.3519 282.369C91.7894 282.369 92.1559 282.472 92.4513 282.676C92.7496 282.881 92.9698 283.162 93.1119 283.52H93.18C93.3363 283.17 93.5849 282.892 93.9258 282.685C94.2667 282.474 94.6729 282.369 95.1445 282.369C95.7383 282.369 96.2227 282.555 96.5977 282.928C96.9755 283.3 97.1644 283.861 97.1644 284.611V289H95.8903V284.73C95.8903 284.287 95.7695 283.966 95.5281 283.767C95.2866 283.568 94.9982 283.469 94.663 283.469C94.2482 283.469 93.9258 283.597 93.6957 283.852C93.4656 284.105 93.3505 284.43 93.3505 284.828V289H92.0806V284.649C92.0806 284.294 91.9698 284.009 91.7482 283.793C91.5266 283.577 91.2383 283.469 90.8832 283.469C90.6417 283.469 90.4187 283.533 90.2141 283.661C90.0124 283.786 89.8491 283.96 89.7241 284.185C89.6019 284.409 89.5408 284.669 89.5408 284.964V289H88.2667Z" fill="#E7E7E7"/>
<path d="M212.959 300V291.273H214.276V298.866H218.23V300H212.959ZM222.387 300.132C221.773 300.132 221.238 299.991 220.781 299.71C220.323 299.429 219.968 299.036 219.715 298.53C219.462 298.024 219.336 297.433 219.336 296.757C219.336 296.078 219.462 295.484 219.715 294.976C219.968 294.467 220.323 294.072 220.781 293.791C221.238 293.51 221.773 293.369 222.387 293.369C223.001 293.369 223.536 293.51 223.994 293.791C224.451 294.072 224.806 294.467 225.059 294.976C225.312 295.484 225.438 296.078 225.438 296.757C225.438 297.433 225.312 298.024 225.059 298.53C224.806 299.036 224.451 299.429 223.994 299.71C223.536 299.991 223.001 300.132 222.387 300.132ZM222.391 299.062C222.789 299.062 223.119 298.957 223.38 298.747C223.641 298.537 223.835 298.257 223.96 297.908C224.087 297.558 224.151 297.173 224.151 296.753C224.151 296.335 224.087 295.952 223.96 295.602C223.835 295.25 223.641 294.967 223.38 294.754C223.119 294.541 222.789 294.435 222.391 294.435C221.991 294.435 221.658 294.541 221.394 294.754C221.133 294.967 220.938 295.25 220.81 295.602C220.685 295.952 220.623 296.335 220.623 296.753C220.623 297.173 220.685 297.558 220.81 297.908C220.938 298.257 221.133 298.537 221.394 298.747C221.658 298.957 221.991 299.062 222.391 299.062ZM226.86 300V293.455H228.092V294.494H228.16C228.279 294.142 228.49 293.865 228.791 293.663C229.095 293.459 229.439 293.357 229.822 293.357C229.902 293.357 229.995 293.359 230.103 293.365C230.214 293.371 230.301 293.378 230.363 293.386V294.605C230.312 294.591 230.221 294.575 230.091 294.558C229.96 294.538 229.829 294.528 229.699 294.528C229.397 294.528 229.129 294.592 228.893 294.72C228.66 294.845 228.475 295.02 228.339 295.244C228.203 295.466 228.135 295.719 228.135 296.003V300H226.86ZM234.053 300.132C233.408 300.132 232.852 299.994 232.386 299.719C231.923 299.44 231.565 299.05 231.312 298.547C231.062 298.041 230.938 297.449 230.938 296.77C230.938 296.099 231.062 295.509 231.312 294.997C231.565 294.486 231.918 294.087 232.369 293.8C232.824 293.513 233.355 293.369 233.963 293.369C234.332 293.369 234.69 293.43 235.037 293.553C235.384 293.675 235.695 293.866 235.97 294.128C236.246 294.389 236.463 294.729 236.622 295.146C236.781 295.561 236.861 296.065 236.861 296.659V297.111H231.658V296.156H235.612C235.612 295.821 235.544 295.524 235.408 295.266C235.271 295.004 235.08 294.798 234.832 294.648C234.588 294.497 234.301 294.422 233.972 294.422C233.614 294.422 233.301 294.51 233.034 294.686C232.77 294.859 232.565 295.087 232.42 295.368C232.278 295.646 232.207 295.949 232.207 296.276V297.021C232.207 297.459 232.284 297.831 232.438 298.138C232.594 298.445 232.811 298.679 233.089 298.841C233.368 299 233.693 299.08 234.065 299.08C234.307 299.08 234.527 299.045 234.726 298.977C234.925 298.906 235.097 298.801 235.241 298.662C235.386 298.523 235.497 298.351 235.574 298.146L236.78 298.364C236.683 298.719 236.51 299.03 236.26 299.297C236.013 299.561 235.702 299.767 235.327 299.915C234.955 300.06 234.53 300.132 234.053 300.132ZM238.275 300V293.455H239.498V294.52H239.578C239.715 294.159 239.938 293.878 240.248 293.676C240.557 293.472 240.928 293.369 241.36 293.369C241.797 293.369 242.164 293.472 242.459 293.676C242.757 293.881 242.978 294.162 243.12 294.52H243.188C243.344 294.17 243.593 293.892 243.934 293.685C244.275 293.474 244.681 293.369 245.152 293.369C245.746 293.369 246.23 293.555 246.605 293.928C246.983 294.3 247.172 294.861 247.172 295.611V300H245.898V295.73C245.898 295.287 245.777 294.966 245.536 294.767C245.294 294.568 245.006 294.469 244.671 294.469C244.256 294.469 243.934 294.597 243.703 294.852C243.473 295.105 243.358 295.43 243.358 295.828V300H242.088V295.649C242.088 295.294 241.978 295.009 241.756 294.793C241.534 294.577 241.246 294.469 240.891 294.469C240.65 294.469 240.426 294.533 240.222 294.661C240.02 294.786 239.857 294.96 239.732 295.185C239.61 295.409 239.549 295.669 239.549 295.964V300H238.275ZM253.475 291.273V300H252.158V291.273H253.475ZM255.29 302.455V293.455H256.534V294.516H256.641C256.715 294.379 256.821 294.222 256.961 294.043C257.1 293.864 257.293 293.707 257.54 293.574C257.787 293.438 258.114 293.369 258.52 293.369C259.049 293.369 259.52 293.503 259.935 293.77C260.35 294.037 260.675 294.422 260.911 294.925C261.15 295.428 261.269 296.033 261.269 296.74C261.269 297.447 261.151 298.054 260.915 298.56C260.679 299.062 260.355 299.45 259.944 299.723C259.532 299.993 259.061 300.128 258.533 300.128C258.135 300.128 257.81 300.061 257.557 299.928C257.307 299.794 257.111 299.638 256.969 299.459C256.827 299.28 256.718 299.121 256.641 298.982H256.564V302.455H255.29ZM256.539 296.727C256.539 297.187 256.605 297.591 256.739 297.938C256.873 298.284 257.066 298.555 257.319 298.751C257.571 298.945 257.881 299.041 258.248 299.041C258.628 299.041 258.946 298.94 259.202 298.739C259.458 298.534 259.651 298.257 259.782 297.908C259.915 297.558 259.982 297.165 259.982 296.727C259.982 296.295 259.917 295.908 259.786 295.564C259.658 295.22 259.465 294.949 259.206 294.75C258.951 294.551 258.631 294.452 258.248 294.452C257.878 294.452 257.566 294.547 257.31 294.737C257.057 294.928 256.865 295.193 256.735 295.534C256.604 295.875 256.539 296.273 256.539 296.727ZM267.601 295.053L266.446 295.257C266.398 295.109 266.321 294.969 266.216 294.835C266.114 294.702 265.975 294.592 265.799 294.507C265.623 294.422 265.402 294.379 265.138 294.379C264.777 294.379 264.476 294.46 264.235 294.622C263.993 294.781 263.873 294.987 263.873 295.24C263.873 295.459 263.953 295.635 264.115 295.768C264.277 295.902 264.539 296.011 264.9 296.097L265.939 296.335C266.542 296.474 266.99 296.689 267.286 296.979C267.581 297.268 267.729 297.645 267.729 298.108C267.729 298.5 267.615 298.849 267.388 299.156C267.164 299.46 266.85 299.699 266.446 299.872C266.046 300.045 265.581 300.132 265.053 300.132C264.32 300.132 263.722 299.976 263.259 299.663C262.796 299.348 262.512 298.901 262.407 298.321L263.638 298.134C263.715 298.455 263.873 298.697 264.111 298.862C264.35 299.024 264.661 299.105 265.044 299.105C265.462 299.105 265.796 299.018 266.046 298.845C266.296 298.669 266.421 298.455 266.421 298.202C266.421 297.997 266.344 297.825 266.191 297.686C266.04 297.547 265.809 297.442 265.496 297.371L264.388 297.128C263.777 296.989 263.326 296.767 263.033 296.463C262.743 296.159 262.598 295.774 262.598 295.308C262.598 294.922 262.706 294.584 262.922 294.294C263.138 294.004 263.436 293.778 263.817 293.616C264.198 293.452 264.634 293.369 265.125 293.369C265.833 293.369 266.39 293.523 266.796 293.83C267.202 294.134 267.471 294.541 267.601 295.053ZM273.276 297.286V293.455H274.555V300H273.302V298.866H273.234C273.083 299.216 272.842 299.507 272.509 299.74C272.18 299.97 271.769 300.085 271.278 300.085C270.857 300.085 270.485 299.993 270.161 299.808C269.84 299.621 269.587 299.344 269.403 298.977C269.221 298.611 269.13 298.158 269.13 297.618V293.455H270.404V297.464C270.404 297.911 270.528 298.266 270.775 298.53C271.022 298.794 271.343 298.926 271.738 298.926C271.977 298.926 272.214 298.866 272.45 298.747C272.688 298.628 272.886 298.447 273.042 298.206C273.201 297.964 273.279 297.658 273.276 297.286ZM276.267 300V293.455H277.49V294.52H277.571C277.707 294.159 277.93 293.878 278.24 293.676C278.549 293.472 278.92 293.369 279.352 293.369C279.789 293.369 280.156 293.472 280.451 293.676C280.75 293.881 280.97 294.162 281.112 294.52H281.18C281.336 294.17 281.585 293.892 281.926 293.685C282.267 293.474 282.673 293.369 283.145 293.369C283.738 293.369 284.223 293.555 284.598 293.928C284.975 294.3 285.164 294.861 285.164 295.611V300H283.89V295.73C283.89 295.287 283.77 294.966 283.528 294.767C283.287 294.568 282.998 294.469 282.663 294.469C282.248 294.469 281.926 294.597 281.696 294.852C281.466 295.105 281.35 295.43 281.35 295.828V300H280.081V295.649C280.081 295.294 279.97 295.009 279.748 294.793C279.527 294.577 279.238 294.469 278.883 294.469C278.642 294.469 278.419 294.533 278.214 294.661C278.012 294.786 277.849 294.96 277.724 295.185C277.602 295.409 277.541 295.669 277.541 295.964V300H276.267Z" fill="#E7E7E7"/>
<path d="M253.959 111V102.273H255.276V109.866H259.23V111H253.959ZM263.387 111.132C262.773 111.132 262.238 110.991 261.781 110.71C261.323 110.429 260.968 110.036 260.715 109.53C260.462 109.024 260.336 108.433 260.336 107.757C260.336 107.078 260.462 106.484 260.715 105.976C260.968 105.467 261.323 105.072 261.781 104.791C262.238 104.51 262.773 104.369 263.387 104.369C264.001 104.369 264.536 104.51 264.994 104.791C265.451 105.072 265.806 105.467 266.059 105.976C266.312 106.484 266.438 107.078 266.438 107.757C266.438 108.433 266.312 109.024 266.059 109.53C265.806 110.036 265.451 110.429 264.994 110.71C264.536 110.991 264.001 111.132 263.387 111.132ZM263.391 110.062C263.789 110.062 264.119 109.957 264.38 109.747C264.641 109.537 264.835 109.257 264.96 108.908C265.087 108.558 265.151 108.173 265.151 107.753C265.151 107.335 265.087 106.952 264.96 106.602C264.835 106.25 264.641 105.967 264.38 105.754C264.119 105.541 263.789 105.435 263.391 105.435C262.991 105.435 262.658 105.541 262.394 105.754C262.133 105.967 261.938 106.25 261.81 106.602C261.685 106.952 261.623 107.335 261.623 107.753C261.623 108.173 261.685 108.558 261.81 108.908C261.938 109.257 262.133 109.537 262.394 109.747C262.658 109.957 262.991 110.062 263.391 110.062ZM267.86 111V104.455H269.092V105.494H269.16C269.279 105.142 269.49 104.865 269.791 104.663C270.095 104.459 270.439 104.357 270.822 104.357C270.902 104.357 270.995 104.359 271.103 104.365C271.214 104.371 271.301 104.378 271.363 104.386V105.605C271.312 105.591 271.221 105.575 271.091 105.558C270.96 105.538 270.829 105.528 270.699 105.528C270.397 105.528 270.129 105.592 269.893 105.72C269.66 105.845 269.475 106.02 269.339 106.244C269.203 106.466 269.135 106.719 269.135 107.003V111H267.86ZM275.053 111.132C274.408 111.132 273.852 110.994 273.386 110.719C272.923 110.44 272.565 110.05 272.312 109.547C272.062 109.041 271.938 108.449 271.938 107.77C271.938 107.099 272.062 106.509 272.312 105.997C272.565 105.486 272.918 105.087 273.369 104.8C273.824 104.513 274.355 104.369 274.963 104.369C275.332 104.369 275.69 104.43 276.037 104.553C276.384 104.675 276.695 104.866 276.97 105.128C277.246 105.389 277.463 105.729 277.622 106.146C277.781 106.561 277.861 107.065 277.861 107.659V108.111H272.658V107.156H276.612C276.612 106.821 276.544 106.524 276.408 106.266C276.271 106.004 276.08 105.798 275.832 105.648C275.588 105.497 275.301 105.422 274.972 105.422C274.614 105.422 274.301 105.51 274.034 105.686C273.77 105.859 273.565 106.087 273.42 106.368C273.278 106.646 273.207 106.949 273.207 107.276V108.021C273.207 108.459 273.284 108.831 273.438 109.138C273.594 109.445 273.811 109.679 274.089 109.841C274.368 110 274.693 110.08 275.065 110.08C275.307 110.08 275.527 110.045 275.726 109.977C275.925 109.906 276.097 109.801 276.241 109.662C276.386 109.523 276.497 109.351 276.574 109.146L277.78 109.364C277.683 109.719 277.51 110.03 277.26 110.297C277.013 110.561 276.702 110.767 276.327 110.915C275.955 111.06 275.53 111.132 275.053 111.132ZM279.275 111V104.455H280.498V105.52H280.578C280.715 105.159 280.938 104.878 281.248 104.676C281.557 104.472 281.928 104.369 282.36 104.369C282.797 104.369 283.164 104.472 283.459 104.676C283.757 104.881 283.978 105.162 284.12 105.52H284.188C284.344 105.17 284.593 104.892 284.934 104.685C285.275 104.474 285.681 104.369 286.152 104.369C286.746 104.369 287.23 104.555 287.605 104.928C287.983 105.3 288.172 105.861 288.172 106.611V111H286.898V106.73C286.898 106.287 286.777 105.966 286.536 105.767C286.294 105.568 286.006 105.469 285.671 105.469C285.256 105.469 284.934 105.597 284.703 105.852C284.473 106.105 284.358 106.43 284.358 106.828V111H283.088V106.649C283.088 106.294 282.978 106.009 282.756 105.793C282.534 105.577 282.246 105.469 281.891 105.469C281.65 105.469 281.426 105.533 281.222 105.661C281.02 105.786 280.857 105.96 280.732 106.185C280.61 106.409 280.549 106.669 280.549 106.964V111H279.275ZM294.475 102.273V111H293.158V102.273H294.475ZM296.29 113.455V104.455H297.534V105.516H297.641C297.715 105.379 297.821 105.222 297.961 105.043C298.1 104.864 298.293 104.707 298.54 104.574C298.787 104.438 299.114 104.369 299.52 104.369C300.049 104.369 300.52 104.503 300.935 104.77C301.35 105.037 301.675 105.422 301.911 105.925C302.15 106.428 302.269 107.033 302.269 107.74C302.269 108.447 302.151 109.054 301.915 109.56C301.679 110.062 301.355 110.45 300.944 110.723C300.532 110.993 300.061 111.128 299.533 111.128C299.135 111.128 298.81 111.061 298.557 110.928C298.307 110.794 298.111 110.638 297.969 110.459C297.827 110.28 297.718 110.121 297.641 109.982H297.564V113.455H296.29ZM297.539 107.727C297.539 108.187 297.605 108.591 297.739 108.938C297.873 109.284 298.066 109.555 298.319 109.751C298.571 109.945 298.881 110.041 299.248 110.041C299.628 110.041 299.946 109.94 300.202 109.739C300.458 109.534 300.651 109.257 300.782 108.908C300.915 108.558 300.982 108.165 300.982 107.727C300.982 107.295 300.917 106.908 300.786 106.564C300.658 106.22 300.465 105.949 300.206 105.75C299.951 105.551 299.631 105.452 299.248 105.452C298.878 105.452 298.566 105.547 298.31 105.737C298.057 105.928 297.865 106.193 297.735 106.534C297.604 106.875 297.539 107.273 297.539 107.727ZM308.601 106.053L307.446 106.257C307.398 106.109 307.321 105.969 307.216 105.835C307.114 105.702 306.975 105.592 306.799 105.507C306.623 105.422 306.402 105.379 306.138 105.379C305.777 105.379 305.476 105.46 305.235 105.622C304.993 105.781 304.873 105.987 304.873 106.24C304.873 106.459 304.953 106.635 305.115 106.768C305.277 106.902 305.539 107.011 305.9 107.097L306.939 107.335C307.542 107.474 307.99 107.689 308.286 107.979C308.581 108.268 308.729 108.645 308.729 109.108C308.729 109.5 308.615 109.849 308.388 110.156C308.164 110.46 307.85 110.699 307.446 110.872C307.046 111.045 306.581 111.132 306.053 111.132C305.32 111.132 304.722 110.976 304.259 110.663C303.796 110.348 303.512 109.901 303.407 109.321L304.638 109.134C304.715 109.455 304.873 109.697 305.111 109.862C305.35 110.024 305.661 110.105 306.044 110.105C306.462 110.105 306.796 110.018 307.046 109.845C307.296 109.669 307.421 109.455 307.421 109.202C307.421 108.997 307.344 108.825 307.191 108.686C307.04 108.547 306.809 108.442 306.496 108.371L305.388 108.128C304.777 107.989 304.326 107.767 304.033 107.463C303.743 107.159 303.598 106.774 303.598 106.308C303.598 105.922 303.706 105.584 303.922 105.294C304.138 105.004 304.436 104.778 304.817 104.616C305.198 104.452 305.634 104.369 306.125 104.369C306.833 104.369 307.39 104.523 307.796 104.83C308.202 105.134 308.471 105.541 308.601 106.053ZM314.276 108.286V104.455H315.555V111H314.302V109.866H314.234C314.083 110.216 313.842 110.507 313.509 110.74C313.18 110.97 312.769 111.085 312.278 111.085C311.857 111.085 311.485 110.993 311.161 110.808C310.84 110.621 310.587 110.344 310.403 109.977C310.221 109.611 310.13 109.158 310.13 108.618V104.455H311.404V108.464C311.404 108.911 311.528 109.266 311.775 109.53C312.022 109.794 312.343 109.926 312.738 109.926C312.977 109.926 313.214 109.866 313.45 109.747C313.688 109.628 313.886 109.447 314.042 109.206C314.201 108.964 314.279 108.658 314.276 108.286ZM317.267 111V104.455H318.49V105.52H318.571C318.707 105.159 318.93 104.878 319.24 104.676C319.549 104.472 319.92 104.369 320.352 104.369C320.789 104.369 321.156 104.472 321.451 104.676C321.75 104.881 321.97 105.162 322.112 105.52H322.18C322.336 105.17 322.585 104.892 322.926 104.685C323.267 104.474 323.673 104.369 324.145 104.369C324.738 104.369 325.223 104.555 325.598 104.928C325.975 105.3 326.164 105.861 326.164 106.611V111H324.89V106.73C324.89 106.287 324.77 105.966 324.528 105.767C324.287 105.568 323.998 105.469 323.663 105.469C323.248 105.469 322.926 105.597 322.696 105.852C322.466 106.105 322.35 106.43 322.35 106.828V111H321.081V106.649C321.081 106.294 320.97 106.009 320.748 105.793C320.527 105.577 320.238 105.469 319.883 105.469C319.642 105.469 319.419 105.533 319.214 105.661C319.012 105.786 318.849 105.96 318.724 106.185C318.602 106.409 318.541 106.669 318.541 106.964V111H317.267Z" fill="#E7E7E7"/>
<defs>
<filter id="filter0_d_1012_12052" x="130" y="19" width="76" height="76" filterUnits="userSpaceOnUse" color-interpolation-filters="sRGB">
<feFlood flood-opacity="0" result="BackgroundImageFix"/>
<feColorMatrix in="SourceAlpha" type="matrix" values="0 0 0 0 0 0 0 0 0 0 0 0 0 0 0 0 0 0 127 0" result="hardAlpha"/>
<feOffset dy="4"/>
<feGaussianBlur stdDeviation="4"/>
<feComposite in2="hardAlpha" operator="out"/>
<feColorMatrix type="matrix" values="0 0 0 0 0.952941 0 0 0 0 0.572549 0 0 0 0 0 0 0 0 0.3 0"/>
<feBlend mode="normal" in2="BackgroundImageFix" result="effect1_dropShadow_1012_12052"/>
<feBlend mode="normal" in="SourceGraphic" in2="effect1_dropShadow_1012_12052" result="shape"/>
</filter>
<filter id="filter1_d_1012_12052" x="134.766" y="25.0078" width="62.1354" height="63.916" filterUnits="userSpaceOnUse" color-interpolation-filters="sRGB">
<feFlood flood-opacity="0" result="BackgroundImageFix"/>
<feColorMatrix in="SourceAlpha" type="matrix" values="0 0 0 0 0 0 0 0 0 0 0 0 0 0 0 0 0 0 127 0" result="hardAlpha"/>
<feOffset dy="4"/>
<feGaussianBlur stdDeviation="8"/>
<feComposite in2="hardAlpha" operator="out"/>
<feColorMatrix type="matrix" values="0 0 0 0 0.952941 0 0 0 0 0.572549 0 0 0 0 0 0 0 0 0.8 0"/>
<feBlend mode="normal" in2="BackgroundImageFix" result="effect1_dropShadow_1012_12052"/>
<feBlend mode="normal" in="SourceGraphic" in2="effect1_dropShadow_1012_12052" result="shape"/>
</filter>
<filter id="filter2_d_1012_12052" x="142.858" y="29.8867" width="53.3408" height="56.4165" filterUnits="userSpaceOnUse" color-interpolation-filters="sRGB">
<feFlood flood-opacity="0" result="BackgroundImageFix"/>
<feColorMatrix in="SourceAlpha" type="matrix" values="0 0 0 0 0 0 0 0 0 0 0 0 0 0 0 0 0 0 127 0" result="hardAlpha"/>
<feOffset dy="4"/>
<feGaussianBlur stdDeviation="8"/>
<feComposite in2="hardAlpha" operator="out"/>
<feColorMatrix type="matrix" values="0 0 0 0 0.952941 0 0 0 0 0.572549 0 0 0 0 0 0 0 0 0.8 0"/>
<feBlend mode="normal" in2="BackgroundImageFix" result="effect1_dropShadow_1012_12052"/>
<feBlend mode="normal" in="SourceGraphic" in2="effect1_dropShadow_1012_12052" result="shape"/>
</filter>
<filter id="filter3_d_1012_12052" x="5" y="179" width="141" height="63" filterUnits="userSpaceOnUse" color-interpolation-filters="sRGB">
<feFlood flood-opacity="0" result="BackgroundImageFix"/>
<feColorMatrix in="SourceAlpha" type="matrix" values="0 0 0 0 0 0 0 0 0 0 0 0 0 0 0 0 0 0 127 0" result="hardAlpha"/>
<feOffset dy="4"/>
<feGaussianBlur stdDeviation="7.5"/>
<feComposite in2="hardAlpha" operator="out"/>
<feColorMatrix type="matrix" values="0 0 0 0 0.952941 0 0 0 0 0.572549 0 0 0 0 0 0 0 0 0.1 0"/>
<feBlend mode="normal" in2="BackgroundImageFix" result="effect1_dropShadow_1012_12052"/>
<feBlend mode="normal" in="SourceGraphic" in2="effect1_dropShadow_1012_12052" result="shape"/>
</filter>
<filter id="filter4_d_1012_12052" x="193" y="179" width="98" height="63" filterUnits="userSpaceOnUse" color-interpolation-filters="sRGB">
<feFlood flood-opacity="0" result="BackgroundImageFix"/>
<feColorMatrix in="SourceAlpha" type="matrix" values="0 0 0 0 0 0 0 0 0 0 0 0 0 0 0 0 0 0 127 0" result="hardAlpha"/>
<feOffset dy="4"/>
<feGaussianBlur stdDeviation="7.5"/>
<feComposite in2="hardAlpha" operator="out"/>
<feColorMatrix type="matrix" values="0 0 0 0 0.952941 0 0 0 0 0.572549 0 0 0 0 0 0 0 0 0.1 0"/>
<feBlend mode="normal" in2="BackgroundImageFix" result="effect1_dropShadow_1012_12052"/>
<feBlend mode="normal" in="SourceGraphic" in2="effect1_dropShadow_1012_12052" result="shape"/>
</filter>
<filter id="filter5_d_1012_12052" x="90" y="226" width="156" height="63" filterUnits="userSpaceOnUse" color-interpolation-filters="sRGB">
<feFlood flood-opacity="0" result="BackgroundImageFix"/>
<feColorMatrix in="SourceAlpha" type="matrix" values="0 0 0 0 0 0 0 0 0 0 0 0 0 0 0 0 0 0 127 0" result="hardAlpha"/>
<feOffset dy="4"/>
<feGaussianBlur stdDeviation="7.5"/>
<feComposite in2="hardAlpha" operator="out"/>
<feColorMatrix type="matrix" values="0 0 0 0 0.952941 0 0 0 0 0.572549 0 0 0 0 0 0 0 0 0.1 0"/>
<feBlend mode="normal" in2="BackgroundImageFix" result="effect1_dropShadow_1012_12052"/>
<feBlend mode="normal" in="SourceGraphic" in2="effect1_dropShadow_1012_12052" result="shape"/>
</filter>
<linearGradient id="paint0_linear_1012_12052" x1="102.001" y1="242.888" x2="159.868" y2="78.5249" gradientUnits="userSpaceOnUse">
<stop stop-color="white"/>
<stop offset="1" stop-color="#F39200"/>
</linearGradient>
<linearGradient id="paint1_linear_1012_12052" x1="230" y1="222" x2="178.474" y2="70.9504" gradientUnits="userSpaceOnUse">
<stop stop-color="white"/>
<stop offset="1" stop-color="#F39200"/>
</linearGradient>
<linearGradient id="paint2_linear_1012_12052" x1="164.5" y1="262.417" x2="155.931" y2="73.5072" gradientUnits="userSpaceOnUse">
<stop stop-color="white"/>
<stop offset="1" stop-color="#F39200"/>
</linearGradient>
</defs>
</svg>
