<svg width="1112" height="278" viewBox="0 0 1112 278" fill="none" xmlns="http://www.w3.org/2000/svg">
<path d="M500 80L387 162" stroke="url(#paint0_linear_992_10073)"/>
<path d="M571 84L673 162" stroke="url(#paint1_linear_992_10073)"/>
<path d="M536 77L536 247" stroke="url(#paint2_linear_992_10073)"/>
<g filter="url(#filter0_d_992_10073)">
<rect x="484.824" y="8" width="100" height="100" rx="50" fill="white" shape-rendering="crispEdges"/>
<path d="M531.805 57.9783H539.315V59.6505H536.379V67.7236H534.72V59.6505H531.805V57.9783Z" fill="black"/>
<path d="M548.659 63.0286L545.325 67.6801L541.964 63.0119V67.7237H540.305V57.8276L545.325 64.8215L550.318 57.8276V67.7237H548.659V63.0286Z" fill="#F39200"/>
<path d="M558.845 64.9255C558.845 65.3301 558.746 65.7147 558.55 66.0783C558.343 66.4536 558.051 66.7804 557.676 67.0568C557.341 67.3048 556.96 67.4925 556.536 67.6198C556.101 67.7581 555.652 67.8276 555.189 67.8276C554.724 67.8276 554.279 67.7581 553.855 67.6198C553.42 67.4925 553.034 67.3048 552.699 67.0568C552.225 66.7108 551.899 66.2961 551.721 65.8135L553.202 64.969C553.213 65.1165 553.263 65.2556 553.353 65.3846C553.44 65.5119 553.552 65.6208 553.691 65.7096C553.89 65.8487 554.122 65.9568 554.388 66.0347C554.645 66.1135 554.912 66.152 555.189 66.152C555.464 66.152 555.735 66.1135 556.003 66.0347C556.26 65.9568 556.487 65.8487 556.684 65.7096C557.01 65.4533 557.173 65.1919 557.173 64.9255C557.173 64.747 557.108 64.5736 556.979 64.406C556.851 64.2385 556.679 64.096 556.463 63.9771C556.255 63.8589 555.79 63.7551 555.068 63.6654C554.259 63.5766 553.618 63.4174 553.145 63.1895C552.669 62.9734 552.284 62.6425 551.989 62.1976C551.691 61.7536 551.543 61.2752 551.543 60.7633C551.543 60.3569 551.647 59.9657 551.855 59.5904C552.053 59.2268 552.335 58.9059 552.699 58.6286C553.034 58.3831 553.42 58.1912 553.855 58.0522C554.279 57.9231 554.724 57.8578 555.189 57.8578C555.652 57.8578 556.101 57.9231 556.536 58.0522C556.96 58.1912 557.341 58.3831 557.676 58.6286C558.14 58.9637 558.471 59.3843 558.668 59.8886L557.173 60.7465C557.161 60.501 557.043 60.279 556.818 60.0796C556.581 59.892 556.309 59.7495 556.003 59.6507C555.717 59.5728 555.445 59.5334 555.189 59.5334C554.912 59.5334 554.645 59.5728 554.388 59.6507C554.122 59.7294 553.89 59.8375 553.691 59.9757C553.364 60.2237 553.202 60.4868 553.202 60.7633C553.202 60.9509 553.276 61.1336 553.426 61.3095C553.565 61.4972 553.752 61.6405 553.989 61.7385C554.235 61.8482 554.674 61.9421 555.306 62.02C556.184 62.1297 556.835 62.2931 557.26 62.5093C557.754 62.7866 558.145 63.1376 558.433 63.5615C558.708 63.9863 558.845 64.4412 558.845 64.9255Z" fill="#F39200"/>
<g filter="url(#filter1_d_992_10073)">
<mask id="mask0_992_10073" style="mask-type:luminance" maskUnits="userSpaceOnUse" x="510" y="35" width="43" height="46">
<path d="M510.805 35.8276H552.804V80.1724H510.805V35.8276Z" fill="white"/>
</mask>
<g mask="url(#mask0_992_10073)">
<mask id="mask1_992_10073" style="mask-type:luminance" maskUnits="userSpaceOnUse" x="505" y="29" width="50" height="55">
<path d="M518.587 29.9012L554.021 40.8816L540.864 83.341L505.43 72.3606L518.587 29.9012Z" fill="white"/>
</mask>
<g mask="url(#mask1_992_10073)">
<mask id="mask2_992_10073" style="mask-type:luminance" maskUnits="userSpaceOnUse" x="505" y="29" width="50" height="55">
<path d="M518.587 29.9012L554.021 40.8816L540.864 83.341L505.43 72.3606L518.587 29.9012Z" fill="white"/>
</mask>
<g mask="url(#mask2_992_10073)">
<path d="M510.942 58.0512C510.924 56.165 511.145 54.2495 511.63 52.3457L515.674 52.4015C515.675 52.3949 515.677 52.3882 515.679 52.3824C516.048 51.1923 516.527 50.0672 517.101 49.0137L514.438 45.8391C515.456 44.2385 516.664 42.7935 518.021 41.5277L521.397 43.7638C522.438 42.8893 523.569 42.1315 524.769 41.5077L524.248 37.4228C525.922 36.6841 527.69 36.1486 529.511 35.838L530.901 38.9985C532.584 38.4846 534.341 38.184 536.13 38.1091L537.191 35.878C538.078 36.0379 538.964 36.2536 539.846 36.5267C540.727 36.7999 541.579 37.1239 542.401 37.492L542.203 38.7478C542.54 38.8344 542.876 38.9285 543.213 39.0326C547.015 40.211 550.242 42.3721 552.701 45.1495C550.648 43.3082 548.175 41.8683 545.368 40.9989C534.952 37.7709 523.891 43.598 520.663 54.0147C517.435 64.4305 523.262 75.4917 533.679 78.7196C536.485 79.5891 539.34 79.7998 542.075 79.4417C538.476 80.3419 534.592 80.2995 530.79 79.121C528.729 78.4823 526.836 77.5537 525.143 76.3953L523.718 77.9884C521.886 77.1257 520.215 76.033 518.728 74.758L520.202 71.6467C519.545 70.7672 518.955 69.8412 518.444 68.8735L514.533 69.9536C513.467 68.3063 512.619 66.5216 512.015 64.6487L515.46 62.5009C515.184 61.4541 515.001 60.3789 514.913 59.2863L510.942 58.0512Z" fill="#F39200"/>
</g>
</g>
</g>
</g>
<g filter="url(#filter2_d_992_10073)">
<mask id="mask3_992_10073" style="mask-type:luminance" maskUnits="userSpaceOnUse" x="522" y="42" width="30" height="35">
<path d="M522.105 42.4368H551.74V76.5483H522.105V42.4368Z" fill="white"/>
</mask>
<g mask="url(#mask3_992_10073)">
<mask id="mask4_992_10073" style="mask-type:luminance" maskUnits="userSpaceOnUse" x="505" y="29" width="50" height="55">
<path d="M518.591 29.9011L554.025 40.8815L540.868 83.3409L505.434 72.3605L518.591 29.9011Z" fill="white"/>
</mask>
<g mask="url(#mask4_992_10073)">
<mask id="mask5_992_10073" style="mask-type:luminance" maskUnits="userSpaceOnUse" x="505" y="29" width="50" height="55">
<path d="M518.591 29.9011L554.025 40.8815L540.868 83.3409L505.434 72.3605L518.591 29.9011Z" fill="white"/>
</mask>
<g mask="url(#mask5_992_10073)">
<path d="M543.168 75.9314C540.963 76.2196 538.663 76.0497 536.401 75.3493C528.005 72.7468 523.308 63.8317 525.91 55.4363C528.511 47.04 537.427 42.3438 545.823 44.9455C548.085 45.6467 550.078 46.8068 551.733 48.2917C549.751 46.0523 547.15 44.3109 544.085 43.3615C535.162 40.5966 525.688 45.5876 522.923 54.5102C520.158 63.4328 525.149 72.9076 534.072 75.6724C537.137 76.6227 540.266 76.6568 543.168 75.9314Z" fill="black"/>
</g>
</g>
</g>
</g>
</g>
<g filter="url(#filter3_d_992_10073)">
<rect width="140" height="40" transform="translate(341 156)" fill="white"/>
<path d="M367.943 173.648H366.17C366.102 173.269 365.975 172.936 365.79 172.648C365.604 172.36 365.377 172.116 365.108 171.915C364.839 171.714 364.538 171.562 364.205 171.46C363.875 171.358 363.525 171.307 363.153 171.307C362.483 171.307 361.883 171.475 361.352 171.812C360.826 172.15 360.409 172.644 360.102 173.295C359.799 173.947 359.648 174.742 359.648 175.682C359.648 176.629 359.799 177.428 360.102 178.08C360.409 178.731 360.828 179.223 361.358 179.557C361.888 179.89 362.485 180.057 363.148 180.057C363.515 180.057 363.864 180.008 364.193 179.909C364.527 179.807 364.828 179.657 365.097 179.46C365.366 179.263 365.593 179.023 365.778 178.739C365.968 178.451 366.098 178.121 366.17 177.75L367.943 177.756C367.848 178.328 367.665 178.854 367.392 179.335C367.123 179.812 366.777 180.225 366.352 180.574C365.932 180.919 365.451 181.186 364.909 181.375C364.367 181.564 363.777 181.659 363.136 181.659C362.129 181.659 361.231 181.42 360.443 180.943C359.655 180.462 359.034 179.775 358.58 178.881C358.129 177.987 357.903 176.92 357.903 175.682C357.903 174.439 358.131 173.373 358.585 172.483C359.04 171.589 359.661 170.903 360.449 170.426C361.237 169.945 362.133 169.705 363.136 169.705C363.754 169.705 364.33 169.794 364.864 169.972C365.402 170.146 365.884 170.403 366.312 170.744C366.741 171.081 367.095 171.494 367.375 171.983C367.655 172.468 367.845 173.023 367.943 173.648ZM373.584 181.676C372.766 181.676 372.052 181.489 371.442 181.114C370.832 180.739 370.358 180.214 370.021 179.54C369.684 178.866 369.516 178.078 369.516 177.176C369.516 176.271 369.684 175.479 370.021 174.801C370.358 174.123 370.832 173.597 371.442 173.222C372.052 172.847 372.766 172.659 373.584 172.659C374.402 172.659 375.116 172.847 375.726 173.222C376.336 173.597 376.809 174.123 377.146 174.801C377.483 175.479 377.652 176.271 377.652 177.176C377.652 178.078 377.483 178.866 377.146 179.54C376.809 180.214 376.336 180.739 375.726 181.114C375.116 181.489 374.402 181.676 373.584 181.676ZM373.589 180.25C374.12 180.25 374.559 180.11 374.908 179.83C375.256 179.549 375.514 179.176 375.68 178.71C375.851 178.244 375.936 177.731 375.936 177.17C375.936 176.614 375.851 176.102 375.68 175.636C375.514 175.167 375.256 174.79 374.908 174.506C374.559 174.222 374.12 174.08 373.589 174.08C373.055 174.08 372.612 174.222 372.26 174.506C371.911 174.79 371.652 175.167 371.482 175.636C371.315 176.102 371.232 176.614 371.232 177.17C371.232 177.731 371.315 178.244 371.482 178.71C371.652 179.176 371.911 179.549 372.26 179.83C372.612 180.11 373.055 180.25 373.589 180.25ZM386.088 174.903L384.548 175.176C384.484 174.979 384.382 174.792 384.241 174.614C384.105 174.436 383.92 174.29 383.685 174.176C383.45 174.062 383.156 174.006 382.804 174.006C382.323 174.006 381.921 174.114 381.599 174.33C381.277 174.542 381.116 174.816 381.116 175.153C381.116 175.445 381.224 175.68 381.44 175.858C381.656 176.036 382.005 176.182 382.486 176.295L383.872 176.614C384.675 176.799 385.274 177.085 385.668 177.472C386.062 177.858 386.259 178.36 386.259 178.977C386.259 179.5 386.107 179.966 385.804 180.375C385.505 180.78 385.086 181.098 384.548 181.33C384.014 181.561 383.395 181.676 382.69 181.676C381.713 181.676 380.916 181.468 380.298 181.051C379.681 180.631 379.302 180.034 379.162 179.261L380.804 179.011C380.906 179.439 381.116 179.763 381.435 179.983C381.753 180.199 382.168 180.307 382.679 180.307C383.236 180.307 383.681 180.191 384.014 179.96C384.348 179.725 384.514 179.439 384.514 179.102C384.514 178.83 384.412 178.6 384.207 178.415C384.007 178.229 383.698 178.089 383.281 177.994L381.804 177.67C380.99 177.485 380.387 177.189 379.997 176.784C379.611 176.379 379.418 175.866 379.418 175.244C379.418 174.729 379.562 174.278 379.849 173.892C380.137 173.506 380.535 173.205 381.043 172.989C381.55 172.769 382.132 172.659 382.787 172.659C383.73 172.659 384.473 172.864 385.014 173.273C385.556 173.678 385.914 174.222 386.088 174.903ZM392.2 172.773V174.136H387.433V172.773H392.2ZM388.712 170.682H390.411V178.938C390.411 179.267 390.46 179.515 390.558 179.682C390.657 179.845 390.784 179.956 390.939 180.017C391.098 180.074 391.27 180.102 391.456 180.102C391.592 180.102 391.712 180.093 391.814 180.074C391.916 180.055 391.996 180.04 392.053 180.028L392.359 181.432C392.261 181.47 392.121 181.508 391.939 181.545C391.757 181.587 391.53 181.61 391.257 181.614C390.81 181.621 390.393 181.542 390.007 181.375C389.621 181.208 389.308 180.951 389.07 180.602C388.831 180.254 388.712 179.816 388.712 179.29V170.682ZM398.45 181.5V169.864H405.746V171.375H400.206V174.92H405.365V176.426H400.206V179.989H405.814V181.5H398.45ZM412.108 172.773V174.136H407.176V172.773H412.108ZM408.528 181.5V171.761C408.528 171.216 408.648 170.763 408.886 170.403C409.125 170.04 409.441 169.769 409.835 169.591C410.229 169.409 410.657 169.318 411.119 169.318C411.46 169.318 411.752 169.347 411.994 169.403C412.237 169.456 412.417 169.506 412.534 169.551L412.136 170.926C412.057 170.903 411.955 170.877 411.83 170.847C411.705 170.812 411.553 170.795 411.375 170.795C410.962 170.795 410.667 170.898 410.489 171.102C410.314 171.307 410.227 171.602 410.227 171.989V181.5H408.528ZM418.014 172.773V174.136H413.082V172.773H418.014ZM414.435 181.5V171.761C414.435 171.216 414.554 170.763 414.793 170.403C415.031 170.04 415.348 169.769 415.741 169.591C416.135 169.409 416.563 169.318 417.026 169.318C417.366 169.318 417.658 169.347 417.901 169.403C418.143 169.456 418.323 169.506 418.44 169.551L418.043 170.926C417.963 170.903 417.861 170.877 417.736 170.847C417.611 170.812 417.459 170.795 417.281 170.795C416.868 170.795 416.573 170.898 416.395 171.102C416.221 171.307 416.134 171.602 416.134 171.989V181.5H414.435ZM423.185 181.676C422.325 181.676 421.584 181.492 420.963 181.125C420.346 180.754 419.868 180.233 419.531 179.562C419.198 178.888 419.031 178.098 419.031 177.193C419.031 176.299 419.198 175.511 419.531 174.83C419.868 174.148 420.338 173.616 420.94 173.233C421.546 172.85 422.255 172.659 423.065 172.659C423.558 172.659 424.035 172.741 424.497 172.903C424.959 173.066 425.374 173.322 425.741 173.67C426.109 174.019 426.399 174.472 426.611 175.028C426.823 175.581 426.929 176.254 426.929 177.045V177.648H419.991V176.375H425.264C425.264 175.928 425.173 175.532 424.991 175.188C424.81 174.839 424.554 174.564 424.224 174.364C423.899 174.163 423.516 174.062 423.077 174.062C422.599 174.062 422.183 174.18 421.827 174.415C421.474 174.646 421.202 174.949 421.009 175.324C420.819 175.695 420.724 176.098 420.724 176.534V177.528C420.724 178.112 420.827 178.608 421.031 179.017C421.24 179.426 421.529 179.739 421.901 179.955C422.272 180.167 422.705 180.273 423.202 180.273C423.524 180.273 423.817 180.227 424.082 180.136C424.348 180.042 424.577 179.902 424.77 179.716C424.963 179.53 425.111 179.301 425.213 179.028L426.821 179.318C426.692 179.792 426.461 180.206 426.128 180.562C425.798 180.915 425.384 181.189 424.884 181.386C424.387 181.58 423.821 181.676 423.185 181.676ZM432.49 181.676C431.645 181.676 430.918 181.485 430.308 181.102C429.702 180.716 429.236 180.184 428.911 179.506C428.585 178.828 428.422 178.051 428.422 177.176C428.422 176.29 428.589 175.508 428.922 174.83C429.255 174.148 429.725 173.616 430.331 173.233C430.937 172.85 431.651 172.659 432.473 172.659C433.136 172.659 433.727 172.782 434.246 173.028C434.765 173.271 435.183 173.612 435.501 174.051C435.823 174.491 436.015 175.004 436.075 175.591H434.422C434.331 175.182 434.123 174.83 433.797 174.534C433.475 174.239 433.043 174.091 432.501 174.091C432.028 174.091 431.613 174.216 431.257 174.466C430.905 174.712 430.63 175.064 430.433 175.523C430.236 175.977 430.138 176.515 430.138 177.136C430.138 177.773 430.234 178.322 430.428 178.784C430.621 179.246 430.893 179.604 431.246 179.858C431.602 180.112 432.02 180.239 432.501 180.239C432.823 180.239 433.115 180.18 433.376 180.062C433.642 179.941 433.863 179.769 434.041 179.545C434.223 179.322 434.35 179.053 434.422 178.739H436.075C436.015 179.303 435.831 179.807 435.524 180.25C435.217 180.693 434.806 181.042 434.291 181.295C433.78 181.549 433.179 181.676 432.49 181.676ZM441.966 172.773V174.136H437.199V172.773H441.966ZM438.477 170.682H440.176V178.938C440.176 179.267 440.225 179.515 440.324 179.682C440.422 179.845 440.549 179.956 440.705 180.017C440.864 180.074 441.036 180.102 441.222 180.102C441.358 180.102 441.477 180.093 441.58 180.074C441.682 180.055 441.761 180.04 441.818 180.028L442.125 181.432C442.027 181.47 441.886 181.508 441.705 181.545C441.523 181.587 441.295 181.61 441.023 181.614C440.576 181.621 440.159 181.542 439.773 181.375C439.386 181.208 439.074 180.951 438.835 180.602C438.597 180.254 438.477 179.816 438.477 179.29V170.682ZM443.845 181.5V172.773H445.544V181.5H443.845ZM444.703 171.426C444.408 171.426 444.154 171.328 443.942 171.131C443.733 170.93 443.629 170.691 443.629 170.415C443.629 170.134 443.733 169.896 443.942 169.699C444.154 169.498 444.408 169.398 444.703 169.398C444.999 169.398 445.25 169.498 445.459 169.699C445.671 169.896 445.777 170.134 445.777 170.415C445.777 170.691 445.671 170.93 445.459 171.131C445.25 171.328 444.999 171.426 444.703 171.426ZM455.295 172.773L452.131 181.5H450.312L447.142 172.773H448.966L451.176 179.489H451.267L453.472 172.773H455.295ZM460.357 181.676C459.497 181.676 458.756 181.492 458.135 181.125C457.518 180.754 457.04 180.233 456.703 179.562C456.37 178.888 456.203 178.098 456.203 177.193C456.203 176.299 456.37 175.511 456.703 174.83C457.04 174.148 457.51 173.616 458.112 173.233C458.718 172.85 459.427 172.659 460.237 172.659C460.73 172.659 461.207 172.741 461.669 172.903C462.131 173.066 462.546 173.322 462.913 173.67C463.281 174.019 463.571 174.472 463.783 175.028C463.995 175.581 464.101 176.254 464.101 177.045V177.648H457.163V176.375H462.436C462.436 175.928 462.345 175.532 462.163 175.188C461.982 174.839 461.726 174.564 461.396 174.364C461.071 174.163 460.688 174.062 460.249 174.062C459.771 174.062 459.355 174.18 458.999 174.415C458.646 174.646 458.374 174.949 458.18 175.324C457.991 175.695 457.896 176.098 457.896 176.534V177.528C457.896 178.112 457.999 178.608 458.203 179.017C458.411 179.426 458.701 179.739 459.072 179.955C459.444 180.167 459.877 180.273 460.374 180.273C460.696 180.273 460.989 180.227 461.254 180.136C461.519 180.042 461.749 179.902 461.942 179.716C462.135 179.53 462.283 179.301 462.385 179.028L463.993 179.318C463.864 179.792 463.633 180.206 463.3 180.562C462.97 180.915 462.555 181.189 462.055 181.386C461.559 181.58 460.993 181.676 460.357 181.676Z" fill="#101010"/>
</g>
<g filter="url(#filter4_d_992_10073)">
<rect width="91" height="40" transform="translate(618 156)" fill="white"/>
<path d="M635.278 181.5V169.864H642.494V171.375H637.034V174.92H641.977V176.426H637.034V181.5H635.278ZM646.216 169.864V181.5H644.517V169.864H646.216ZM652.263 181.676C651.403 181.676 650.662 181.492 650.041 181.125C649.424 180.754 648.946 180.233 648.609 179.562C648.276 178.888 648.109 178.098 648.109 177.193C648.109 176.299 648.276 175.511 648.609 174.83C648.946 174.148 649.416 173.616 650.018 173.233C650.625 172.85 651.333 172.659 652.143 172.659C652.636 172.659 653.113 172.741 653.575 172.903C654.037 173.066 654.452 173.322 654.82 173.67C655.187 174.019 655.477 174.472 655.689 175.028C655.901 175.581 656.007 176.254 656.007 177.045V177.648H649.07V176.375H654.342C654.342 175.928 654.251 175.532 654.07 175.188C653.888 174.839 653.632 174.564 653.303 174.364C652.977 174.163 652.594 174.062 652.155 174.062C651.678 174.062 651.261 174.18 650.905 174.415C650.553 174.646 650.28 174.949 650.087 175.324C649.897 175.695 649.803 176.098 649.803 176.534V177.528C649.803 178.112 649.905 178.608 650.109 179.017C650.318 179.426 650.607 179.739 650.979 179.955C651.35 180.167 651.784 180.273 652.28 180.273C652.602 180.273 652.895 180.227 653.161 180.136C653.426 180.042 653.655 179.902 653.848 179.716C654.041 179.53 654.189 179.301 654.291 179.028L655.899 179.318C655.77 179.792 655.539 180.206 655.206 180.562C654.876 180.915 654.462 181.189 653.962 181.386C653.465 181.58 652.899 181.676 652.263 181.676ZM659.03 172.773L660.956 176.17L662.899 172.773H664.757L662.036 177.136L664.78 181.5H662.922L660.956 178.239L658.996 181.5H657.132L659.848 177.136L657.166 172.773H659.03ZM666.501 181.5V172.773H668.2V181.5H666.501ZM667.359 171.426C667.064 171.426 666.81 171.328 666.598 171.131C666.39 170.93 666.286 170.691 666.286 170.415C666.286 170.134 666.39 169.896 666.598 169.699C666.81 169.498 667.064 169.398 667.359 169.398C667.655 169.398 667.907 169.498 668.115 169.699C668.327 169.896 668.433 170.134 668.433 170.415C668.433 170.691 668.327 170.93 668.115 171.131C667.907 171.328 667.655 171.426 667.359 171.426ZM670.622 181.5V169.864H672.321V174.188H672.423C672.522 174.006 672.664 173.795 672.849 173.557C673.035 173.318 673.293 173.11 673.622 172.932C673.952 172.75 674.387 172.659 674.929 172.659C675.634 172.659 676.262 172.837 676.815 173.193C677.368 173.549 677.802 174.062 678.116 174.733C678.435 175.403 678.594 176.21 678.594 177.153C678.594 178.097 678.437 178.905 678.122 179.58C677.808 180.25 677.376 180.767 676.827 181.131C676.277 181.491 675.651 181.67 674.946 181.67C674.416 181.67 673.982 181.581 673.645 181.403C673.312 181.225 673.05 181.017 672.861 180.778C672.671 180.54 672.526 180.328 672.423 180.142H672.281V181.5H670.622ZM672.287 177.136C672.287 177.75 672.376 178.288 672.554 178.75C672.732 179.212 672.99 179.574 673.327 179.835C673.664 180.093 674.077 180.222 674.565 180.222C675.073 180.222 675.497 180.087 675.838 179.818C676.179 179.545 676.437 179.176 676.611 178.71C676.789 178.244 676.878 177.72 676.878 177.136C676.878 176.561 676.791 176.044 676.616 175.585C676.446 175.127 676.188 174.765 675.844 174.5C675.503 174.235 675.077 174.102 674.565 174.102C674.073 174.102 673.656 174.229 673.315 174.483C672.978 174.737 672.723 175.091 672.548 175.545C672.374 176 672.287 176.53 672.287 177.136ZM682.2 169.864V181.5H680.501V169.864H682.2ZM688.247 181.676C687.387 181.676 686.647 181.492 686.026 181.125C685.408 180.754 684.931 180.233 684.594 179.562C684.26 178.888 684.094 178.098 684.094 177.193C684.094 176.299 684.26 175.511 684.594 174.83C684.931 174.148 685.401 173.616 686.003 173.233C686.609 172.85 687.317 172.659 688.128 172.659C688.62 172.659 689.098 172.741 689.56 172.903C690.022 173.066 690.437 173.322 690.804 173.67C691.171 174.019 691.461 174.472 691.673 175.028C691.885 175.581 691.991 176.254 691.991 177.045V177.648H685.054V176.375H690.327C690.327 175.928 690.236 175.532 690.054 175.188C689.872 174.839 689.616 174.564 689.287 174.364C688.961 174.163 688.579 174.062 688.139 174.062C687.662 174.062 687.245 174.18 686.889 174.415C686.537 174.646 686.264 174.949 686.071 175.324C685.882 175.695 685.787 176.098 685.787 176.534V177.528C685.787 178.112 685.889 178.608 686.094 179.017C686.302 179.426 686.592 179.739 686.963 179.955C687.334 180.167 687.768 180.273 688.264 180.273C688.586 180.273 688.88 180.227 689.145 180.136C689.41 180.042 689.639 179.902 689.832 179.716C690.026 179.53 690.173 179.301 690.276 179.028L691.884 179.318C691.755 179.792 691.524 180.206 691.19 180.562C690.861 180.915 690.446 181.189 689.946 181.386C689.45 181.58 688.884 181.676 688.247 181.676Z" fill="#101010"/>
</g>
<g filter="url(#filter5_d_992_10073)">
<rect width="158" height="40" transform="translate(458 218)" fill="white"/>
<path d="M475.278 243.5V231.864H482.494V233.375H477.034V236.92H481.977V238.426H477.034V243.5H475.278ZM487.026 243.693C486.473 243.693 485.973 243.591 485.526 243.386C485.079 243.178 484.724 242.877 484.463 242.483C484.205 242.089 484.077 241.606 484.077 241.034C484.077 240.542 484.171 240.136 484.361 239.818C484.55 239.5 484.806 239.248 485.128 239.062C485.45 238.877 485.81 238.737 486.207 238.642C486.605 238.547 487.01 238.475 487.423 238.426C487.946 238.366 488.37 238.316 488.696 238.278C489.022 238.237 489.259 238.17 489.406 238.08C489.554 237.989 489.628 237.841 489.628 237.636V237.597C489.628 237.1 489.488 236.716 489.207 236.443C488.931 236.17 488.518 236.034 487.969 236.034C487.397 236.034 486.946 236.161 486.616 236.415C486.291 236.665 486.065 236.943 485.94 237.25L484.344 236.886C484.533 236.356 484.81 235.928 485.173 235.602C485.541 235.273 485.963 235.034 486.44 234.886C486.918 234.735 487.42 234.659 487.946 234.659C488.295 234.659 488.664 234.701 489.054 234.784C489.448 234.864 489.815 235.011 490.156 235.227C490.501 235.443 490.783 235.752 491.003 236.153C491.223 236.551 491.332 237.068 491.332 237.705V243.5H489.673V242.307H489.605C489.495 242.527 489.33 242.742 489.111 242.955C488.891 243.167 488.609 243.343 488.264 243.483C487.92 243.623 487.507 243.693 487.026 243.693ZM487.395 242.33C487.865 242.33 488.266 242.237 488.599 242.051C488.937 241.866 489.192 241.623 489.366 241.324C489.545 241.021 489.634 240.697 489.634 240.352V239.227C489.573 239.288 489.455 239.345 489.281 239.398C489.111 239.447 488.916 239.491 488.696 239.528C488.476 239.562 488.262 239.595 488.054 239.625C487.846 239.652 487.671 239.674 487.531 239.693C487.202 239.735 486.901 239.805 486.628 239.903C486.359 240.002 486.143 240.144 485.98 240.33C485.821 240.511 485.741 240.754 485.741 241.057C485.741 241.477 485.897 241.795 486.207 242.011C486.518 242.223 486.914 242.33 487.395 242.33ZM500.135 236.903L498.595 237.176C498.531 236.979 498.429 236.792 498.288 236.614C498.152 236.436 497.966 236.29 497.732 236.176C497.497 236.062 497.203 236.006 496.851 236.006C496.37 236.006 495.968 236.114 495.646 236.33C495.324 236.542 495.163 236.816 495.163 237.153C495.163 237.445 495.271 237.68 495.487 237.858C495.703 238.036 496.052 238.182 496.533 238.295L497.919 238.614C498.722 238.799 499.321 239.085 499.714 239.472C500.108 239.858 500.305 240.36 500.305 240.977C500.305 241.5 500.154 241.966 499.851 242.375C499.552 242.78 499.133 243.098 498.595 243.33C498.061 243.561 497.442 243.676 496.737 243.676C495.76 243.676 494.963 243.468 494.345 243.051C493.728 242.631 493.349 242.034 493.209 241.261L494.851 241.011C494.953 241.439 495.163 241.763 495.482 241.983C495.8 242.199 496.214 242.307 496.726 242.307C497.283 242.307 497.728 242.191 498.061 241.96C498.394 241.725 498.561 241.439 498.561 241.102C498.561 240.83 498.459 240.6 498.254 240.415C498.054 240.229 497.745 240.089 497.328 239.994L495.851 239.67C495.036 239.485 494.434 239.189 494.044 238.784C493.658 238.379 493.464 237.866 493.464 237.244C493.464 236.729 493.608 236.278 493.896 235.892C494.184 235.506 494.582 235.205 495.089 234.989C495.597 234.769 496.179 234.659 496.834 234.659C497.777 234.659 498.519 234.864 499.061 235.273C499.603 235.678 499.961 236.222 500.135 236.903ZM506.247 234.773V236.136H501.48V234.773H506.247ZM502.759 232.682H504.457V240.938C504.457 241.267 504.507 241.515 504.605 241.682C504.704 241.845 504.83 241.956 504.986 242.017C505.145 242.074 505.317 242.102 505.503 242.102C505.639 242.102 505.759 242.093 505.861 242.074C505.963 242.055 506.043 242.04 506.099 242.028L506.406 243.432C506.308 243.47 506.168 243.508 505.986 243.545C505.804 243.587 505.577 243.61 505.304 243.614C504.857 243.621 504.44 243.542 504.054 243.375C503.668 243.208 503.355 242.951 503.116 242.602C502.878 242.254 502.759 241.816 502.759 241.29V232.682ZM511.923 233.375V231.864H520.929V233.375H517.298V243.5H515.548V233.375H511.923ZM527.124 239.881V234.773H528.828V243.5H527.158V241.989H527.067C526.866 242.455 526.544 242.843 526.101 243.153C525.661 243.46 525.114 243.614 524.459 243.614C523.898 243.614 523.402 243.491 522.97 243.244C522.542 242.994 522.205 242.625 521.959 242.136C521.716 241.648 521.595 241.044 521.595 240.324V234.773H523.294V240.119C523.294 240.714 523.459 241.187 523.788 241.54C524.118 241.892 524.546 242.068 525.072 242.068C525.391 242.068 525.707 241.989 526.021 241.83C526.339 241.67 526.603 241.43 526.811 241.108C527.023 240.786 527.127 240.377 527.124 239.881ZM531.111 243.5V234.773H532.753V236.159H532.844C533.003 235.689 533.283 235.32 533.685 235.051C534.09 234.778 534.548 234.642 535.06 234.642C535.166 234.642 535.291 234.646 535.435 234.653C535.582 234.661 535.698 234.67 535.781 234.682V236.307C535.713 236.288 535.592 236.267 535.418 236.244C535.243 236.218 535.069 236.205 534.895 236.205C534.493 236.205 534.135 236.29 533.821 236.46C533.51 236.627 533.264 236.86 533.082 237.159C532.901 237.455 532.81 237.792 532.81 238.17V243.5H531.111ZM538.95 238.318V243.5H537.251V234.773H538.882V236.193H538.99C539.191 235.731 539.505 235.36 539.933 235.08C540.365 234.799 540.909 234.659 541.564 234.659C542.159 234.659 542.679 234.784 543.126 235.034C543.573 235.28 543.92 235.648 544.166 236.136C544.412 236.625 544.536 237.229 544.536 237.949V243.5H542.837V238.153C542.837 237.521 542.672 237.027 542.342 236.67C542.013 236.311 541.56 236.131 540.984 236.131C540.59 236.131 540.24 236.216 539.933 236.386C539.63 236.557 539.39 236.807 539.212 237.136C539.037 237.462 538.95 237.856 538.95 238.318ZM549.354 243.693C548.801 243.693 548.301 243.591 547.854 243.386C547.407 243.178 547.053 242.877 546.791 242.483C546.534 242.089 546.405 241.606 546.405 241.034C546.405 240.542 546.5 240.136 546.689 239.818C546.878 239.5 547.134 239.248 547.456 239.062C547.778 238.877 548.138 238.737 548.536 238.642C548.933 238.547 549.339 238.475 549.751 238.426C550.274 238.366 550.698 238.316 551.024 238.278C551.35 238.237 551.587 238.17 551.734 238.08C551.882 237.989 551.956 237.841 551.956 237.636V237.597C551.956 237.1 551.816 236.716 551.536 236.443C551.259 236.17 550.846 236.034 550.297 236.034C549.725 236.034 549.274 236.161 548.945 236.415C548.619 236.665 548.393 236.943 548.268 237.25L546.672 236.886C546.861 236.356 547.138 235.928 547.501 235.602C547.869 235.273 548.291 235.034 548.768 234.886C549.246 234.735 549.748 234.659 550.274 234.659C550.623 234.659 550.992 234.701 551.382 234.784C551.776 234.864 552.143 235.011 552.484 235.227C552.829 235.443 553.111 235.752 553.331 236.153C553.551 236.551 553.661 237.068 553.661 237.705V243.5H552.001V242.307H551.933C551.823 242.527 551.659 242.742 551.439 242.955C551.219 243.167 550.937 243.343 550.592 243.483C550.248 243.623 549.835 243.693 549.354 243.693ZM549.723 242.33C550.193 242.33 550.594 242.237 550.928 242.051C551.265 241.866 551.52 241.623 551.695 241.324C551.873 241.021 551.962 240.697 551.962 240.352V239.227C551.901 239.288 551.784 239.345 551.609 239.398C551.439 239.447 551.244 239.491 551.024 239.528C550.804 239.562 550.59 239.595 550.382 239.625C550.174 239.652 550 239.674 549.859 239.693C549.53 239.735 549.229 239.805 548.956 239.903C548.687 240.002 548.471 240.144 548.308 240.33C548.149 240.511 548.07 240.754 548.07 241.057C548.07 241.477 548.225 241.795 548.536 242.011C548.846 242.223 549.242 242.33 549.723 242.33ZM555.923 243.5V234.773H557.565V236.159H557.656C557.815 235.689 558.096 235.32 558.497 235.051C558.902 234.778 559.361 234.642 559.872 234.642C559.978 234.642 560.103 234.646 560.247 234.653C560.395 234.661 560.51 234.67 560.594 234.682V236.307C560.526 236.288 560.404 236.267 560.23 236.244C560.056 236.218 559.882 236.205 559.707 236.205C559.306 236.205 558.948 236.29 558.634 236.46C558.323 236.627 558.077 236.86 557.895 237.159C557.713 237.455 557.622 237.792 557.622 238.17V243.5H555.923ZM565.428 243.676C564.609 243.676 563.895 243.489 563.286 243.114C562.676 242.739 562.202 242.214 561.865 241.54C561.528 240.866 561.359 240.078 561.359 239.176C561.359 238.271 561.528 237.479 561.865 236.801C562.202 236.123 562.676 235.597 563.286 235.222C563.895 234.847 564.609 234.659 565.428 234.659C566.246 234.659 566.96 234.847 567.57 235.222C568.179 235.597 568.653 236.123 568.99 236.801C569.327 237.479 569.496 238.271 569.496 239.176C569.496 240.078 569.327 240.866 568.99 241.54C568.653 242.214 568.179 242.739 567.57 243.114C566.96 243.489 566.246 243.676 565.428 243.676ZM565.433 242.25C565.964 242.25 566.403 242.11 566.751 241.83C567.1 241.549 567.357 241.176 567.524 240.71C567.695 240.244 567.78 239.731 567.78 239.17C567.78 238.614 567.695 238.102 567.524 237.636C567.357 237.167 567.1 236.79 566.751 236.506C566.403 236.222 565.964 236.08 565.433 236.08C564.899 236.08 564.456 236.222 564.104 236.506C563.755 236.79 563.496 237.167 563.325 237.636C563.159 238.102 563.075 238.614 563.075 239.17C563.075 239.731 563.159 240.244 563.325 240.71C563.496 241.176 563.755 241.549 564.104 241.83C564.456 242.11 564.899 242.25 565.433 242.25ZM576.92 239.881V234.773H578.625V243.5H576.955V241.989H576.864C576.663 242.455 576.341 242.843 575.898 243.153C575.458 243.46 574.911 243.614 574.256 243.614C573.695 243.614 573.199 243.491 572.767 243.244C572.339 242.994 572.002 242.625 571.756 242.136C571.513 241.648 571.392 241.044 571.392 240.324V234.773H573.091V240.119C573.091 240.714 573.256 241.187 573.585 241.54C573.915 241.892 574.343 242.068 574.869 242.068C575.188 242.068 575.504 241.989 575.818 241.83C576.136 241.67 576.4 241.43 576.608 241.108C576.82 240.786 576.924 240.377 576.92 239.881ZM582.607 238.318V243.5H580.908V234.773H582.538V236.193H582.646C582.847 235.731 583.161 235.36 583.589 235.08C584.021 234.799 584.565 234.659 585.22 234.659C585.815 234.659 586.336 234.784 586.783 235.034C587.23 235.28 587.576 235.648 587.822 236.136C588.069 236.625 588.192 237.229 588.192 237.949V243.5H586.493V238.153C586.493 237.521 586.328 237.027 585.999 236.67C585.669 236.311 585.216 236.131 584.641 236.131C584.247 236.131 583.896 236.216 583.589 236.386C583.286 236.557 583.046 236.807 582.868 237.136C582.694 237.462 582.607 237.856 582.607 238.318ZM593.737 243.67C593.033 243.67 592.404 243.491 591.851 243.131C591.302 242.767 590.87 242.25 590.555 241.58C590.245 240.905 590.089 240.097 590.089 239.153C590.089 238.21 590.247 237.403 590.561 236.733C590.879 236.062 591.315 235.549 591.868 235.193C592.421 234.837 593.048 234.659 593.749 234.659C594.29 234.659 594.726 234.75 595.055 234.932C595.389 235.11 595.646 235.318 595.828 235.557C596.014 235.795 596.158 236.006 596.26 236.188H596.362V231.864H598.061V243.5H596.402V242.142H596.26C596.158 242.328 596.01 242.54 595.817 242.778C595.627 243.017 595.366 243.225 595.033 243.403C594.699 243.581 594.268 243.67 593.737 243.67ZM594.112 242.222C594.601 242.222 595.014 242.093 595.351 241.835C595.692 241.574 595.949 241.212 596.124 240.75C596.302 240.288 596.391 239.75 596.391 239.136C596.391 238.53 596.304 238 596.129 237.545C595.955 237.091 595.699 236.737 595.362 236.483C595.025 236.229 594.608 236.102 594.112 236.102C593.601 236.102 593.175 236.235 592.834 236.5C592.493 236.765 592.235 237.127 592.061 237.585C591.891 238.044 591.805 238.561 591.805 239.136C591.805 239.72 591.893 240.244 592.067 240.71C592.241 241.176 592.499 241.545 592.839 241.818C593.184 242.087 593.608 242.222 594.112 242.222Z" fill="#101010"/>
</g>
<path d="M192.783 207V198.273H194.1V205.866H198.054V207H192.783ZM202.211 207.132C201.598 207.132 201.062 206.991 200.605 206.71C200.147 206.429 199.792 206.036 199.539 205.53C199.287 205.024 199.16 204.433 199.16 203.757C199.16 203.078 199.287 202.484 199.539 201.976C199.792 201.467 200.147 201.072 200.605 200.791C201.062 200.51 201.598 200.369 202.211 200.369C202.825 200.369 203.36 200.51 203.818 200.791C204.275 201.072 204.63 201.467 204.883 201.976C205.136 202.484 205.262 203.078 205.262 203.757C205.262 204.433 205.136 205.024 204.883 205.53C204.63 206.036 204.275 206.429 203.818 206.71C203.36 206.991 202.825 207.132 202.211 207.132ZM202.216 206.062C202.613 206.062 202.943 205.957 203.204 205.747C203.466 205.537 203.659 205.257 203.784 204.908C203.912 204.558 203.975 204.173 203.975 203.753C203.975 203.335 203.912 202.952 203.784 202.602C203.659 202.25 203.466 201.967 203.204 201.754C202.943 201.541 202.613 201.435 202.216 201.435C201.815 201.435 201.483 201.541 201.218 201.754C200.957 201.967 200.762 202.25 200.635 202.602C200.51 202.952 200.447 203.335 200.447 203.753C200.447 204.173 200.51 204.558 200.635 204.908C200.762 205.257 200.957 205.537 201.218 205.747C201.483 205.957 201.815 206.062 202.216 206.062ZM206.685 207V200.455H207.916V201.494H207.984C208.104 201.142 208.314 200.865 208.615 200.663C208.919 200.459 209.263 200.357 209.646 200.357C209.726 200.357 209.82 200.359 209.928 200.365C210.038 200.371 210.125 200.378 210.188 200.386V201.605C210.136 201.591 210.045 201.575 209.915 201.558C209.784 201.538 209.653 201.528 209.523 201.528C209.222 201.528 208.953 201.592 208.717 201.72C208.484 201.845 208.3 202.02 208.163 202.244C208.027 202.466 207.959 202.719 207.959 203.003V207H206.685ZM213.877 207.132C213.232 207.132 212.676 206.994 212.211 206.719C211.748 206.44 211.39 206.05 211.137 205.547C210.887 205.041 210.762 204.449 210.762 203.77C210.762 203.099 210.887 202.509 211.137 201.997C211.39 201.486 211.742 201.087 212.194 200.8C212.648 200.513 213.179 200.369 213.787 200.369C214.157 200.369 214.515 200.43 214.861 200.553C215.208 200.675 215.519 200.866 215.794 201.128C216.07 201.389 216.287 201.729 216.446 202.146C216.605 202.561 216.685 203.065 216.685 203.659V204.111H211.482V203.156H215.436C215.436 202.821 215.368 202.524 215.232 202.266C215.096 202.004 214.904 201.798 214.657 201.648C214.412 201.497 214.125 201.422 213.796 201.422C213.438 201.422 213.125 201.51 212.858 201.686C212.594 201.859 212.39 202.087 212.245 202.368C212.103 202.646 212.032 202.949 212.032 203.276V204.021C212.032 204.459 212.108 204.831 212.262 205.138C212.418 205.445 212.635 205.679 212.914 205.841C213.192 206 213.517 206.08 213.89 206.08C214.131 206.08 214.351 206.045 214.55 205.977C214.749 205.906 214.921 205.801 215.066 205.662C215.211 205.523 215.321 205.351 215.398 205.146L216.604 205.364C216.507 205.719 216.334 206.03 216.084 206.297C215.837 206.561 215.526 206.767 215.151 206.915C214.779 207.06 214.354 207.132 213.877 207.132ZM218.099 207V200.455H219.322V201.52H219.403C219.539 201.159 219.762 200.878 220.072 200.676C220.381 200.472 220.752 200.369 221.184 200.369C221.621 200.369 221.988 200.472 222.283 200.676C222.582 200.881 222.802 201.162 222.944 201.52H223.012C223.168 201.17 223.417 200.892 223.758 200.685C224.099 200.474 224.505 200.369 224.977 200.369C225.57 200.369 226.055 200.555 226.43 200.928C226.808 201.3 226.996 201.861 226.996 202.611V207H225.722V202.73C225.722 202.287 225.602 201.966 225.36 201.767C225.119 201.568 224.83 201.469 224.495 201.469C224.08 201.469 223.758 201.597 223.528 201.852C223.298 202.105 223.183 202.43 223.183 202.828V207H221.913V202.649C221.913 202.294 221.802 202.009 221.58 201.793C221.359 201.577 221.07 201.469 220.715 201.469C220.474 201.469 220.251 201.533 220.046 201.661C219.844 201.786 219.681 201.96 219.556 202.185C219.434 202.409 219.373 202.669 219.373 202.964V207H218.099ZM231.88 207V200.455H233.154V207H231.88ZM232.523 199.445C232.302 199.445 232.112 199.371 231.952 199.223C231.796 199.072 231.718 198.893 231.718 198.686C231.718 198.476 231.796 198.297 231.952 198.149C232.112 197.999 232.302 197.923 232.523 197.923C232.745 197.923 232.934 197.999 233.09 198.149C233.249 198.297 233.329 198.476 233.329 198.686C233.329 198.893 233.249 199.072 233.09 199.223C232.934 199.371 232.745 199.445 232.523 199.445ZM234.868 209.455V200.455H236.113V201.516H236.219C236.293 201.379 236.4 201.222 236.539 201.043C236.678 200.864 236.871 200.707 237.118 200.574C237.365 200.438 237.692 200.369 238.098 200.369C238.627 200.369 239.098 200.503 239.513 200.77C239.928 201.037 240.253 201.422 240.489 201.925C240.728 202.428 240.847 203.033 240.847 203.74C240.847 204.447 240.729 205.054 240.493 205.56C240.257 206.062 239.934 206.45 239.522 206.723C239.11 206.993 238.64 207.128 238.111 207.128C237.713 207.128 237.388 207.061 237.135 206.928C236.885 206.794 236.689 206.638 236.547 206.459C236.405 206.28 236.296 206.121 236.219 205.982H236.142V209.455H234.868ZM236.117 203.727C236.117 204.187 236.184 204.591 236.317 204.938C236.451 205.284 236.644 205.555 236.897 205.751C237.15 205.945 237.459 206.041 237.826 206.041C238.206 206.041 238.525 205.94 238.78 205.739C239.036 205.534 239.229 205.257 239.36 204.908C239.493 204.558 239.56 204.165 239.56 203.727C239.56 203.295 239.495 202.908 239.364 202.564C239.236 202.22 239.043 201.949 238.784 201.75C238.529 201.551 238.209 201.452 237.826 201.452C237.456 201.452 237.144 201.547 236.888 201.737C236.635 201.928 236.444 202.193 236.313 202.534C236.182 202.875 236.117 203.273 236.117 203.727ZM247.179 202.053L246.025 202.257C245.976 202.109 245.9 201.969 245.794 201.835C245.692 201.702 245.553 201.592 245.377 201.507C245.201 201.422 244.98 201.379 244.716 201.379C244.355 201.379 244.054 201.46 243.813 201.622C243.571 201.781 243.451 201.987 243.451 202.24C243.451 202.459 243.532 202.635 243.694 202.768C243.855 202.902 244.117 203.011 244.478 203.097L245.517 203.335C246.12 203.474 246.569 203.689 246.864 203.979C247.159 204.268 247.307 204.645 247.307 205.108C247.307 205.5 247.194 205.849 246.966 206.156C246.742 206.46 246.428 206.699 246.025 206.872C245.624 207.045 245.159 207.132 244.631 207.132C243.898 207.132 243.3 206.976 242.837 206.663C242.374 206.348 242.09 205.901 241.985 205.321L243.216 205.134C243.293 205.455 243.451 205.697 243.689 205.862C243.928 206.024 244.239 206.105 244.623 206.105C245.04 206.105 245.374 206.018 245.624 205.845C245.874 205.669 245.999 205.455 245.999 205.202C245.999 204.997 245.922 204.825 245.769 204.686C245.618 204.547 245.387 204.442 245.074 204.371L243.966 204.128C243.355 203.989 242.904 203.767 242.611 203.463C242.321 203.159 242.176 202.774 242.176 202.308C242.176 201.922 242.284 201.584 242.5 201.294C242.716 201.004 243.015 200.778 243.395 200.616C243.776 200.452 244.212 200.369 244.703 200.369C245.411 200.369 245.968 200.523 246.374 200.83C246.78 201.134 247.049 201.541 247.179 202.053ZM252.854 204.286V200.455H254.133V207H252.88V205.866H252.812C252.661 206.216 252.42 206.507 252.087 206.74C251.758 206.97 251.347 207.085 250.856 207.085C250.435 207.085 250.063 206.993 249.739 206.808C249.418 206.621 249.165 206.344 248.981 205.977C248.799 205.611 248.708 205.158 248.708 204.618V200.455H249.982V204.464C249.982 204.911 250.106 205.266 250.353 205.53C250.6 205.794 250.921 205.926 251.316 205.926C251.555 205.926 251.792 205.866 252.028 205.747C252.266 205.628 252.464 205.447 252.62 205.206C252.779 204.964 252.857 204.658 252.854 204.286ZM255.845 207V200.455H257.068V201.52H257.149C257.285 201.159 257.508 200.878 257.818 200.676C258.127 200.472 258.498 200.369 258.93 200.369C259.368 200.369 259.734 200.472 260.029 200.676C260.328 200.881 260.548 201.162 260.69 201.52H260.758C260.914 201.17 261.163 200.892 261.504 200.685C261.845 200.474 262.251 200.369 262.723 200.369C263.316 200.369 263.801 200.555 264.176 200.928C264.554 201.3 264.743 201.861 264.743 202.611V207H263.468V202.73C263.468 202.287 263.348 201.966 263.106 201.767C262.865 201.568 262.576 201.469 262.241 201.469C261.826 201.469 261.504 201.597 261.274 201.852C261.044 202.105 260.929 202.43 260.929 202.828V207H259.659V202.649C259.659 202.294 259.548 202.009 259.326 201.793C259.105 201.577 258.816 201.469 258.461 201.469C258.22 201.469 257.997 201.533 257.792 201.661C257.591 201.786 257.427 201.96 257.302 202.185C257.18 202.409 257.119 202.669 257.119 202.964V207H255.845Z" fill="#E7E7E7"/>
<path d="M819.783 171V162.273H821.1V169.866H825.054V171H819.783ZM829.211 171.132C828.598 171.132 828.062 170.991 827.605 170.71C827.147 170.429 826.792 170.036 826.539 169.53C826.287 169.024 826.16 168.433 826.16 167.757C826.16 167.078 826.287 166.484 826.539 165.976C826.792 165.467 827.147 165.072 827.605 164.791C828.062 164.51 828.598 164.369 829.211 164.369C829.825 164.369 830.36 164.51 830.818 164.791C831.275 165.072 831.63 165.467 831.883 165.976C832.136 166.484 832.262 167.078 832.262 167.757C832.262 168.433 832.136 169.024 831.883 169.53C831.63 170.036 831.275 170.429 830.818 170.71C830.36 170.991 829.825 171.132 829.211 171.132ZM829.216 170.062C829.613 170.062 829.943 169.957 830.204 169.747C830.466 169.537 830.659 169.257 830.784 168.908C830.912 168.558 830.975 168.173 830.975 167.753C830.975 167.335 830.912 166.952 830.784 166.602C830.659 166.25 830.466 165.967 830.204 165.754C829.943 165.541 829.613 165.435 829.216 165.435C828.815 165.435 828.483 165.541 828.218 165.754C827.957 165.967 827.762 166.25 827.635 166.602C827.51 166.952 827.447 167.335 827.447 167.753C827.447 168.173 827.51 168.558 827.635 168.908C827.762 169.257 827.957 169.537 828.218 169.747C828.483 169.957 828.815 170.062 829.216 170.062ZM833.685 171V164.455H834.916V165.494H834.984C835.104 165.142 835.314 164.865 835.615 164.663C835.919 164.459 836.263 164.357 836.646 164.357C836.726 164.357 836.82 164.359 836.928 164.365C837.038 164.371 837.125 164.378 837.188 164.386V165.605C837.136 165.591 837.045 165.575 836.915 165.558C836.784 165.538 836.653 165.528 836.523 165.528C836.222 165.528 835.953 165.592 835.717 165.72C835.484 165.845 835.3 166.02 835.163 166.244C835.027 166.466 834.959 166.719 834.959 167.003V171H833.685ZM840.877 171.132C840.232 171.132 839.676 170.994 839.211 170.719C838.748 170.44 838.39 170.05 838.137 169.547C837.887 169.041 837.762 168.449 837.762 167.77C837.762 167.099 837.887 166.509 838.137 165.997C838.39 165.486 838.742 165.087 839.194 164.8C839.648 164.513 840.179 164.369 840.787 164.369C841.157 164.369 841.515 164.43 841.861 164.553C842.208 164.675 842.519 164.866 842.794 165.128C843.07 165.389 843.287 165.729 843.446 166.146C843.605 166.561 843.685 167.065 843.685 167.659V168.111H838.482V167.156H842.436C842.436 166.821 842.368 166.524 842.232 166.266C842.096 166.004 841.904 165.798 841.657 165.648C841.412 165.497 841.125 165.422 840.796 165.422C840.438 165.422 840.125 165.51 839.858 165.686C839.594 165.859 839.39 166.087 839.245 166.368C839.103 166.646 839.032 166.949 839.032 167.276V168.021C839.032 168.459 839.108 168.831 839.262 169.138C839.418 169.445 839.635 169.679 839.914 169.841C840.192 170 840.517 170.08 840.89 170.08C841.131 170.08 841.351 170.045 841.55 169.977C841.749 169.906 841.921 169.801 842.066 169.662C842.211 169.523 842.321 169.351 842.398 169.146L843.604 169.364C843.507 169.719 843.334 170.03 843.084 170.297C842.837 170.561 842.526 170.767 842.151 170.915C841.779 171.06 841.354 171.132 840.877 171.132ZM845.099 171V164.455H846.322V165.52H846.403C846.539 165.159 846.762 164.878 847.072 164.676C847.381 164.472 847.752 164.369 848.184 164.369C848.621 164.369 848.988 164.472 849.283 164.676C849.582 164.881 849.802 165.162 849.944 165.52H850.012C850.168 165.17 850.417 164.892 850.758 164.685C851.099 164.474 851.505 164.369 851.977 164.369C852.57 164.369 853.055 164.555 853.43 164.928C853.808 165.3 853.996 165.861 853.996 166.611V171H852.722V166.73C852.722 166.287 852.602 165.966 852.36 165.767C852.119 165.568 851.83 165.469 851.495 165.469C851.08 165.469 850.758 165.597 850.528 165.852C850.298 166.105 850.183 166.43 850.183 166.828V171H848.913V166.649C848.913 166.294 848.802 166.009 848.58 165.793C848.359 165.577 848.07 165.469 847.715 165.469C847.474 165.469 847.251 165.533 847.046 165.661C846.844 165.786 846.681 165.96 846.556 166.185C846.434 166.409 846.373 166.669 846.373 166.964V171H845.099ZM858.88 171V164.455H860.154V171H858.88ZM859.523 163.445C859.302 163.445 859.112 163.371 858.952 163.223C858.796 163.072 858.718 162.893 858.718 162.686C858.718 162.476 858.796 162.297 858.952 162.149C859.112 161.999 859.302 161.923 859.523 161.923C859.745 161.923 859.934 161.999 860.09 162.149C860.249 162.297 860.329 162.476 860.329 162.686C860.329 162.893 860.249 163.072 860.09 163.223C859.934 163.371 859.745 163.445 859.523 163.445ZM861.868 173.455V164.455H863.113V165.516H863.219C863.293 165.379 863.4 165.222 863.539 165.043C863.678 164.864 863.871 164.707 864.118 164.574C864.365 164.438 864.692 164.369 865.098 164.369C865.627 164.369 866.098 164.503 866.513 164.77C866.928 165.037 867.253 165.422 867.489 165.925C867.728 166.428 867.847 167.033 867.847 167.74C867.847 168.447 867.729 169.054 867.493 169.56C867.257 170.062 866.934 170.45 866.522 170.723C866.11 170.993 865.64 171.128 865.111 171.128C864.713 171.128 864.388 171.061 864.135 170.928C863.885 170.794 863.689 170.638 863.547 170.459C863.405 170.28 863.296 170.121 863.219 169.982H863.142V173.455H861.868ZM863.117 167.727C863.117 168.187 863.184 168.591 863.317 168.938C863.451 169.284 863.644 169.555 863.897 169.751C864.15 169.945 864.459 170.041 864.826 170.041C865.206 170.041 865.525 169.94 865.78 169.739C866.036 169.534 866.229 169.257 866.36 168.908C866.493 168.558 866.56 168.165 866.56 167.727C866.56 167.295 866.495 166.908 866.364 166.564C866.236 166.22 866.043 165.949 865.784 165.75C865.529 165.551 865.209 165.452 864.826 165.452C864.456 165.452 864.144 165.547 863.888 165.737C863.635 165.928 863.444 166.193 863.313 166.534C863.182 166.875 863.117 167.273 863.117 167.727ZM874.179 166.053L873.025 166.257C872.976 166.109 872.9 165.969 872.794 165.835C872.692 165.702 872.553 165.592 872.377 165.507C872.201 165.422 871.98 165.379 871.716 165.379C871.355 165.379 871.054 165.46 870.813 165.622C870.571 165.781 870.451 165.987 870.451 166.24C870.451 166.459 870.532 166.635 870.694 166.768C870.855 166.902 871.117 167.011 871.478 167.097L872.517 167.335C873.12 167.474 873.569 167.689 873.864 167.979C874.159 168.268 874.307 168.645 874.307 169.108C874.307 169.5 874.194 169.849 873.966 170.156C873.742 170.46 873.428 170.699 873.025 170.872C872.624 171.045 872.159 171.132 871.631 171.132C870.898 171.132 870.3 170.976 869.837 170.663C869.374 170.348 869.09 169.901 868.985 169.321L870.216 169.134C870.293 169.455 870.451 169.697 870.689 169.862C870.928 170.024 871.239 170.105 871.623 170.105C872.04 170.105 872.374 170.018 872.624 169.845C872.874 169.669 872.999 169.455 872.999 169.202C872.999 168.997 872.922 168.825 872.769 168.686C872.618 168.547 872.387 168.442 872.074 168.371L870.966 168.128C870.355 167.989 869.904 167.767 869.611 167.463C869.321 167.159 869.176 166.774 869.176 166.308C869.176 165.922 869.284 165.584 869.5 165.294C869.716 165.004 870.015 164.778 870.395 164.616C870.776 164.452 871.212 164.369 871.703 164.369C872.411 164.369 872.968 164.523 873.374 164.83C873.78 165.134 874.049 165.541 874.179 166.053ZM879.854 168.286V164.455H881.133V171H879.88V169.866H879.812C879.661 170.216 879.42 170.507 879.087 170.74C878.758 170.97 878.347 171.085 877.856 171.085C877.435 171.085 877.063 170.993 876.739 170.808C876.418 170.621 876.165 170.344 875.981 169.977C875.799 169.611 875.708 169.158 875.708 168.618V164.455H876.982V168.464C876.982 168.911 877.106 169.266 877.353 169.53C877.6 169.794 877.921 169.926 878.316 169.926C878.555 169.926 878.792 169.866 879.028 169.747C879.266 169.628 879.464 169.447 879.62 169.206C879.779 168.964 879.857 168.658 879.854 168.286ZM882.845 171V164.455H884.068V165.52H884.149C884.285 165.159 884.508 164.878 884.818 164.676C885.127 164.472 885.498 164.369 885.93 164.369C886.368 164.369 886.734 164.472 887.029 164.676C887.328 164.881 887.548 165.162 887.69 165.52H887.758C887.914 165.17 888.163 164.892 888.504 164.685C888.845 164.474 889.251 164.369 889.723 164.369C890.316 164.369 890.801 164.555 891.176 164.928C891.554 165.3 891.743 165.861 891.743 166.611V171H890.468V166.73C890.468 166.287 890.348 165.966 890.106 165.767C889.865 165.568 889.576 165.469 889.241 165.469C888.826 165.469 888.504 165.597 888.274 165.852C888.044 166.105 887.929 166.43 887.929 166.828V171H886.659V166.649C886.659 166.294 886.548 166.009 886.326 165.793C886.105 165.577 885.816 165.469 885.461 165.469C885.22 165.469 884.997 165.533 884.792 165.661C884.591 165.786 884.427 165.96 884.302 166.185C884.18 166.409 884.119 166.669 884.119 166.964V171H882.845Z" fill="#E7E7E7"/>
<path d="M846.783 69V60.2727H848.1V67.8665H852.054V69H846.783ZM856.211 69.1321C855.598 69.1321 855.062 68.9915 854.605 68.7102C854.147 68.429 853.792 68.0355 853.539 67.5298C853.287 67.0241 853.16 66.4332 853.16 65.7571C853.16 65.0781 853.287 64.4844 853.539 63.9759C853.792 63.4673 854.147 63.0724 854.605 62.7912C855.062 62.5099 855.598 62.3693 856.211 62.3693C856.825 62.3693 857.36 62.5099 857.818 62.7912C858.275 63.0724 858.63 63.4673 858.883 63.9759C859.136 64.4844 859.262 65.0781 859.262 65.7571C859.262 66.4332 859.136 67.0241 858.883 67.5298C858.63 68.0355 858.275 68.429 857.818 68.7102C857.36 68.9915 856.825 69.1321 856.211 69.1321ZM856.216 68.0625C856.613 68.0625 856.943 67.9574 857.204 67.7472C857.466 67.5369 857.659 67.2571 857.784 66.9077C857.912 66.5582 857.975 66.1733 857.975 65.7528C857.975 65.3352 857.912 64.9517 857.784 64.6023C857.659 64.25 857.466 63.9673 857.204 63.7543C856.943 63.5412 856.613 63.4347 856.216 63.4347C855.815 63.4347 855.483 63.5412 855.218 63.7543C854.957 63.9673 854.762 64.25 854.635 64.6023C854.51 64.9517 854.447 65.3352 854.447 65.7528C854.447 66.1733 854.51 66.5582 854.635 66.9077C854.762 67.2571 854.957 67.5369 855.218 67.7472C855.483 67.9574 855.815 68.0625 856.216 68.0625ZM860.685 69V62.4545H861.916V63.4943H861.984C862.104 63.142 862.314 62.8651 862.615 62.6634C862.919 62.4588 863.263 62.3565 863.646 62.3565C863.726 62.3565 863.82 62.3594 863.928 62.3651C864.038 62.3707 864.125 62.3778 864.188 62.3864V63.6051C864.136 63.5909 864.045 63.5753 863.915 63.5582C863.784 63.5384 863.653 63.5284 863.523 63.5284C863.222 63.5284 862.953 63.5923 862.717 63.7202C862.484 63.8452 862.3 64.0199 862.163 64.2443C862.027 64.4659 861.959 64.7187 861.959 65.0028V69H860.685ZM867.877 69.1321C867.232 69.1321 866.676 68.9943 866.211 68.7188C865.748 68.4403 865.39 68.0497 865.137 67.5469C864.887 67.0412 864.762 66.4489 864.762 65.7699C864.762 65.0994 864.887 64.5085 865.137 63.9972C865.39 63.4858 865.742 63.0866 866.194 62.7997C866.648 62.5128 867.179 62.3693 867.787 62.3693C868.157 62.3693 868.515 62.4304 868.861 62.5526C869.208 62.6747 869.519 62.8665 869.794 63.1278C870.07 63.3892 870.287 63.7287 870.446 64.1463C870.605 64.5611 870.685 65.0653 870.685 65.6591V66.1108H865.482V65.1562H869.436C869.436 64.821 869.368 64.5241 869.232 64.2656C869.096 64.0043 868.904 63.7983 868.657 63.6477C868.412 63.4972 868.125 63.4219 867.796 63.4219C867.438 63.4219 867.125 63.5099 866.858 63.6861C866.594 63.8594 866.39 64.0866 866.245 64.3679C866.103 64.6463 866.032 64.9489 866.032 65.2756V66.0213C866.032 66.4588 866.108 66.831 866.262 67.1378C866.418 67.4446 866.635 67.679 866.914 67.8409C867.192 68 867.517 68.0795 867.89 68.0795C868.131 68.0795 868.351 68.0455 868.55 67.9773C868.749 67.9062 868.921 67.8011 869.066 67.6619C869.211 67.5227 869.321 67.3509 869.398 67.1463L870.604 67.3636C870.507 67.7187 870.334 68.0298 870.084 68.2969C869.837 68.5611 869.526 68.767 869.151 68.9148C868.779 69.0597 868.354 69.1321 867.877 69.1321ZM872.099 69V62.4545H873.322V63.5199H873.403C873.539 63.1591 873.762 62.8778 874.072 62.6761C874.381 62.4716 874.752 62.3693 875.184 62.3693C875.621 62.3693 875.988 62.4716 876.283 62.6761C876.582 62.8807 876.802 63.1619 876.944 63.5199H877.012C877.168 63.1705 877.417 62.892 877.758 62.6847C878.099 62.4744 878.505 62.3693 878.977 62.3693C879.57 62.3693 880.055 62.5554 880.43 62.9276C880.808 63.2997 880.996 63.8608 880.996 64.6108V69H879.722V64.7301C879.722 64.2869 879.602 63.9659 879.36 63.767C879.119 63.5682 878.83 63.4688 878.495 63.4688C878.08 63.4688 877.758 63.5966 877.528 63.8523C877.298 64.1051 877.183 64.4304 877.183 64.8281V69H875.913V64.6491C875.913 64.294 875.802 64.0085 875.58 63.7926C875.359 63.5767 875.07 63.4688 874.715 63.4688C874.474 63.4688 874.251 63.5327 874.046 63.6605C873.844 63.7855 873.681 63.9602 873.556 64.1847C873.434 64.4091 873.373 64.669 873.373 64.9645V69H872.099ZM885.88 69V62.4545H887.154V69H885.88ZM886.523 61.4446C886.302 61.4446 886.112 61.3707 885.952 61.223C885.796 61.0724 885.718 60.8935 885.718 60.6861C885.718 60.4759 885.796 60.2969 885.952 60.1491C886.112 59.9986 886.302 59.9233 886.523 59.9233C886.745 59.9233 886.934 59.9986 887.09 60.1491C887.249 60.2969 887.329 60.4759 887.329 60.6861C887.329 60.8935 887.249 61.0724 887.09 61.223C886.934 61.3707 886.745 61.4446 886.523 61.4446ZM888.868 71.4545V62.4545H890.113V63.5156H890.219C890.293 63.3793 890.4 63.2216 890.539 63.0426C890.678 62.8636 890.871 62.7074 891.118 62.5739C891.365 62.4375 891.692 62.3693 892.098 62.3693C892.627 62.3693 893.098 62.5028 893.513 62.7699C893.928 63.0369 894.253 63.4219 894.489 63.9247C894.728 64.4276 894.847 65.0327 894.847 65.7401C894.847 66.4474 894.729 67.054 894.493 67.5597C894.257 68.0625 893.934 68.4503 893.522 68.723C893.11 68.9929 892.64 69.1278 892.111 69.1278C891.713 69.1278 891.388 69.0611 891.135 68.9276C890.885 68.794 890.689 68.6378 890.547 68.4588C890.405 68.2798 890.296 68.1207 890.219 67.9815H890.142V71.4545H888.868ZM890.117 65.7273C890.117 66.1875 890.184 66.5909 890.317 66.9375C890.451 67.2841 890.644 67.5554 890.897 67.7514C891.15 67.9446 891.459 68.0412 891.826 68.0412C892.206 68.0412 892.525 67.9403 892.78 67.7386C893.036 67.5341 893.229 67.2571 893.36 66.9077C893.493 66.5582 893.56 66.1648 893.56 65.7273C893.56 65.2955 893.495 64.9077 893.364 64.5639C893.236 64.2202 893.043 63.9489 892.784 63.75C892.529 63.5511 892.209 63.4517 891.826 63.4517C891.456 63.4517 891.144 63.5469 890.888 63.7372C890.635 63.9276 890.444 64.1932 890.313 64.5341C890.182 64.875 890.117 65.2727 890.117 65.7273ZM901.179 64.0526L900.025 64.2571C899.976 64.1094 899.9 63.9687 899.794 63.8352C899.692 63.7017 899.553 63.5923 899.377 63.5071C899.201 63.4219 898.98 63.3793 898.716 63.3793C898.355 63.3793 898.054 63.4602 897.813 63.6222C897.571 63.7812 897.451 63.9872 897.451 64.2401C897.451 64.4588 897.532 64.6349 897.694 64.7685C897.855 64.902 898.117 65.0114 898.478 65.0966L899.517 65.3352C900.12 65.4744 900.569 65.6889 900.864 65.9787C901.159 66.2685 901.307 66.6449 901.307 67.108C901.307 67.5 901.194 67.8494 900.966 68.1562C900.742 68.4602 900.428 68.6989 900.025 68.8722C899.624 69.0455 899.159 69.1321 898.631 69.1321C897.898 69.1321 897.3 68.9759 896.837 68.6634C896.374 68.348 896.09 67.9006 895.985 67.321L897.216 67.1335C897.293 67.4545 897.451 67.6974 897.689 67.8622C897.928 68.0241 898.239 68.1051 898.623 68.1051C899.04 68.1051 899.374 68.0185 899.624 67.8452C899.874 67.669 899.999 67.4545 899.999 67.2017C899.999 66.9972 899.922 66.8253 899.769 66.6861C899.618 66.5469 899.387 66.4418 899.074 66.3707L897.966 66.1278C897.355 65.9886 896.904 65.767 896.611 65.4631C896.321 65.1591 896.176 64.7741 896.176 64.3082C896.176 63.9219 896.284 63.5838 896.5 63.294C896.716 63.0043 897.015 62.7784 897.395 62.6165C897.776 62.4517 898.212 62.3693 898.703 62.3693C899.411 62.3693 899.968 62.5227 900.374 62.8295C900.78 63.1335 901.049 63.5412 901.179 64.0526ZM906.854 66.2855V62.4545H908.133V69H906.88V67.8665H906.812C906.661 68.2159 906.42 68.5071 906.087 68.7401C905.758 68.9702 905.347 69.0852 904.856 69.0852C904.435 69.0852 904.063 68.9929 903.739 68.8082C903.418 68.6207 903.165 68.3438 902.981 67.9773C902.799 67.6108 902.708 67.1577 902.708 66.6179V62.4545H903.982V66.4645C903.982 66.9105 904.106 67.2656 904.353 67.5298C904.6 67.794 904.921 67.9261 905.316 67.9261C905.555 67.9261 905.792 67.8665 906.028 67.7472C906.266 67.6278 906.464 67.4474 906.62 67.206C906.779 66.9645 906.857 66.6577 906.854 66.2855ZM909.845 69V62.4545H911.068V63.5199H911.149C911.285 63.1591 911.508 62.8778 911.818 62.6761C912.127 62.4716 912.498 62.3693 912.93 62.3693C913.368 62.3693 913.734 62.4716 914.029 62.6761C914.328 62.8807 914.548 63.1619 914.69 63.5199H914.758C914.914 63.1705 915.163 62.892 915.504 62.6847C915.845 62.4744 916.251 62.3693 916.723 62.3693C917.316 62.3693 917.801 62.5554 918.176 62.9276C918.554 63.2997 918.743 63.8608 918.743 64.6108V69L917.468 69V64.7301C917.468 64.2869 917.348 63.9659 917.106 63.767C916.865 63.5682 916.576 63.4688 916.241 63.4688C915.826 63.4688 915.504 63.5966 915.274 63.8523C915.044 64.1051 914.929 64.4304 914.929 64.8281V69H913.659V64.6491C913.659 64.294 913.548 64.0085 913.326 63.7926C913.105 63.5767 912.816 63.4688 912.461 63.4688C912.22 63.4688 911.997 63.5327 911.792 63.6605C911.591 63.7855 911.427 63.9602 911.302 64.1847C911.18 64.4091 911.119 64.669 911.119 64.9645V69H909.845Z" fill="#E7E7E7"/>
<path d="M334.783 20V11.2727H336.1V18.8665H340.054V20H334.783ZM344.211 20.1321C343.598 20.1321 343.062 19.9915 342.605 19.7102C342.147 19.429 341.792 19.0355 341.539 18.5298C341.287 18.0241 341.16 17.4332 341.16 16.7571C341.16 16.0781 341.287 15.4844 341.539 14.9759C341.792 14.4673 342.147 14.0724 342.605 13.7912C343.062 13.5099 343.598 13.3693 344.211 13.3693C344.825 13.3693 345.36 13.5099 345.818 13.7912C346.275 14.0724 346.63 14.4673 346.883 14.9759C347.136 15.4844 347.262 16.0781 347.262 16.7571C347.262 17.4332 347.136 18.0241 346.883 18.5298C346.63 19.0355 346.275 19.429 345.818 19.7102C345.36 19.9915 344.825 20.1321 344.211 20.1321ZM344.216 19.0625C344.613 19.0625 344.943 18.9574 345.204 18.7472C345.466 18.5369 345.659 18.2571 345.784 17.9077C345.912 17.5582 345.975 17.1733 345.975 16.7528C345.975 16.3352 345.912 15.9517 345.784 15.6023C345.659 15.25 345.466 14.9673 345.204 14.7543C344.943 14.5412 344.613 14.4347 344.216 14.4347C343.815 14.4347 343.483 14.5412 343.218 14.7543C342.957 14.9673 342.762 15.25 342.635 15.6023C342.51 15.9517 342.447 16.3352 342.447 16.7528C342.447 17.1733 342.51 17.5582 342.635 17.9077C342.762 18.2571 342.957 18.5369 343.218 18.7472C343.483 18.9574 343.815 19.0625 344.216 19.0625ZM348.685 20V13.4545H349.916V14.4943H349.984C350.104 14.142 350.314 13.8651 350.615 13.6634C350.919 13.4588 351.263 13.3565 351.646 13.3565C351.726 13.3565 351.82 13.3594 351.928 13.3651C352.038 13.3707 352.125 13.3778 352.188 13.3864V14.6051C352.136 14.5909 352.045 14.5753 351.915 14.5582C351.784 14.5384 351.653 14.5284 351.523 14.5284C351.222 14.5284 350.953 14.5923 350.717 14.7202C350.484 14.8452 350.3 15.0199 350.163 15.2443C350.027 15.4659 349.959 15.7187 349.959 16.0028V20H348.685ZM355.877 20.1321C355.232 20.1321 354.676 19.9943 354.211 19.7188C353.748 19.4403 353.39 19.0497 353.137 18.5469C352.887 18.0412 352.762 17.4489 352.762 16.7699C352.762 16.0994 352.887 15.5085 353.137 14.9972C353.39 14.4858 353.742 14.0866 354.194 13.7997C354.648 13.5128 355.179 13.3693 355.787 13.3693C356.157 13.3693 356.515 13.4304 356.861 13.5526C357.208 13.6747 357.519 13.8665 357.794 14.1278C358.07 14.3892 358.287 14.7287 358.446 15.1463C358.605 15.5611 358.685 16.0653 358.685 16.6591V17.1108L353.482 17.1108V16.1562H357.436C357.436 15.821 357.368 15.5241 357.232 15.2656C357.096 15.0043 356.904 14.7983 356.657 14.6477C356.412 14.4972 356.125 14.4219 355.796 14.4219C355.438 14.4219 355.125 14.5099 354.858 14.6861C354.594 14.8594 354.39 15.0866 354.245 15.3679C354.103 15.6463 354.032 15.9489 354.032 16.2756V17.0213C354.032 17.4588 354.108 17.831 354.262 18.1378C354.418 18.4446 354.635 18.679 354.914 18.8409C355.192 19 355.517 19.0795 355.89 19.0795C356.131 19.0795 356.351 19.0455 356.55 18.9773C356.749 18.9062 356.921 18.8011 357.066 18.6619C357.211 18.5227 357.321 18.3509 357.398 18.1463L358.604 18.3636C358.507 18.7187 358.334 19.0298 358.084 19.2969C357.837 19.5611 357.526 19.767 357.151 19.9148C356.779 20.0597 356.354 20.1321 355.877 20.1321ZM360.099 20V13.4545H361.322V14.5199H361.403C361.539 14.1591 361.762 13.8778 362.072 13.6761C362.381 13.4716 362.752 13.3693 363.184 13.3693C363.621 13.3693 363.988 13.4716 364.283 13.6761C364.582 13.8807 364.802 14.1619 364.944 14.5199H365.012C365.168 14.1705 365.417 13.892 365.758 13.6847C366.099 13.4744 366.505 13.3693 366.977 13.3693C367.57 13.3693 368.055 13.5554 368.43 13.9276C368.808 14.2997 368.996 14.8608 368.996 15.6108V20H367.722V15.7301C367.722 15.2869 367.602 14.9659 367.36 14.767C367.119 14.5682 366.83 14.4688 366.495 14.4688C366.08 14.4688 365.758 14.5966 365.528 14.8523C365.298 15.1051 365.183 15.4304 365.183 15.8281V20H363.913V15.6491C363.913 15.294 363.802 15.0085 363.58 14.7926C363.359 14.5767 363.07 14.4688 362.715 14.4688C362.474 14.4688 362.251 14.5327 362.046 14.6605C361.844 14.7855 361.681 14.9602 361.556 15.1847C361.434 15.4091 361.373 15.669 361.373 15.9645V20H360.099ZM373.88 20V13.4545H375.154V20H373.88ZM374.523 12.4446C374.302 12.4446 374.112 12.3707 373.952 12.223C373.796 12.0724 373.718 11.8935 373.718 11.6861C373.718 11.4759 373.796 11.2969 373.952 11.1491C374.112 10.9986 374.302 10.9233 374.523 10.9233C374.745 10.9233 374.934 10.9986 375.09 11.1491C375.249 11.2969 375.329 11.4759 375.329 11.6861C375.329 11.8935 375.249 12.0724 375.09 12.223C374.934 12.3707 374.745 12.4446 374.523 12.4446ZM376.868 22.4545V13.4545L378.113 13.4545V14.5156H378.219C378.293 14.3793 378.4 14.2216 378.539 14.0426C378.678 13.8636 378.871 13.7074 379.118 13.5739C379.365 13.4375 379.692 13.3693 380.098 13.3693C380.627 13.3693 381.098 13.5028 381.513 13.7699C381.928 14.0369 382.253 14.4219 382.489 14.9247C382.728 15.4276 382.847 16.0327 382.847 16.7401C382.847 17.4474 382.729 18.054 382.493 18.5597C382.257 19.0625 381.934 19.4503 381.522 19.723C381.11 19.9929 380.64 20.1278 380.111 20.1278C379.713 20.1278 379.388 20.0611 379.135 19.9276C378.885 19.794 378.689 19.6378 378.547 19.4588C378.405 19.2798 378.296 19.1207 378.219 18.9815H378.142V22.4545H376.868ZM378.117 16.7273C378.117 17.1875 378.184 17.5909 378.317 17.9375C378.451 18.2841 378.644 18.5554 378.897 18.7514C379.15 18.9446 379.459 19.0412 379.826 19.0412C380.206 19.0412 380.525 18.9403 380.78 18.7386C381.036 18.5341 381.229 18.2571 381.36 17.9077C381.493 17.5582 381.56 17.1648 381.56 16.7273C381.56 16.2955 381.495 15.9077 381.364 15.5639C381.236 15.2202 381.043 14.9489 380.784 14.75C380.529 14.5511 380.209 14.4517 379.826 14.4517C379.456 14.4517 379.144 14.5469 378.888 14.7372C378.635 14.9276 378.444 15.1932 378.313 15.5341C378.182 15.875 378.117 16.2727 378.117 16.7273ZM389.179 15.0526L388.025 15.2571C387.976 15.1094 387.9 14.9687 387.794 14.8352C387.692 14.7017 387.553 14.5923 387.377 14.5071C387.201 14.4219 386.98 14.3793 386.716 14.3793C386.355 14.3793 386.054 14.4602 385.813 14.6222C385.571 14.7812 385.451 14.9872 385.451 15.2401C385.451 15.4588 385.532 15.6349 385.694 15.7685C385.855 15.902 386.117 16.0114 386.478 16.0966L387.517 16.3352C388.12 16.4744 388.569 16.6889 388.864 16.9787C389.159 17.2685 389.307 17.6449 389.307 18.108C389.307 18.5 389.194 18.8494 388.966 19.1563C388.742 19.4602 388.428 19.6989 388.025 19.8722C387.624 20.0455 387.159 20.1321 386.631 20.1321C385.898 20.1321 385.3 19.9759 384.837 19.6634C384.374 19.348 384.09 18.9006 383.985 18.321L385.216 18.1335C385.293 18.4545 385.451 18.6974 385.689 18.8622C385.928 19.0241 386.239 19.1051 386.623 19.1051C387.04 19.1051 387.374 19.0185 387.624 18.8452C387.874 18.669 387.999 18.4545 387.999 18.2017C387.999 17.9972 387.922 17.8253 387.769 17.6861C387.618 17.5469 387.387 17.4418 387.074 17.3707L385.966 17.1278C385.355 16.9886 384.904 16.767 384.611 16.4631C384.321 16.1591 384.176 15.7741 384.176 15.3082C384.176 14.9219 384.284 14.5838 384.5 14.294C384.716 14.0043 385.015 13.7784 385.395 13.6165C385.776 13.4517 386.212 13.3693 386.703 13.3693C387.411 13.3693 387.968 13.5227 388.374 13.8295C388.78 14.1335 389.049 14.5412 389.179 15.0526ZM394.854 17.2855V13.4545H396.133V20H394.88V18.8665H394.812C394.661 19.2159 394.42 19.5071 394.087 19.7401C393.758 19.9702 393.347 20.0852 392.856 20.0852C392.435 20.0852 392.063 19.9929 391.739 19.8082C391.418 19.6207 391.165 19.3438 390.981 18.9773C390.799 18.6108 390.708 18.1577 390.708 17.6179V13.4545H391.982V17.4645C391.982 17.9105 392.106 18.2656 392.353 18.5298C392.6 18.794 392.921 18.9261 393.316 18.9261C393.555 18.9261 393.792 18.8665 394.028 18.7472C394.266 18.6278 394.464 18.4474 394.62 18.206C394.779 17.9645 394.857 17.6577 394.854 17.2855ZM397.845 20V13.4545H399.068V14.5199H399.149C399.285 14.1591 399.508 13.8778 399.818 13.6761C400.127 13.4716 400.498 13.3693 400.93 13.3693C401.368 13.3693 401.734 13.4716 402.029 13.6761C402.328 13.8807 402.548 14.1619 402.69 14.5199H402.758C402.914 14.1705 403.163 13.892 403.504 13.6847C403.845 13.4744 404.251 13.3693 404.723 13.3693C405.316 13.3693 405.801 13.5554 406.176 13.9276C406.554 14.2997 406.743 14.8608 406.743 15.6108V20H405.468V15.7301C405.468 15.2869 405.348 14.9659 405.106 14.767C404.865 14.5682 404.576 14.4688 404.241 14.4688C403.826 14.4688 403.504 14.5966 403.274 14.8523C403.044 15.1051 402.929 15.4304 402.929 15.8281V20H401.659V15.6491C401.659 15.294 401.548 15.0085 401.326 14.7926C401.105 14.5767 400.816 14.4688 400.461 14.4688C400.22 14.4688 399.997 14.5327 399.792 14.6605C399.591 14.7855 399.427 14.9602 399.302 15.1847C399.18 15.4091 399.119 15.669 399.119 15.9645V20H397.845Z" fill="#E7E7E7"/>
<path d="M668.287 35.5V26.7727H669.604V34.3665H673.558V35.5H668.287ZM677.715 35.6321C677.102 35.6321 676.566 35.4915 676.109 35.2102C675.651 34.929 675.296 34.5355 675.043 34.0298C674.79 33.5241 674.664 32.9332 674.664 32.2571C674.664 31.5781 674.79 30.9844 675.043 30.4759C675.296 29.9673 675.651 29.5724 676.109 29.2912C676.566 29.0099 677.102 28.8693 677.715 28.8693C678.329 28.8693 678.864 29.0099 679.322 29.2912C679.779 29.5724 680.134 29.9673 680.387 30.4759C680.64 30.9844 680.766 31.5781 680.766 32.2571C680.766 32.9332 680.64 33.5241 680.387 34.0298C680.134 34.5355 679.779 34.929 679.322 35.2102C678.864 35.4915 678.329 35.6321 677.715 35.6321ZM677.719 34.5625C678.117 34.5625 678.447 34.4574 678.708 34.2472C678.969 34.0369 679.163 33.7571 679.288 33.4077C679.415 33.0582 679.479 32.6733 679.479 32.2528C679.479 31.8352 679.415 31.4517 679.288 31.1023C679.163 30.75 678.969 30.4673 678.708 30.2543C678.447 30.0412 678.117 29.9347 677.719 29.9347C677.319 29.9347 676.987 30.0412 676.722 30.2543C676.461 30.4673 676.266 30.75 676.138 31.1023C676.013 31.4517 675.951 31.8352 675.951 32.2528C675.951 32.6733 676.013 33.0582 676.138 33.4077C676.266 33.7571 676.461 34.0369 676.722 34.2472C676.987 34.4574 677.319 34.5625 677.719 34.5625ZM682.189 35.5V28.9545H683.42V29.9943H683.488C683.608 29.642 683.818 29.3651 684.119 29.1634C684.423 28.9588 684.767 28.8565 685.15 28.8565C685.23 28.8565 685.324 28.8594 685.431 28.8651C685.542 28.8707 685.629 28.8778 685.691 28.8864V30.1051C685.64 30.0909 685.549 30.0753 685.419 30.0582C685.288 30.0384 685.157 30.0284 685.027 30.0284C684.725 30.0284 684.457 30.0923 684.221 30.2202C683.988 30.3452 683.804 30.5199 683.667 30.7443C683.531 30.9659 683.463 31.2187 683.463 31.5028V35.5H682.189ZM689.381 35.6321C688.736 35.6321 688.18 35.4943 687.714 35.2188C687.251 34.9403 686.893 34.5497 686.641 34.0469C686.391 33.5412 686.266 32.9489 686.266 32.2699C686.266 31.5994 686.391 31.0085 686.641 30.4972C686.893 29.9858 687.246 29.5866 687.697 29.2997C688.152 29.0128 688.683 28.8693 689.291 28.8693C689.661 28.8693 690.018 28.9304 690.365 29.0526C690.712 29.1747 691.023 29.3665 691.298 29.6278C691.574 29.8892 691.791 30.2287 691.95 30.6463C692.109 31.0611 692.189 31.5653 692.189 32.1591V32.6108H686.986V31.6562H690.94C690.94 31.321 690.872 31.0241 690.736 30.7656C690.599 30.5043 690.408 30.2983 690.161 30.1477C689.916 29.9972 689.629 29.9219 689.3 29.9219C688.942 29.9219 688.629 30.0099 688.362 30.1861C688.098 30.3594 687.893 30.5866 687.749 30.8679C687.607 31.1463 687.536 31.4489 687.536 31.7756V32.5213C687.536 32.9588 687.612 33.331 687.766 33.6378C687.922 33.9446 688.139 34.179 688.418 34.3409C688.696 34.5 689.021 34.5795 689.393 34.5795C689.635 34.5795 689.855 34.5455 690.054 34.4773C690.253 34.4062 690.425 34.3011 690.57 34.1619C690.714 34.0227 690.825 33.8509 690.902 33.6463L692.108 33.8636C692.011 34.2187 691.838 34.5298 691.588 34.7969C691.341 35.0611 691.03 35.267 690.655 35.4148C690.283 35.5597 689.858 35.6321 689.381 35.6321ZM693.603 35.5V28.9545H694.826V30.0199H694.907C695.043 29.6591 695.266 29.3778 695.576 29.1761C695.885 28.9716 696.256 28.8693 696.688 28.8693C697.125 28.8693 697.492 28.9716 697.787 29.1761C698.086 29.3807 698.306 29.6619 698.448 30.0199H698.516C698.672 29.6705 698.921 29.392 699.262 29.1847C699.603 28.9744 700.009 28.8693 700.48 28.8693C701.074 28.8693 701.559 29.0554 701.934 29.4276C702.311 29.7997 702.5 30.3608 702.5 31.1108V35.5H701.226V31.2301C701.226 30.7869 701.105 30.4659 700.864 30.267C700.623 30.0682 700.334 29.9688 699.999 29.9688C699.584 29.9688 699.262 30.0966 699.032 30.3523C698.801 30.6051 698.686 30.9304 698.686 31.3281V35.5H697.417V31.1491C697.417 30.794 697.306 30.5085 697.084 30.2926C696.863 30.0767 696.574 29.9688 696.219 29.9688C695.978 29.9688 695.755 30.0327 695.55 30.1605C695.348 30.2855 695.185 30.4602 695.06 30.6847C694.938 30.9091 694.877 31.169 694.877 31.4645V35.5H693.603ZM707.384 35.5V28.9545H708.658V35.5H707.384ZM708.027 27.9446C707.806 27.9446 707.615 27.8707 707.456 27.723C707.3 27.5724 707.222 27.3935 707.222 27.1861C707.222 26.9759 707.3 26.7969 707.456 26.6491C707.615 26.4986 707.806 26.4233 708.027 26.4233C708.249 26.4233 708.438 26.4986 708.594 26.6491C708.753 26.7969 708.833 26.9759 708.833 27.1861C708.833 27.3935 708.753 27.5724 708.594 27.723C708.438 27.8707 708.249 27.9446 708.027 27.9446ZM710.372 37.9545V28.9545L711.616 28.9545V30.0156H711.723C711.797 29.8793 711.903 29.7216 712.043 29.5426C712.182 29.3636 712.375 29.2074 712.622 29.0739C712.869 28.9375 713.196 28.8693 713.602 28.8693C714.131 28.8693 714.602 29.0028 715.017 29.2699C715.432 29.5369 715.757 29.9219 715.993 30.4247C716.232 30.9276 716.351 31.5327 716.351 32.2401C716.351 32.9474 716.233 33.554 715.997 34.0597C715.761 34.5625 715.438 34.9503 715.026 35.223C714.614 35.4929 714.143 35.6278 713.615 35.6278C713.217 35.6278 712.892 35.5611 712.639 35.4276C712.389 35.294 712.193 35.1378 712.051 34.9588C711.909 34.7798 711.8 34.6207 711.723 34.4815H711.646V37.9545H710.372ZM711.621 32.2273C711.621 32.6875 711.688 33.0909 711.821 33.4375C711.955 33.7841 712.148 34.0554 712.401 34.2514C712.653 34.4446 712.963 34.5412 713.33 34.5412C713.71 34.5412 714.028 34.4403 714.284 34.2386C714.54 34.0341 714.733 33.7571 714.864 33.4077C714.997 33.0582 715.064 32.6648 715.064 32.2273C715.064 31.7955 714.999 31.4077 714.868 31.0639C714.74 30.7202 714.547 30.4489 714.288 30.25C714.033 30.0511 713.713 29.9517 713.33 29.9517C712.96 29.9517 712.648 30.0469 712.392 30.2372C712.139 30.4276 711.947 30.6932 711.817 31.0341C711.686 31.375 711.621 31.7727 711.621 32.2273ZM722.683 30.5526L721.528 30.7571C721.48 30.6094 721.403 30.4687 721.298 30.3352C721.196 30.2017 721.057 30.0923 720.881 30.0071C720.705 29.9219 720.484 29.8793 720.22 29.8793C719.859 29.8793 719.558 29.9602 719.317 30.1222C719.075 30.2812 718.955 30.4872 718.955 30.7401C718.955 30.9588 719.036 31.1349 719.197 31.2685C719.359 31.402 719.621 31.5114 719.982 31.5966L721.021 31.8352C721.624 31.9744 722.072 32.1889 722.368 32.4787C722.663 32.7685 722.811 33.1449 722.811 33.608C722.811 34 722.697 34.3494 722.47 34.6563C722.246 34.9602 721.932 35.1989 721.528 35.3722C721.128 35.5455 720.663 35.6321 720.135 35.6321C719.402 35.6321 718.804 35.4759 718.341 35.1634C717.878 34.848 717.594 34.4006 717.489 33.821L718.72 33.6335C718.797 33.9545 718.955 34.1974 719.193 34.3622C719.432 34.5241 719.743 34.6051 720.126 34.6051C720.544 34.6051 720.878 34.5185 721.128 34.3452C721.378 34.169 721.503 33.9545 721.503 33.7017C721.503 33.4972 721.426 33.3253 721.273 33.1861C721.122 33.0469 720.891 32.9418 720.578 32.8707L719.47 32.6278C718.859 32.4886 718.408 32.267 718.115 31.9631C717.825 31.6591 717.68 31.2741 717.68 30.8082C717.68 30.4219 717.788 30.0838 718.004 29.794C718.22 29.5043 718.518 29.2784 718.899 29.1165C719.28 28.9517 719.716 28.8693 720.207 28.8693C720.915 28.8693 721.472 29.0227 721.878 29.3295C722.284 29.6335 722.553 30.0412 722.683 30.5526ZM728.358 32.7855V28.9545H729.637V35.5H728.384V34.3665H728.316C728.165 34.7159 727.924 35.0071 727.591 35.2401C727.262 35.4702 726.851 35.5852 726.36 35.5852C725.939 35.5852 725.567 35.4929 725.243 35.3082C724.922 35.1207 724.669 34.8438 724.485 34.4773C724.303 34.1108 724.212 33.6577 724.212 33.1179V28.9545H725.486V32.9645C725.486 33.4105 725.61 33.7656 725.857 34.0298C726.104 34.294 726.425 34.4261 726.82 34.4261C727.059 34.4261 727.296 34.3665 727.532 34.2472C727.77 34.1278 727.968 33.9474 728.124 33.706C728.283 33.4645 728.361 33.1577 728.358 32.7855ZM731.349 35.5V28.9545H732.572V30.0199H732.653C732.789 29.6591 733.012 29.3778 733.322 29.1761C733.631 28.9716 734.002 28.8693 734.434 28.8693C734.871 28.8693 735.238 28.9716 735.533 29.1761C735.832 29.3807 736.052 29.6619 736.194 30.0199H736.262C736.418 29.6705 736.667 29.392 737.008 29.1847C737.349 28.9744 737.755 28.8693 738.227 28.8693C738.82 28.8693 739.305 29.0554 739.68 29.4276C740.058 29.7997 740.246 30.3608 740.246 31.1108V35.5H738.972V31.2301C738.972 30.7869 738.852 30.4659 738.61 30.267C738.369 30.0682 738.08 29.9688 737.745 29.9688C737.33 29.9688 737.008 30.0966 736.778 30.3523C736.548 30.6051 736.433 30.9304 736.433 31.3281V35.5H735.163V31.1491C735.163 30.794 735.052 30.5085 734.83 30.2926C734.609 30.0767 734.32 29.9688 733.965 29.9688C733.724 29.9688 733.501 30.0327 733.296 30.1605C733.094 30.2855 732.931 30.4602 732.806 30.6847C732.684 30.9091 732.623 31.169 732.623 31.4645V35.5H731.349Z" fill="#E7E7E7"/>
<path d="M208.508 92.5V83.7727H209.824V91.3665H213.779V92.5H208.508ZM217.936 92.6321C217.322 92.6321 216.787 92.4915 216.329 92.2102C215.872 91.929 215.517 91.5355 215.264 91.0298C215.011 90.5241 214.885 89.9332 214.885 89.2571C214.885 88.5781 215.011 87.9844 215.264 87.4759C215.517 86.9673 215.872 86.5724 216.329 86.2912C216.787 86.0099 217.322 85.8693 217.936 85.8693C218.55 85.8693 219.085 86.0099 219.542 86.2912C220 86.5724 220.355 86.9673 220.608 87.4759C220.861 87.9844 220.987 88.5781 220.987 89.2571C220.987 89.9332 220.861 90.5241 220.608 91.0298C220.355 91.5355 220 91.929 219.542 92.2102C219.085 92.4915 218.55 92.6321 217.936 92.6321ZM217.94 91.5625C218.338 91.5625 218.667 91.4574 218.929 91.2472C219.19 91.0369 219.383 90.7571 219.508 90.4077C219.636 90.0582 219.7 89.6733 219.7 89.2528C219.7 88.8352 219.636 88.4517 219.508 88.1023C219.383 87.75 219.19 87.4673 218.929 87.2543C218.667 87.0412 218.338 86.9347 217.94 86.9347C217.54 86.9347 217.207 87.0412 216.943 87.2543C216.682 87.4673 216.487 87.75 216.359 88.1023C216.234 88.4517 216.172 88.8352 216.172 89.2528C216.172 89.6733 216.234 90.0582 216.359 90.4077C216.487 90.7571 216.682 91.0369 216.943 91.2472C217.207 91.4574 217.54 91.5625 217.94 91.5625ZM222.409 92.5V85.9545H223.641V86.9943H223.709C223.828 86.642 224.039 86.3651 224.34 86.1634C224.644 85.9588 224.987 85.8565 225.371 85.8565C225.45 85.8565 225.544 85.8594 225.652 85.8651C225.763 85.8707 225.85 85.8778 225.912 85.8864V87.1051C225.861 87.0909 225.77 87.0753 225.639 87.0582C225.509 87.0384 225.378 87.0284 225.247 87.0284C224.946 87.0284 224.678 87.0923 224.442 87.2202C224.209 87.3452 224.024 87.5199 223.888 87.7443C223.752 87.9659 223.683 88.2187 223.683 88.5028V92.5H222.409ZM229.601 92.6321C228.956 92.6321 228.401 92.4943 227.935 92.2188C227.472 91.9403 227.114 91.5497 226.861 91.0469C226.611 90.5412 226.486 89.9489 226.486 89.2699C226.486 88.5994 226.611 88.0085 226.861 87.4972C227.114 86.9858 227.466 86.5866 227.918 86.2997C228.373 86.0128 228.904 85.8693 229.512 85.8693C229.881 85.8693 230.239 85.9304 230.586 86.0526C230.932 86.1747 231.243 86.3665 231.519 86.6278C231.795 86.8892 232.012 87.2287 232.171 87.6463C232.33 88.0611 232.41 88.5653 232.41 89.1591V89.6108H227.206V88.6562H231.161C231.161 88.321 231.093 88.0241 230.956 87.7656C230.82 87.5043 230.628 87.2983 230.381 87.1477C230.137 86.9972 229.85 86.9219 229.52 86.9219C229.162 86.9219 228.85 87.0099 228.583 87.1861C228.319 87.3594 228.114 87.5866 227.969 87.8679C227.827 88.1463 227.756 88.4489 227.756 88.7756V89.5213C227.756 89.9588 227.833 90.331 227.986 90.6378C228.143 90.9446 228.36 91.179 228.638 91.3409C228.917 91.5 229.242 91.5795 229.614 91.5795C229.856 91.5795 230.076 91.5455 230.275 91.4773C230.474 91.4062 230.645 91.3011 230.79 91.1619C230.935 91.0227 231.046 90.8509 231.123 90.6463L232.329 90.8636C232.232 91.2187 232.059 91.5298 231.809 91.7969C231.562 92.0611 231.251 92.267 230.876 92.4148C230.503 92.5597 230.079 92.6321 229.601 92.6321ZM233.823 92.5V85.9545H235.046V87.0199H235.127C235.264 86.6591 235.487 86.3778 235.796 86.1761C236.106 85.9716 236.477 85.8693 236.909 85.8693C237.346 85.8693 237.713 85.9716 238.008 86.1761C238.306 86.3807 238.526 86.6619 238.669 87.0199H238.737C238.893 86.6705 239.142 86.392 239.482 86.1847C239.823 85.9744 240.23 85.8693 240.701 85.8693C241.295 85.8693 241.779 86.0554 242.154 86.4276C242.532 86.7997 242.721 87.3608 242.721 88.1108V92.5H241.447V88.2301C241.447 87.7869 241.326 87.4659 241.085 87.267C240.843 87.0682 240.555 86.9688 240.22 86.9688C239.805 86.9688 239.482 87.0966 239.252 87.3523C239.022 87.6051 238.907 87.9304 238.907 88.3281V92.5H237.637V88.1491C237.637 87.794 237.526 87.5085 237.305 87.2926C237.083 87.0767 236.795 86.9688 236.44 86.9688C236.198 86.9688 235.975 87.0327 235.771 87.1605C235.569 87.2855 235.406 87.4602 235.281 87.6847C235.159 87.9091 235.097 88.169 235.097 88.4645V92.5H233.823ZM247.605 92.5V85.9545H248.879V92.5H247.605ZM248.248 84.9446C248.026 84.9446 247.836 84.8707 247.677 84.723C247.521 84.5724 247.443 84.3935 247.443 84.1861C247.443 83.9759 247.521 83.7969 247.677 83.6491C247.836 83.4986 248.026 83.4233 248.248 83.4233C248.47 83.4233 248.659 83.4986 248.815 83.6491C248.974 83.7969 249.053 83.9759 249.053 84.1861C249.053 84.3935 248.974 84.5724 248.815 84.723C248.659 84.8707 248.47 84.9446 248.248 84.9446ZM250.593 94.9545V85.9545H251.837V87.0156H251.944C252.018 86.8793 252.124 86.7216 252.263 86.5426C252.403 86.3636 252.596 86.2074 252.843 86.0739C253.09 85.9375 253.417 85.8693 253.823 85.8693C254.351 85.8693 254.823 86.0028 255.238 86.2699C255.653 86.5369 255.978 86.9219 256.214 87.4247C256.452 87.9276 256.572 88.5327 256.572 89.2401C256.572 89.9474 256.454 90.554 256.218 91.0597C255.982 91.5625 255.658 91.9503 255.246 92.223C254.834 92.4929 254.364 92.6278 253.836 92.6278C253.438 92.6278 253.113 92.5611 252.86 92.4276C252.61 92.294 252.414 92.1378 252.272 91.9588C252.13 91.7798 252.02 91.6207 251.944 91.4815H251.867V94.9545H250.593ZM251.841 89.2273C251.841 89.6875 251.908 90.0909 252.042 90.4375C252.175 90.7841 252.368 91.0554 252.621 91.2514C252.874 91.4446 253.184 91.5412 253.55 91.5412C253.931 91.5412 254.249 91.4403 254.505 91.2386C254.76 91.0341 254.954 90.7571 255.084 90.4077C255.218 90.0582 255.285 89.6648 255.285 89.2273C255.285 88.7955 255.219 88.4077 255.089 88.0639C254.961 87.7202 254.768 87.4489 254.509 87.25C254.253 87.0511 253.934 86.9517 253.55 86.9517C253.181 86.9517 252.868 87.0469 252.613 87.2372C252.36 87.4276 252.168 87.6932 252.037 88.0341C251.907 88.375 251.841 88.7727 251.841 89.2273ZM262.904 87.5526L261.749 87.7571C261.701 87.6094 261.624 87.4687 261.519 87.3352C261.417 87.2017 261.278 87.0923 261.101 87.0071C260.925 86.9219 260.705 86.8793 260.441 86.8793C260.08 86.8793 259.779 86.9602 259.537 87.1222C259.296 87.2812 259.175 87.4872 259.175 87.7401C259.175 87.9588 259.256 88.1349 259.418 88.2685C259.58 88.402 259.841 88.5114 260.202 88.5966L261.242 88.8352C261.844 88.9744 262.293 89.1889 262.589 89.4787C262.884 89.7685 263.032 90.1449 263.032 90.608C263.032 91 262.918 91.3494 262.691 91.6562C262.466 91.9602 262.153 92.1989 261.749 92.3722C261.349 92.5455 260.884 92.6321 260.356 92.6321C259.623 92.6321 259.025 92.4759 258.562 92.1634C258.099 91.848 257.814 91.4006 257.709 90.821L258.941 90.6335C259.018 90.9545 259.175 91.1974 259.414 91.3622C259.653 91.5241 259.964 91.6051 260.347 91.6051C260.765 91.6051 261.099 91.5185 261.349 91.3452C261.599 91.169 261.724 90.9545 261.724 90.7017C261.724 90.4972 261.647 90.3253 261.493 90.1861C261.343 90.0469 261.111 89.9418 260.799 89.8707L259.691 89.6278C259.08 89.4886 258.628 89.267 258.336 88.9631C258.046 88.6591 257.901 88.2741 257.901 87.8082C257.901 87.4219 258.009 87.0838 258.225 86.794C258.441 86.5043 258.739 86.2784 259.12 86.1165C259.501 85.9517 259.937 85.8693 260.428 85.8693C261.135 85.8693 261.692 86.0227 262.099 86.3295C262.505 86.6335 262.773 87.0412 262.904 87.5526ZM268.579 89.7855V85.9545H269.857V92.5H268.605V91.3665H268.536C268.386 91.7159 268.144 92.0071 267.812 92.2401C267.482 92.4702 267.072 92.5852 266.58 92.5852C266.16 92.5852 265.788 92.4929 265.464 92.3082C265.143 92.1207 264.89 91.8438 264.705 91.4773C264.524 91.1108 264.433 90.6577 264.433 90.1179V85.9545H265.707V89.9645C265.707 90.4105 265.83 90.7656 266.078 91.0298C266.325 91.294 266.646 91.4261 267.041 91.4261C267.279 91.4261 267.517 91.3665 267.752 91.2472C267.991 91.1278 268.188 90.9474 268.345 90.706C268.504 90.4645 268.582 90.1577 268.579 89.7855ZM271.569 92.5V85.9545H272.792V87.0199H272.873C273.01 86.6591 273.233 86.3778 273.542 86.1761C273.852 85.9716 274.223 85.8693 274.655 85.8693C275.092 85.8693 275.459 85.9716 275.754 86.1761C276.052 86.3807 276.273 86.6619 276.415 87.0199H276.483C276.639 86.6705 276.888 86.392 277.229 86.1847C277.569 85.9744 277.976 85.8693 278.447 85.8693C279.041 85.8693 279.525 86.0554 279.9 86.4276C280.278 86.7997 280.467 87.3608 280.467 88.1108V92.5L279.193 92.5V88.2301C279.193 87.7869 279.072 87.4659 278.831 87.267C278.589 87.0682 278.301 86.9688 277.966 86.9688C277.551 86.9688 277.229 87.0966 276.998 87.3523C276.768 87.6051 276.653 87.9304 276.653 88.3281V92.5H275.383V88.1491C275.383 87.794 275.273 87.5085 275.051 87.2926C274.829 87.0767 274.541 86.9688 274.186 86.9688C273.944 86.9688 273.721 87.0327 273.517 87.1605C273.315 87.2855 273.152 87.4602 273.027 87.6847C272.905 87.9091 272.844 88.169 272.844 88.4645V92.5H271.569Z" fill="#E7E7E7"/>
<defs>
<filter id="filter0_d_992_10073" x="476.824" y="4" width="116" height="116" filterUnits="userSpaceOnUse" color-interpolation-filters="sRGB">
<feFlood flood-opacity="0" result="BackgroundImageFix"/>
<feColorMatrix in="SourceAlpha" type="matrix" values="0 0 0 0 0 0 0 0 0 0 0 0 0 0 0 0 0 0 127 0" result="hardAlpha"/>
<feOffset dy="4"/>
<feGaussianBlur stdDeviation="4"/>
<feComposite in2="hardAlpha" operator="out"/>
<feColorMatrix type="matrix" values="0 0 0 0 0.952941 0 0 0 0 0.572549 0 0 0 0 0 0 0 0 0.3 0"/>
<feBlend mode="normal" in2="BackgroundImageFix" result="effect1_dropShadow_992_10073"/>
<feBlend mode="normal" in="SourceGraphic" in2="effect1_dropShadow_992_10073" result="shape"/>
</filter>
<filter id="filter1_d_992_10073" x="494.941" y="23.838" width="73.7617" height="76.2288" filterUnits="userSpaceOnUse" color-interpolation-filters="sRGB">
<feFlood flood-opacity="0" result="BackgroundImageFix"/>
<feColorMatrix in="SourceAlpha" type="matrix" values="0 0 0 0 0 0 0 0 0 0 0 0 0 0 0 0 0 0 127 0" result="hardAlpha"/>
<feOffset dy="4"/>
<feGaussianBlur stdDeviation="8"/>
<feComposite in2="hardAlpha" operator="out"/>
<feColorMatrix type="matrix" values="0 0 0 0 0.952941 0 0 0 0 0.572549 0 0 0 0 0 0 0 0 0.8 0"/>
<feBlend mode="normal" in2="BackgroundImageFix" result="effect1_dropShadow_992_10073"/>
<feBlend mode="normal" in="SourceGraphic" in2="effect1_dropShadow_992_10073" result="shape"/>
</filter>
<filter id="filter2_d_992_10073" x="506.16" y="30.5991" width="61.5742" height="65.8361" filterUnits="userSpaceOnUse" color-interpolation-filters="sRGB">
<feFlood flood-opacity="0" result="BackgroundImageFix"/>
<feColorMatrix in="SourceAlpha" type="matrix" values="0 0 0 0 0 0 0 0 0 0 0 0 0 0 0 0 0 0 127 0" result="hardAlpha"/>
<feOffset dy="4"/>
<feGaussianBlur stdDeviation="8"/>
<feComposite in2="hardAlpha" operator="out"/>
<feColorMatrix type="matrix" values="0 0 0 0 0.952941 0 0 0 0 0.572549 0 0 0 0 0 0 0 0 0.8 0"/>
<feBlend mode="normal" in2="BackgroundImageFix" result="effect1_dropShadow_992_10073"/>
<feBlend mode="normal" in="SourceGraphic" in2="effect1_dropShadow_992_10073" result="shape"/>
</filter>
<filter id="filter3_d_992_10073" x="325" y="144" width="172" height="72" filterUnits="userSpaceOnUse" color-interpolation-filters="sRGB">
<feFlood flood-opacity="0" result="BackgroundImageFix"/>
<feColorMatrix in="SourceAlpha" type="matrix" values="0 0 0 0 0 0 0 0 0 0 0 0 0 0 0 0 0 0 127 0" result="hardAlpha"/>
<feOffset dy="4"/>
<feGaussianBlur stdDeviation="8"/>
<feComposite in2="hardAlpha" operator="out"/>
<feColorMatrix type="matrix" values="0 0 0 0 0.952941 0 0 0 0 0.572549 0 0 0 0 0 0 0 0 0.15 0"/>
<feBlend mode="normal" in2="BackgroundImageFix" result="effect1_dropShadow_992_10073"/>
<feBlend mode="normal" in="SourceGraphic" in2="effect1_dropShadow_992_10073" result="shape"/>
</filter>
<filter id="filter4_d_992_10073" x="602" y="144" width="123" height="72" filterUnits="userSpaceOnUse" color-interpolation-filters="sRGB">
<feFlood flood-opacity="0" result="BackgroundImageFix"/>
<feColorMatrix in="SourceAlpha" type="matrix" values="0 0 0 0 0 0 0 0 0 0 0 0 0 0 0 0 0 0 127 0" result="hardAlpha"/>
<feOffset dy="4"/>
<feGaussianBlur stdDeviation="8"/>
<feComposite in2="hardAlpha" operator="out"/>
<feColorMatrix type="matrix" values="0 0 0 0 0.952941 0 0 0 0 0.572549 0 0 0 0 0 0 0 0 0.15 0"/>
<feBlend mode="normal" in2="BackgroundImageFix" result="effect1_dropShadow_992_10073"/>
<feBlend mode="normal" in="SourceGraphic" in2="effect1_dropShadow_992_10073" result="shape"/>
</filter>
<filter id="filter5_d_992_10073" x="442" y="206" width="190" height="72" filterUnits="userSpaceOnUse" color-interpolation-filters="sRGB">
<feFlood flood-opacity="0" result="BackgroundImageFix"/>
<feColorMatrix in="SourceAlpha" type="matrix" values="0 0 0 0 0 0 0 0 0 0 0 0 0 0 0 0 0 0 127 0" result="hardAlpha"/>
<feOffset dy="4"/>
<feGaussianBlur stdDeviation="8"/>
<feComposite in2="hardAlpha" operator="out"/>
<feColorMatrix type="matrix" values="0 0 0 0 0.952941 0 0 0 0 0.572549 0 0 0 0 0 0 0 0 0.15 0"/>
<feBlend mode="normal" in2="BackgroundImageFix" result="effect1_dropShadow_992_10073"/>
<feBlend mode="normal" in="SourceGraphic" in2="effect1_dropShadow_992_10073" result="shape"/>
</filter>
<linearGradient id="paint0_linear_992_10073" x1="516.967" y1="88.0741" x2="442.198" y2="177.838" gradientUnits="userSpaceOnUse">
<stop stop-color="#F39200"/>
<stop offset="1" stop-color="white"/>
</linearGradient>
<linearGradient id="paint1_linear_992_10073" x1="574.455" y1="65.8704" x2="685.908" y2="138.907" gradientUnits="userSpaceOnUse">
<stop stop-color="#F39200"/>
<stop offset="1" stop-color="white"/>
</linearGradient>
<linearGradient id="paint2_linear_992_10073" x1="552.5" y1="66.0531" x2="585.276" y2="216.238" gradientUnits="userSpaceOnUse">
<stop stop-color="#F39200"/>
<stop offset="1" stop-color="white"/>
</linearGradient>
</defs>
</svg>
