<svg width="32" height="32" viewBox="0 0 32 32" fill="none" xmlns="http://www.w3.org/2000/svg">
<path d="M27.8977 29.1794H4.10107V31.0204H27.8977V29.1794Z" fill="#FFEBCE"/>
<path d="M16.5976 19.8826H15.4004V29.1794H16.5976V19.8826Z" fill="#E1E1E1"/>
<path d="M16.5976 28.2107V28.7339L15.9349 29.1794H15.4004V29.0138L16.5976 28.2107Z" fill="#F39200"/>
<path d="M16.5976 26.6609V27.18L15.4004 27.9827V27.4603L16.5976 26.6609Z" fill="#F39200"/>
<path d="M16.5976 25.1072V25.63L15.4004 26.4286V25.9098L16.5976 25.1072Z" fill="#F39200"/>
<path d="M16.5976 23.5571V24.0763L15.4004 24.8752V24.3561L16.5976 23.5571Z" fill="#F39200"/>
<path d="M16.5976 22.0034V22.5262L15.4004 23.3252V22.8061L16.5976 22.0034Z" fill="#F39200"/>
<path d="M16.5976 20.4534V20.9725L15.4004 21.7752V21.2523L16.5976 20.4534Z" fill="#F39200"/>
<path d="M15.908 19.8826L15.4004 20.2213V19.8826H15.908Z" fill="#F39200"/>
<path d="M17.931 19.668H14.0684V20.7112H17.931V19.668Z" fill="#FFEBCE"/>
<path d="M22.5289 9.20508H9.47168V16.5689H22.5289V9.20508Z" fill="#E1E1E1"/>
<path d="M20.6898 7.54834H11.3101V9.20519H20.6898V7.54834Z" fill="#E1E1E1"/>
<path d="M19.2635 1.3811H12.7349V5.55432H19.2635V1.3811Z" fill="#FFEBCE"/>
<path d="M32 0.000732422H0V1.96482H32V0.000732422Z" fill="#E1E1E1"/>
<path d="M22.5285 6.99599C22.5285 7.29995 22.1564 7.54827 21.7004 7.54827H10.2983C9.84342 7.54827 9.4707 7.29995 9.4707 6.99599V5.52323C9.4707 5.21927 9.84281 4.97095 10.2983 4.97095H21.7004C22.1558 4.97095 22.5285 5.21927 22.5285 5.52323V6.99599Z" fill="#F39200"/>
<path d="M15.9997 16.5691H22.5289L19.6324 19.668H15.9997H12.3676L9.47168 16.5691H15.9997Z" fill="#F39200"/>
<path d="M11.8618 7.54834H11.3101V9.20519H11.8618V7.54834Z" fill="#F39200"/>
<path d="M13.3325 7.54834H12.7808V9.20519H13.3325V7.54834Z" fill="#F39200"/>
<path d="M14.8046 7.54834H14.2529V9.20519H14.8046V7.54834Z" fill="#F39200"/>
<path d="M16.2753 7.54834H15.7236V9.20519H16.2753V7.54834Z" fill="#F39200"/>
<path d="M17.7465 7.54834H17.1948V9.20519H17.7465V7.54834Z" fill="#F39200"/>
<path d="M19.2182 7.54834H18.6665V9.20519H19.2182V7.54834Z" fill="#F39200"/>
<path d="M20.6884 7.54834H20.1367V9.20519H20.6884V7.54834Z" fill="#F39200"/>
<path opacity="0.15" d="M15.9987 29.1794H16.5976V20.7111H17.9309V19.6679H19.632L22.5285 16.5689V9.20515H20.6895V7.5483H21.7003C22.1558 7.5483 22.5285 7.29997 22.5285 6.99601V5.52325C22.5285 5.21929 22.1564 4.97097 21.7003 4.97097H19.2636V1.96409H31.9996V0H15.998L15.9987 29.1794Z" fill="#F39200"/>
</svg>
